<?xml version="1.0" standalone="no"?><!DOCTYPE svg PUBLIC "-//W3C//DTD SVG 1.1//EN" "http://www.w3.org/Graphics/SVG/1.1/DTD/svg11.dtd"><svg height="1024" node-id="1" sillyvg="true" template-height="1024" template-width="1024" version="1.1" viewBox="0 0 1024 1024" width="1024" xmlns="http://www.w3.org/2000/svg" xmlns:xlink="http://www.w3.org/1999/xlink"><defs node-id="80"><linearGradient gradientUnits="objectBoundingBox" id="linearGradient-4" node-id="15" spreadMethod="pad" x1="0.41659564" x2="0.8713919" y1="0.30978626" y2="0.80065745"><stop offset="0" stop-color="#ffe476" stop-opacity="0"></stop><stop offset="0.4367953" stop-color="#fdc849"></stop><stop offset="1" stop-color="#914103"></stop></linearGradient><linearGradient gradientUnits="objectBoundingBox" id="linearGradient-6" node-id="21" spreadMethod="pad" x1="0.41659564" x2="0.87785286" y1="0.28709698" y2="0.8443261"><stop offset="0" stop-color="#ffe476" stop-opacity="0"></stop><stop offset="0.4367953" stop-color="#fdc849"></stop><stop offset="1" stop-color="#ffb02f"></stop></linearGradient><linearGradient gradientUnits="objectBoundingBox" id="linearGradient1" node-id="98" spreadMethod="pad" x1="0.5" x2="0.5" y1="0" y2="1"><stop offset="0" stop-color="#ffffff"></stop><stop offset="1" stop-color="#ffedbe"></stop></linearGradient><linearGradient gradientUnits="objectBoundingBox" id="linearGradient-12" node-id="39" spreadMethod="pad" x1="0.5" x2="0.5" y1="0" y2="1"><stop offset="0" stop-color="#ffffff"></stop><stop offset="1" stop-color="#ffedbe"></stop></linearGradient><radialGradient cx="0.5" cy="0.1966899" fx="0.5" fy="0.1966899" gradientUnits="objectBoundingBox" id="radialGradient-1" node-id="5" r="0.9393923" rev="1" spreadMethod="pad"><stop offset="0" stop-color="#ffe476"></stop><stop offset="0.41387266" stop-color="#fcec6c"></stop><stop offset="1" stop-color="#ffb02f"></stop></radialGradient><filter height="975.936" id="filter-3" node-id="10" width="1029.669" x="-71.71383" y="-72.383995"><feGaussianBlur color-interpolation-filters="linearRGB" in="SourceAlpha" result="shadowBlurInner1" stdDeviation="64 64"></feGaussianBlur><feOffset color-interpolation-filters="linearRGB" dx="0" dy="16" in="shadowBlurInner1" result="shadowOffsetInner1"></feOffset><feComposite color-interpolation-filters="linearRGB" in="shadowOffsetInner1" in2="SourceAlpha" k1="0" k2="-1" k3="1" k4="0" operator="arithmetic" result="shadowInnerInner1"></feComposite><feColorMatrix color-interpolation-filters="linearRGB" in="shadowInnerInner1" result="result4" type="matrix" values="0 0 0 0 0.96862745 0 0 0 0 0.6862745 0 0 0 0 0.27058825 0 0 0 0.5011456 0"></feColorMatrix></filter><filter height="380.91205" id="filter-5" node-id="19" width="444.91202" x="473.728" y="425.69598"><feGaussianBlur color-interpolation-filters="linearRGB" in="SourceGraphic" result="result1" stdDeviation="12.8 12.8"></feGaussianBlur></filter><filter height="207.98401" id="filter-8" node-id="26" width="304.09595" x="543.952" y="543.952"><feOffset color-interpolation-filters="linearRGB" dx="0" dy="0" in="SourceAlpha" result="shadowOffsetOuter1"></feOffset><feGaussianBlur color-interpolation-filters="linearRGB" in="shadowOffsetOuter1" result="shadowBlurOuter1" stdDeviation="16 16"></feGaussianBlur><feColorMatrix color-interpolation-filters="linearRGB" in="shadowBlurOuter1" result="result3" type="matrix" values="0 0 0 0 1 0 0 0 0 0.9485037 0 0 0 0 0.56682485 0 0 0 1 0"></feColorMatrix></filter><filter height="191.96802" id="filter-9" node-id="30" width="288.08002" x="552.064" y="552.016"><feGaussianBlur color-interpolation-filters="linearRGB" in="SourceAlpha" result="shadowBlurInner1" stdDeviation="8 8"></feGaussianBlur><feOffset color-interpolation-filters="linearRGB" dx="0" dy="0" in="shadowBlurInner1" result="shadowOffsetInner1"></feOffset><feComposite color-interpolation-filters="linearRGB" in="shadowOffsetInner1" in2="SourceAlpha" k1="0" k2="-1" k3="1" k4="0" operator="arithmetic" result="shadowInnerInner1"></feComposite><feColorMatrix color-interpolation-filters="linearRGB" in="shadowInnerInner1" result="result4" type="matrix" values="0 0 0 0 0.6612584 0 0 0 0 0.08722547 0 0 0 0 0.009827761 0 0 0 1 0"></feColorMatrix></filter><filter height="399.95203" id="filter-10" node-id="35" width="463.93604" x="464.03198" y="263.96802"><feGaussianBlur color-interpolation-filters="linearRGB" in="SourceGraphic" result="result1" stdDeviation="48 48"></feGaussianBlur></filter><filter height="399.95203" id="filter-11" node-id="37" width="463.93604" x="-15.968002" y="263.96802"><feGaussianBlur color-interpolation-filters="linearRGB" in="SourceGraphic" result="result1" stdDeviation="48 48"></feGaussianBlur></filter><filter height="303.95206" id="filter-14" node-id="43" width="509.92545" x="-72.11437" y="-71.950775"><feOffset color-interpolation-filters="linearRGB" dx="0" dy="0" in="SourceAlpha" result="shadowOffsetOuter1"></feOffset><feGaussianBlur color-interpolation-filters="linearRGB" in="shadowOffsetOuter1" result="shadowBlurOuter1" stdDeviation="24 24"></feGaussianBlur><feColorMatrix color-interpolation-filters="linearRGB" in="shadowBlurOuter1" result="result3" type="matrix" values="0 0 0 0 0.88884836 0 0 0 0 0.59170264 0 0 0 0 0.17878589 0 0 0 1 0"></feColorMatrix></filter><filter height="303.95206" id="filter-16" node-id="48" width="509.92545" x="-72.11437" y="-71.841385"><feOffset color-interpolation-filters="linearRGB" dx="0" dy="0" in="SourceAlpha" result="shadowOffsetOuter1"></feOffset><feGaussianBlur color-interpolation-filters="linearRGB" in="shadowOffsetOuter1" result="shadowBlurOuter1" stdDeviation="24 24"></feGaussianBlur><feColorMatrix color-interpolation-filters="linearRGB" in="shadowBlurOuter1" result="result3" type="matrix" values="0 0 0 0 0.88884836 0 0 0 0 0.59170264 0 0 0 0 0.17878589 0 0 0 1 0"></feColorMatrix></filter></defs><g node-id="251"><path d="M 0.00 0.00 L 1024.00 0.00 L 1024.00 1024.00 L 0.00 1024.00 Z" fill="none" group-id="1" id="矩形备份-3" node-id="54" stroke="none" target-height="1024" target-width="1024" target-x="0" target-y="0"></path><g node-id="252"><g node-id="253"><g node-id="261"><path d="M 486.90 96.40 L 501.40 96.00 L 515.60 96.30 L 529.60 97.10 L 543.20 98.60 L 556.70 100.70 L 570.10 103.40 L 583.20 106.60 L 596.00 110.40 L 608.40 114.80 L 620.60 119.70 L 632.60 125.10 L 644.20 131.10 L 655.50 137.50 L 666.40 144.50 L 676.90 151.90 L 687.10 159.80 L 696.90 168.20 L 706.20 177.00 L 715.20 186.20 L 723.70 196.00 L 731.80 206.00 L 739.40 216.50 L 746.50 227.40 L 753.10 238.70 L 759.30 250.50 L 771.90 257.10 L 784.30 264.40 L 796.40 272.20 L 808.30 280.60 L 819.80 289.40 L 830.90 298.80 L 841.60 308.70 L 852.00 319.10 L 862.00 330.00 L 871.50 341.30 L 880.50 353.00 L 889.20 365.30 L 895.70 375.30 L 901.90 385.50 L 907.80 396.10 L 913.30 406.90 L 918.50 417.90 L 923.30 429.10 L 927.70 440.60 L 931.80 452.20 L 935.50 464.10 L 938.70 476.20 L 941.60 488.40 L 944.00 500.80 L 946.00 513.30 L 947.50 526.10 L 948.60 539.10 L 949.20 552.10 L 949.40 565.20 L 949.00 578.50 L 948.20 592.00 L 946.80 605.70 L 944.70 621.00 L 942.20 635.80 L 939.40 650.00 L 936.10 663.70 L 932.40 677.00 L 928.30 689.70 L 923.90 702.10 L 918.90 714.60 L 913.50 726.70 L 907.70 738.30 L 901.60 749.50 L 895.10 760.30 L 888.30 770.70 L 881.10 780.80 L 873.40 790.60 L 865.40 800.10 L 857.00 809.20 L 848.30 817.90 L 839.20 826.30 L 829.80 834.30 L 812.90 847.90 L 797.40 859.40 L 788.90 864.90 L 770.80 875.20 L 761.10 880.00 L 739.80 889.20 L 728.10 893.60 L 704.50 901.30 L 691.40 904.90 L 662.80 911.50 L 644.80 915.00 L 625.40 918.10 L 604.50 921.00 L 581.80 923.50 L 560.70 925.40 L 540.00 926.80 L 519.60 927.60 L 499.60 928.00 L 480.00 927.90 L 460.20 927.30 L 440.80 926.10 L 421.90 924.50 L 403.40 922.50 L 385.40 919.90 L 367.20 916.70 L 349.60 913.10 L 332.40 909.00 L 315.80 904.40 L 299.70 899.30 L 286.20 894.60 L 273.10 889.50 L 260.40 884.10 L 248.10 878.40 L 236.20 872.30 L 224.60 865.90 L 213.10 859.00 L 202.10 851.80 L 191.40 844.20 L 181.20 836.30 L 171.30 828.00 L 161.80 819.30 L 152.70 810.30 L 144.00 800.90 L 135.60 791.10 L 127.70 780.90 L 120.20 770.40 L 113.10 759.40 L 106.60 748.20 L 100.40 736.60 L 94.70 724.60 L 89.50 712.20 L 84.60 699.20 L 80.20 685.80 L 76.50 672.50 L 73.20 658.70 L 70.30 644.40 L 68.00 629.60 L 66.20 614.20 L 64.80 598.20 L 64.10 583.10 L 64.00 568.60 L 64.50 554.60 L 65.40 541.20 L 66.90 528.40 L 68.90 515.30 L 71.40 502.70 L 74.40 490.60 L 77.80 479.00 L 81.70 467.80 L 86.20 456.60 L 91.10 445.90 L 96.30 435.50 L 102.10 425.60 L 108.20 416.00 L 114.80 406.60 L 121.70 397.60 L 129.10 388.90 L 136.80 380.60 L 145.00 372.50 L 153.50 364.80 L 162.30 357.40 L 171.50 350.30 L 181.00 343.40 L 191.00 336.90 L 193.90 323.40 L 197.20 310.50 L 200.80 298.00 L 204.80 286.10 L 209.20 274.60 L 213.80 263.60 L 218.80 253.10 L 224.40 242.40 L 230.30 232.20 L 236.40 222.40 L 242.90 213.10 L 249.70 204.10 L 256.90 195.60 L 264.30 187.40 L 273.50 178.20 L 283.00 169.50 L 293.00 161.30 L 303.40 153.60 L 314.20 146.30 L 325.40 139.60 L 336.90 133.40 L 348.70 127.70 L 361.00 122.40 L 373.60 117.60 L 386.70 113.20 L 400.30 109.30 L 413.70 106.00 L 427.50 103.20 L 441.70 100.80 L 456.30 98.90 L 471.40 97.40 L 486.90 96.40 Z" fill="url(#radialGradient-1)" fill-rule="evenodd" group-id="1,2,3,11" node-id="183" stroke="none" target-height="832" target-width="885.4" target-x="64" target-y="96"></path></g><path d="M 486.90 96.40 L 501.40 96.00 L 515.60 96.30 L 529.60 97.10 L 543.20 98.60 L 556.70 100.70 L 570.10 103.40 L 583.20 106.60 L 596.00 110.40 L 608.40 114.80 L 620.60 119.70 L 632.60 125.10 L 644.20 131.10 L 655.50 137.50 L 666.40 144.50 L 676.90 151.90 L 687.10 159.80 L 696.90 168.20 L 706.20 177.00 L 715.20 186.20 L 723.70 196.00 L 731.80 206.00 L 739.40 216.50 L 746.50 227.40 L 753.10 238.70 L 759.30 250.50 L 771.90 257.10 L 784.30 264.40 L 796.40 272.20 L 808.30 280.60 L 819.80 289.40 L 830.90 298.80 L 841.60 308.70 L 852.00 319.10 L 862.00 330.00 L 871.50 341.30 L 880.50 353.00 L 889.20 365.30 L 895.70 375.30 L 901.90 385.50 L 907.80 396.10 L 913.30 406.90 L 918.50 417.90 L 923.30 429.10 L 927.70 440.60 L 931.80 452.20 L 935.50 464.10 L 938.70 476.20 L 941.60 488.40 L 944.00 500.80 L 946.00 513.30 L 947.50 526.10 L 948.60 539.10 L 949.20 552.10 L 949.40 565.20 L 949.00 578.50 L 948.20 592.00 L 946.80 605.70 L 944.70 621.00 L 942.20 635.80 L 939.40 650.00 L 936.10 663.70 L 932.40 677.00 L 928.30 689.70 L 923.90 702.10 L 918.90 714.60 L 913.50 726.70 L 907.70 738.30 L 901.60 749.50 L 895.10 760.30 L 888.30 770.70 L 881.10 780.80 L 873.40 790.60 L 865.40 800.10 L 857.00 809.20 L 848.30 817.90 L 839.20 826.30 L 829.80 834.30 L 812.90 847.90 L 797.40 859.40 L 788.90 864.90 L 770.80 875.20 L 761.10 880.00 L 739.80 889.20 L 728.10 893.60 L 704.50 901.30 L 691.40 904.90 L 662.80 911.50 L 644.80 915.00 L 625.40 918.10 L 604.50 921.00 L 581.80 923.50 L 560.70 925.40 L 540.00 926.80 L 519.60 927.60 L 499.60 928.00 L 480.00 927.90 L 460.20 927.30 L 440.80 926.10 L 421.90 924.50 L 403.40 922.50 L 385.40 919.90 L 367.20 916.70 L 349.60 913.10 L 332.40 909.00 L 315.80 904.40 L 299.70 899.30 L 286.20 894.60 L 273.10 889.50 L 260.40 884.10 L 248.10 878.40 L 236.20 872.30 L 224.60 865.90 L 213.10 859.00 L 202.10 851.80 L 191.40 844.20 L 181.20 836.30 L 171.30 828.00 L 161.80 819.30 L 152.70 810.30 L 144.00 800.90 L 135.60 791.10 L 127.70 780.90 L 120.20 770.40 L 113.10 759.40 L 106.60 748.20 L 100.40 736.60 L 94.70 724.60 L 89.50 712.20 L 84.60 699.20 L 80.20 685.80 L 76.50 672.50 L 73.20 658.70 L 70.30 644.40 L 68.00 629.60 L 66.20 614.20 L 64.80 598.20 L 64.10 583.10 L 64.00 568.60 L 64.50 554.60 L 65.40 541.20 L 66.90 528.40 L 68.90 515.30 L 71.40 502.70 L 74.40 490.60 L 77.80 479.00 L 81.70 467.80 L 86.20 456.60 L 91.10 445.90 L 96.30 435.50 L 102.10 425.60 L 108.20 416.00 L 114.80 406.60 L 121.70 397.60 L 129.10 388.90 L 136.80 380.60 L 145.00 372.50 L 153.50 364.80 L 162.30 357.40 L 171.50 350.30 L 181.00 343.40 L 191.00 336.90 L 193.90 323.40 L 197.20 310.50 L 200.80 298.00 L 204.80 286.10 L 209.20 274.60 L 213.80 263.60 L 218.80 253.10 L 224.40 242.40 L 230.30 232.20 L 236.40 222.40 L 242.90 213.10 L 249.70 204.10 L 256.90 195.60 L 264.30 187.40 L 273.50 178.20 L 283.00 169.50 L 293.00 161.30 L 303.40 153.60 L 314.20 146.30 L 325.40 139.60 L 336.90 133.40 L 348.70 127.70 L 361.00 122.40 L 373.60 117.60 L 386.70 113.20 L 400.30 109.30 L 413.70 106.00 L 427.50 103.20 L 441.70 100.80 L 456.30 98.90 L 471.40 97.40 L 486.90 96.40 Z" fill="#000000" fill-rule="evenodd" filter="url(#filter-3)" group-id="1,2,3,12" node-id="188" stroke="none" target-height="832" target-width="885.4" target-x="64" target-y="96"></path></g><g node-id="254"><path d="M 944.00 653.40 L 938.00 666.00 L 933.00 678.00 L 928.70 689.50 L 925.20 700.50 L 922.40 710.90 L 920.30 720.90 L 918.90 730.40 L 918.00 739.60 L 917.70 748.30 L 918.00 756.70 L 918.80 764.80 L 920.10 772.60 L 921.90 780.10 L 921.90 781.10 L 921.30 782.90 L 916.70 790.70 L 906.80 803.70 L 900.20 811.20 L 893.00 818.80 L 884.90 826.70 L 876.30 834.30 L 867.30 841.60 L 861.00 846.10 L 848.30 853.90 L 841.80 857.30 L 835.40 859.90 L 829.10 862.00 L 824.30 863.10 L 819.60 863.80 L 815.10 864.00 L 810.70 863.80 L 806.30 863.00 L 802.10 861.80 L 798.00 859.90 L 788.40 854.40 L 771.40 846.30 L 749.00 837.30 L 736.20 832.80 L 723.00 828.60 L 699.80 822.40 L 681.10 818.60 L 671.80 817.30 L 662.70 816.30 L 653.80 815.80 L 645.00 815.80 L 636.80 816.40 L 629.00 817.40 L 623.20 818.70 L 617.90 820.30 L 612.90 822.30 L 604.60 826.60 L 601.20 827.60 L 598.30 828.10 L 595.60 827.90 L 593.10 827.20 L 590.80 826.00 L 588.50 824.10 L 586.40 821.50 L 584.30 818.00 L 582.30 813.50 L 580.50 807.70 L 578.90 800.40 L 577.60 791.40 L 576.60 780.30 L 576.10 766.90 L 576.10 750.90 L 576.70 731.90 L 578.10 709.60 L 580.30 683.50 L 583.50 653.40 L 865.50 560.00 L 944.00 653.40 Z" fill="url(#linearGradient-4)" fill-rule="evenodd" filter="url(#filter-5)" group-id="1,2,4" id="路径-79" node-id="59" stroke="none" target-height="304" target-width="367.90002" target-x="576.1" target-y="560"></path></g><g node-id="255"><path d="M 937.80 646.90 L 933.70 653.60 L 930.20 660.60 L 927.20 667.80 L 924.70 675.20 L 922.60 682.90 L 921.10 690.90 L 920.10 699.20 L 919.60 707.90 L 919.60 717.00 L 920.20 726.40 L 921.40 736.30 L 923.30 746.70 L 925.80 757.60 L 929.00 769.00 L 933.00 781.00 L 940.10 799.80 L 941.80 805.60 L 943.70 815.70 L 944.00 820.20 L 943.90 824.90 L 943.40 829.20 L 942.50 833.20 L 941.40 836.90 L 939.80 840.30 L 937.40 844.40 L 934.60 848.10 L 931.30 851.50 L 927.60 854.50 L 923.60 857.20 L 919.20 859.50 L 914.60 861.60 L 909.50 863.40 L 902.60 865.20 L 895.40 866.60 L 887.80 867.50 L 880.20 868.00 L 872.50 868.00 L 864.80 867.50 L 849.80 865.50 L 842.80 864.00 L 835.90 862.10 L 829.60 859.90 L 824.00 857.50 L 818.50 854.70 L 814.10 851.70 L 806.70 845.20 L 796.30 837.30 L 784.00 829.50 L 776.80 825.50 L 765.70 819.90 L 753.50 814.40 L 741.00 809.50 L 727.90 805.00 L 719.10 802.40 L 701.60 798.10 L 692.80 796.60 L 684.30 795.50 L 676.00 794.80 L 667.70 794.70 L 660.00 795.10 L 652.70 796.00 L 647.20 797.20 L 642.20 798.70 L 637.50 800.50 L 629.40 804.50 L 626.10 805.50 L 623.10 805.90 L 620.30 805.80 L 617.60 805.10 L 615.00 803.90 L 612.50 802.10 L 610.10 799.60 L 607.60 796.20 L 605.20 791.90 L 602.90 786.50 L 600.60 779.60 L 598.50 771.20 L 596.60 761.10 L 594.80 748.80 L 593.40 734.30 L 592.40 717.10 L 591.70 697.00 L 591.60 673.80 L 592.10 646.90 L 862.50 560.00 L 937.80 646.90 Z" fill="url(#linearGradient-6)" fill-rule="evenodd" group-id="1,2,5" id="路径-79" node-id="60" stroke="none" target-height="308" target-width="352.40002" target-x="591.6" target-y="560"></path></g><g node-id="256"><g node-id="263"><path d="M 854.10 791.40 L 857.20 787.90 L 859.70 784.20 L 861.60 780.20 L 863.00 776.00 L 863.80 771.70 L 864.00 767.20 L 863.60 762.50 L 862.50 757.50 L 861.20 753.80 L 859.50 749.90 L 857.30 746.00 L 854.60 742.00 L 847.90 734.20 L 839.30 726.80 L 834.10 723.00 L 828.10 719.20 L 820.70 715.10 L 812.20 711.10 L 802.50 707.20 L 791.40 703.50 L 780.60 700.40 L 768.50 697.60 L 755.00 695.00 L 739.90 692.80 L 717.50 690.20 L 700.00 688.70 L 686.50 688.10 L 676.40 688.10 L 669.10 688.60 L 663.90 689.40 L 660.40 690.50 L 658.20 691.70 L 656.80 692.90 L 656.10 694.20 L 656.00 695.70 L 656.50 697.50 L 657.80 699.70 L 660.30 702.50 L 664.30 706.00 L 670.40 710.30 L 688.10 715.50 L 703.50 720.50 L 716.80 725.30 L 728.30 730.00 L 738.00 734.50 L 746.20 738.80 L 753.10 742.90 L 758.80 746.90 L 763.40 750.70 L 779.00 767.00 L 785.90 773.60 L 793.20 780.10 L 803.50 788.00 L 808.70 791.40 L 814.10 794.50 L 819.40 796.80 L 824.60 798.60 L 828.70 799.50 L 832.50 800.00 L 836.30 799.90 L 840.10 799.40 L 843.60 798.40 L 847.20 796.70 L 850.60 794.40 L 854.10 791.40 Z" fill="#000000" fill-rule="evenodd" filter="url(#filter-8)" group-id="1,2,6,13" node-id="203" stroke="none" target-height="111.900024" target-width="208" target-x="656" target-y="688.1"></path></g><g node-id="264"><path d="M 854.10 791.40 L 857.20 787.90 L 859.70 784.20 L 861.60 780.20 L 863.00 776.00 L 863.80 771.70 L 864.00 767.20 L 863.60 762.50 L 862.50 757.50 L 861.20 753.80 L 859.50 749.90 L 857.30 746.00 L 854.60 742.00 L 847.90 734.20 L 839.30 726.80 L 834.10 723.00 L 828.10 719.20 L 820.70 715.10 L 812.20 711.10 L 802.50 707.20 L 791.40 703.50 L 780.60 700.40 L 768.50 697.60 L 755.00 695.00 L 739.90 692.80 L 717.50 690.20 L 700.00 688.70 L 686.50 688.10 L 676.40 688.10 L 669.10 688.60 L 663.90 689.40 L 660.40 690.50 L 658.20 691.70 L 656.80 692.90 L 656.10 694.20 L 656.00 695.70 L 656.50 697.50 L 657.80 699.70 L 660.30 702.50 L 664.30 706.00 L 670.40 710.30 L 688.10 715.50 L 703.50 720.50 L 716.80 725.30 L 728.30 730.00 L 738.00 734.50 L 746.20 738.80 L 753.10 742.90 L 758.80 746.90 L 763.40 750.70 L 779.00 767.00 L 785.90 773.60 L 793.20 780.10 L 803.50 788.00 L 808.70 791.40 L 814.10 794.50 L 819.40 796.80 L 824.60 798.60 L 828.70 799.50 L 832.50 800.00 L 836.30 799.90 L 840.10 799.40 L 843.60 798.40 L 847.20 796.70 L 850.60 794.40 L 854.10 791.40 Z" fill="#ed1f2a" fill-rule="evenodd" group-id="1,2,6,14" node-id="208" stroke="none" target-height="111.900024" target-width="208" target-x="656" target-y="688.1"></path></g><path d="M 854.10 791.40 L 857.20 787.90 L 859.70 784.20 L 861.60 780.20 L 863.00 776.00 L 863.80 771.70 L 864.00 767.20 L 863.60 762.50 L 862.50 757.50 L 861.20 753.80 L 859.50 749.90 L 857.30 746.00 L 854.60 742.00 L 847.90 734.20 L 839.30 726.80 L 834.10 723.00 L 828.10 719.20 L 820.70 715.10 L 812.20 711.10 L 802.50 707.20 L 791.40 703.50 L 780.60 700.40 L 768.50 697.60 L 755.00 695.00 L 739.90 692.80 L 717.50 690.20 L 700.00 688.70 L 686.50 688.10 L 676.40 688.10 L 669.10 688.60 L 663.90 689.40 L 660.40 690.50 L 658.20 691.70 L 656.80 692.90 L 656.10 694.20 L 656.00 695.70 L 656.50 697.50 L 657.80 699.70 L 660.30 702.50 L 664.30 706.00 L 670.40 710.30 L 688.10 715.50 L 703.50 720.50 L 716.80 725.30 L 728.30 730.00 L 738.00 734.50 L 746.20 738.80 L 753.10 742.90 L 758.80 746.90 L 763.40 750.70 L 779.00 767.00 L 785.90 773.60 L 793.20 780.10 L 803.50 788.00 L 808.70 791.40 L 814.10 794.50 L 819.40 796.80 L 824.60 798.60 L 828.70 799.50 L 832.50 800.00 L 836.30 799.90 L 840.10 799.40 L 843.60 798.40 L 847.20 796.70 L 850.60 794.40 L 854.10 791.40 Z" fill="#000000" fill-rule="evenodd" filter="url(#filter-9)" group-id="1,2,6,15" node-id="213" stroke="none" target-height="111.900024" target-width="208" target-x="656" target-y="688.1"></path></g><g node-id="257"><path d="M 848.00 560.00 L 847.70 564.60 L 846.90 569.10 L 845.50 573.40 L 843.50 577.70 L 841.10 581.70 L 838.30 585.60 L 834.90 589.40 L 831.00 593.10 L 822.40 599.50 L 817.40 602.40 L 806.50 607.60 L 794.40 611.60 L 781.20 614.40 L 774.40 615.30 L 760.00 616.00 L 745.60 615.30 L 732.20 613.10 L 719.40 609.70 L 708.00 605.20 L 702.60 602.40 L 697.60 599.50 L 689.00 593.10 L 685.10 589.40 L 681.70 585.60 L 678.90 581.70 L 676.50 577.70 L 674.50 573.40 L 673.10 569.10 L 672.30 564.60 L 672.00 560.00 L 672.30 555.40 L 673.10 550.90 L 674.50 546.60 L 676.50 542.30 L 678.90 538.30 L 681.70 534.40 L 685.10 530.60 L 689.00 526.90 L 693.10 523.60 L 702.60 517.60 L 708.00 514.80 L 719.40 510.30 L 725.60 508.40 L 738.80 505.60 L 745.60 504.70 L 760.00 504.00 L 774.40 504.70 L 781.20 505.60 L 794.40 508.40 L 806.50 512.40 L 817.40 517.60 L 822.40 520.50 L 831.00 526.90 L 834.90 530.60 L 838.30 534.40 L 841.10 538.30 L 843.50 542.30 L 845.50 546.60 L 846.90 550.90 L 847.70 555.40 L 848.00 560.00 Z" fill="#ff5ea4" fill-opacity="0.8" fill-rule="evenodd" filter="url(#filter-10)" group-id="1,2,7" id="椭圆形" node-id="65" stroke="none" target-height="112" target-width="176" target-x="672" target-y="504"></path></g><g node-id="258"><path d="M 368.00 560.00 L 367.70 564.60 L 366.90 569.10 L 365.50 573.40 L 363.50 577.70 L 361.10 581.70 L 358.30 585.60 L 354.90 589.40 L 351.00 593.10 L 342.40 599.50 L 337.40 602.40 L 326.50 607.60 L 314.40 611.60 L 301.20 614.40 L 294.40 615.30 L 280.00 616.00 L 265.60 615.30 L 258.80 614.40 L 245.60 611.60 L 233.50 607.60 L 222.60 602.40 L 217.60 599.50 L 209.00 593.10 L 205.10 589.40 L 201.70 585.60 L 198.90 581.70 L 196.50 577.70 L 194.50 573.40 L 193.10 569.10 L 192.30 564.60 L 192.00 560.00 L 192.30 555.40 L 193.10 550.90 L 194.50 546.60 L 196.50 542.30 L 198.90 538.30 L 201.70 534.40 L 205.10 530.60 L 209.00 526.90 L 217.60 520.50 L 222.60 517.60 L 233.50 512.40 L 245.60 508.40 L 258.80 505.60 L 265.60 504.70 L 280.00 504.00 L 294.40 504.70 L 301.20 505.60 L 314.40 508.40 L 326.50 512.40 L 337.40 517.60 L 342.40 520.50 L 351.00 526.90 L 354.90 530.60 L 358.30 534.40 L 361.10 538.30 L 363.50 542.30 L 365.50 546.60 L 366.90 550.90 L 367.70 555.40 L 368.00 560.00 Z" fill="#ff5ea4" fill-opacity="0.8" fill-rule="evenodd" filter="url(#filter-11)" group-id="1,2,8" id="椭圆形备份-6" node-id="66" stroke="none" target-height="112" target-width="176" target-x="192" target-y="504"></path></g><g node-id="259"><g node-id="266"><g node-id="268"><path d="M 97.90 384.10 L 464.00 384.10 L 461.00 397.80 L 457.50 410.70 L 453.70 422.80 L 449.60 434.10 L 445.10 444.80 L 440.20 454.70 L 435.10 464.00 L 429.60 472.70 L 423.90 480.80 L 417.80 488.30 L 411.40 495.40 L 404.70 501.90 L 397.60 507.90 L 390.20 513.50 L 382.50 518.60 L 374.40 523.20 L 365.90 527.40 L 357.00 531.20 L 347.70 534.50 L 337.90 537.30 L 327.60 539.60 L 316.80 541.50 L 305.40 542.90 L 293.50 543.70 L 281.00 544.00 L 268.40 543.70 L 256.50 542.90 L 245.10 541.50 L 234.30 539.60 L 224.10 537.30 L 214.30 534.50 L 204.90 531.20 L 196.00 527.40 L 187.50 523.20 L 179.40 518.60 L 171.70 513.50 L 164.30 507.90 L 157.30 501.90 L 150.60 495.40 L 144.20 488.30 L 138.10 480.80 L 132.30 472.70 L 126.80 464.00 L 121.70 454.70 L 116.90 444.80 L 112.40 434.10 L 108.20 422.80 L 104.40 410.70 L 101.00 397.80 L 97.90 384.10 Z" fill="#000000" fill-rule="evenodd" filter="url(#filter-14)" group-id="1,2,9,16,18" node-id="229" stroke="none" target-height="159.9" target-width="366.1" target-x="97.9" target-y="384.1"></path></g><path d="M 97.90 384.10 L 464.00 384.10 L 461.00 397.80 L 457.50 410.70 L 453.70 422.80 L 449.60 434.10 L 445.10 444.80 L 440.20 454.70 L 435.10 464.00 L 429.60 472.70 L 423.90 480.80 L 417.80 488.30 L 411.40 495.40 L 404.70 501.90 L 397.60 507.90 L 390.20 513.50 L 382.50 518.60 L 374.40 523.20 L 365.90 527.40 L 357.00 531.20 L 347.70 534.50 L 337.90 537.30 L 327.60 539.60 L 316.80 541.50 L 305.40 542.90 L 293.50 543.70 L 281.00 544.00 L 268.40 543.70 L 256.50 542.90 L 245.10 541.50 L 234.30 539.60 L 224.10 537.30 L 214.30 534.50 L 204.90 531.20 L 196.00 527.40 L 187.50 523.20 L 179.40 518.60 L 171.70 513.50 L 164.30 507.90 L 157.30 501.90 L 150.60 495.40 L 144.20 488.30 L 138.10 480.80 L 132.30 472.70 L 126.80 464.00 L 121.70 454.70 L 116.90 444.80 L 112.40 434.10 L 108.20 422.80 L 104.40 410.70 L 101.00 397.80 L 97.90 384.10 Z" fill="url(#linearGradient1)" fill-rule="evenodd" group-id="1,2,9,16,19" node-id="234" stroke="none" target-height="159.9" target-width="366.1" target-x="97.9" target-y="384.1"></path></g><path d="M 446.90 385.20 L 461.80 385.30 L 460.10 403.20 L 458.50 413.50 L 456.40 420.30 L 454.80 424.30 L 450.10 434.00 L 445.90 438.60 L 441.40 442.80 L 436.70 446.60 L 431.70 450.20 L 426.40 453.40 L 421.00 456.20 L 415.40 458.60 L 409.50 460.70 L 403.50 462.30 L 397.40 463.40 L 391.10 464.10 L 384.60 464.40 L 377.90 464.10 L 371.40 463.40 L 365.10 462.20 L 359.00 460.50 L 353.00 458.30 L 347.30 455.80 L 341.70 452.90 L 336.40 449.50 L 331.30 445.80 L 326.60 441.70 L 322.10 437.40 L 317.80 432.60 L 313.90 427.60 L 310.40 422.40 L 307.20 416.80 L 304.40 411.00 L 301.90 405.00 L 299.90 398.80 L 298.30 392.40 L 297.10 385.70 L 446.90 385.20 Z" fill="#930027" fill-rule="evenodd" group-id="1,2,9" id="路径" node-id="71" stroke="none" target-height="79.19998" target-width="164.69998" target-x="297.1" target-y="385.2"></path></g><g node-id="260"><g node-id="267"><g node-id="270"><path d="M 545.90 384.10 L 912.00 384.10 L 909.00 397.80 L 905.50 410.70 L 901.70 422.80 L 897.60 434.10 L 893.10 444.80 L 888.20 454.70 L 883.10 464.00 L 877.60 472.70 L 871.90 480.80 L 865.80 488.30 L 859.40 495.40 L 852.70 501.90 L 845.60 507.90 L 838.20 513.50 L 830.50 518.60 L 822.40 523.20 L 813.90 527.40 L 805.00 531.20 L 795.70 534.50 L 785.90 537.30 L 775.60 539.60 L 764.80 541.50 L 753.40 542.90 L 741.50 543.70 L 729.00 544.00 L 716.40 543.70 L 704.50 542.90 L 693.10 541.50 L 682.30 539.60 L 672.10 537.30 L 662.30 534.50 L 652.90 531.20 L 644.00 527.40 L 635.50 523.20 L 627.40 518.60 L 619.70 513.50 L 612.30 507.90 L 605.30 501.90 L 598.60 495.40 L 592.20 488.30 L 586.10 480.80 L 580.30 472.70 L 574.80 464.00 L 569.70 454.70 L 564.90 444.80 L 560.40 434.10 L 556.20 422.80 L 552.40 410.70 L 549.00 397.80 L 545.90 384.10 Z" fill="#000000" fill-rule="evenodd" filter="url(#filter-16)" group-id="1,2,10,17,20" node-id="244" stroke="none" target-height="159.9" target-width="366.09998" target-x="545.9" target-y="384.1"></path></g><path d="M 545.90 384.10 L 912.00 384.10 L 909.00 397.80 L 905.50 410.70 L 901.70 422.80 L 897.60 434.10 L 893.10 444.80 L 888.20 454.70 L 883.10 464.00 L 877.60 472.70 L 871.90 480.80 L 865.80 488.30 L 859.40 495.40 L 852.70 501.90 L 845.60 507.90 L 838.20 513.50 L 830.50 518.60 L 822.40 523.20 L 813.90 527.40 L 805.00 531.20 L 795.70 534.50 L 785.90 537.30 L 775.60 539.60 L 764.80 541.50 L 753.40 542.90 L 741.50 543.70 L 729.00 544.00 L 716.40 543.70 L 704.50 542.90 L 693.10 541.50 L 682.30 539.60 L 672.10 537.30 L 662.30 534.50 L 652.90 531.20 L 644.00 527.40 L 635.50 523.20 L 627.40 518.60 L 619.70 513.50 L 612.30 507.90 L 605.30 501.90 L 598.60 495.40 L 592.20 488.30 L 586.10 480.80 L 580.30 472.70 L 574.80 464.00 L 569.70 454.70 L 564.90 444.80 L 560.40 434.10 L 556.20 422.80 L 552.40 410.70 L 549.00 397.80 L 545.90 384.10 Z" fill="url(#linearGradient-12)" fill-rule="evenodd" group-id="1,2,10,17,21" node-id="249" stroke="none" target-height="159.9" target-width="366.09998" target-x="545.9" target-y="384.1"></path></g><path d="M 897.20 384.00 L 912.00 384.10 L 910.00 407.20 L 908.60 413.20 L 905.90 420.30 L 898.20 435.20 L 894.10 439.40 L 885.10 446.80 L 875.10 453.10 L 869.80 455.70 L 864.40 457.90 L 858.70 459.80 L 853.00 461.20 L 847.10 462.30 L 841.00 463.00 L 834.80 463.20 L 828.10 462.90 L 821.70 462.20 L 815.40 461.00 L 809.30 459.30 L 803.30 457.10 L 797.50 454.60 L 792.00 451.70 L 786.70 448.30 L 781.60 444.60 L 776.80 440.50 L 772.30 436.20 L 768.10 431.40 L 764.20 426.40 L 760.70 421.20 L 757.50 415.60 L 754.60 409.80 L 752.20 403.80 L 750.20 397.60 L 748.60 391.20 L 747.40 384.50 L 897.20 384.00 Z" fill="#930027" fill-rule="evenodd" group-id="1,2,10" id="路径" node-id="76" stroke="none" target-height="79.20001" target-width="164.59998" target-x="747.4" target-y="384"></path></g><path d="M 459.50 322.60 L 462.10 322.90 L 464.40 323.70 L 466.50 325.00 L 468.20 326.70 L 469.40 328.60 L 470.10 330.80 L 470.30 368.20 L 469.40 372.50 L 468.30 375.90 L 467.00 378.70 L 465.50 380.80 L 463.80 382.50 L 461.90 383.70 L 458.00 385.00 L 448.20 386.20 L 431.50 386.60 L 310.60 385.20 L 97.90 385.20 L 94.20 384.50 L 92.50 383.80 L 89.70 381.60 L 87.90 378.70 L 87.50 377.00 L 87.50 373.50 L 88.90 370.30 L 91.30 367.80 L 94.50 366.20 L 98.30 365.60 L 427.10 367.00 L 436.30 367.00 L 448.60 366.50 L 448.60 332.40 L 449.00 330.10 L 449.80 327.90 L 451.20 326.10 L 453.10 324.50 L 455.20 323.40 L 459.50 322.60 Z" fill="#90371e" fill-rule="nonzero" group-id="1,2" id="路径-78" node-id="77" stroke="none" target-height="64" target-width="382.8" target-x="87.5" target-y="322.6"></path><path d="M 548.00 324.00 L 545.40 324.20 L 543.00 325.00 L 540.90 326.30 L 539.30 328.00 L 538.00 329.90 L 537.30 332.20 L 537.20 369.50 L 538.10 373.80 L 539.20 377.30 L 540.50 380.00 L 542.00 382.10 L 543.70 383.80 L 545.50 385.00 L 549.40 386.30 L 559.20 387.50 L 576.00 388.00 L 905.10 384.20 L 908.90 383.50 L 910.50 382.70 L 913.30 380.50 L 915.10 377.60 L 915.60 376.00 L 915.50 372.40 L 914.10 369.30 L 911.70 366.80 L 908.50 365.10 L 904.70 364.60 L 580.40 368.40 L 571.20 368.40 L 558.80 367.80 L 558.80 333.70 L 558.50 331.40 L 557.60 329.20 L 556.20 327.40 L 554.40 325.80 L 552.20 324.70 L 548.00 324.00 Z" fill="#90371e" fill-rule="nonzero" group-id="1,2" id="路径" node-id="78" stroke="none" target-height="64" target-width="378.39996" target-x="537.2" target-y="324"></path></g></g></svg>