<svg xmlns:xlink="http://www.w3.org/1999/xlink" xmlns="http://www.w3.org/2000/svg" version="1.1" viewBox="0 0 1024 1024" height="1024px" width="1024px">
    <title>撇嘴</title>
    <defs>
        <radialGradient id="radialGradient-1" gradientTransform="translate(0.500000,0.196690),scale(0.912281,1.000000),rotate(90.000000),translate(-0.500000,-0.196690)" r="93.9392347%" fy="19.6689915%" fx="50%" cy="19.6689915%" cx="50%">
            <stop offset="0%" stop-color="#FFE476"></stop>
            <stop offset="41.3872668%" stop-color="#FCEC6C"></stop>
            <stop offset="100%" stop-color="#FFB02F"></stop>
        </radialGradient>
        <path id="path-2" d="M422.860526,0.378695283 C542.065472,-5.36663195 644.761001,54.6787561 694.047405,152.068162 C826.943351,211.197291 934.794668,352.582382 907.841115,509.747769 C887.627441,627.613119 823.200132,713.730518 728.885037,766.375369 C682.431467,796.437155 616.2001,817.754861 517.849854,827.528265 C238.3427,855.303857 16.9816436,754.504609 0.821620894,502.216832 C-7.14599909,377.82758 43.4225884,293.954402 126.973967,240.88301 C157.596783,85.8704329 269.83599,7.75402708 422.860526,0.378695283 Z"></path>
        <filter id="filter-3" filterUnits="objectBoundingBox" height="117.3%" width="115.8%" y="-8.7%" x="-7.9%">
            <feGaussianBlur result="shadowBlurInner1" in="SourceAlpha" stdDeviation="64"></feGaussianBlur>
            <feOffset result="shadowOffsetInner1" in="shadowBlurInner1" dy="16" dx="0"></feOffset>
            <feComposite result="shadowInnerInner1" k3="1" k2="-1" operator="arithmetic" in2="SourceAlpha" in="shadowOffsetInner1"></feComposite>
            <feColorMatrix in="shadowInnerInner1" type="matrix" values="0 0 0 0 0.968627451   0 0 0 0 0.68627451   0 0 0 0 0.270588235  0 0 0 0.501145583 0"></feColorMatrix>
        </filter>
        <filter id="filter-4" filterUnits="objectBoundingBox" height="280.0%" width="263.6%" y="-90.0%" x="-81.8%">
            <feGaussianBlur in="SourceGraphic" stdDeviation="48"></feGaussianBlur>
        </filter>
        <filter id="filter-5" filterUnits="objectBoundingBox" height="280.0%" width="263.6%" y="-90.0%" x="-81.8%">
            <feGaussianBlur in="SourceGraphic" stdDeviation="48"></feGaussianBlur>
        </filter>
        <path id="path-6" d="M385.180598,602.671138 C415.600632,584.407383 435.219659,586.20877 457.795929,602.736191 L463.779747,607.330372 C472.233185,613.916505 476.587139,616.426947 482.196339,617.521934 C489.310797,618.910768 493.224645,617.746058 501.05564,611.923241 L506.12964,608.000385 C521.098947,596.303161 531.669259,591.202326 548.503986,591.202326 C575.834954,591.202326 596.829295,602.933167 609.136301,625.587853 C613.354466,633.352633 610.479366,643.066729 602.714586,647.284894 C594.949806,651.503058 585.23571,648.627959 581.017545,640.863179 C574.475321,628.820279 564.421036,623.202326 548.503986,623.202326 C541.214223,623.202326 536.578237,625.119682 528.399061,631.248032 L522.933842,635.482136 C506.969215,647.892891 494.797474,652.585865 476.06526,648.929097 C465.381899,646.843569 457.883557,642.927545 447.637868,635.267875 L440.837717,630.021056 C427.60869,619.78965 421.649599,618.56824 404.462071,628.452905 L401.652243,630.106241 C363.672228,652.9089 326.419094,650.615869 293.708228,623.135557 C286.942358,617.451568 286.06532,607.358964 291.749309,600.593094 C297.433298,593.827225 307.525903,592.950187 314.291772,598.634176 C335.446609,616.406298 356.861538,618.410694 381.894619,604.566753 L385.180598,602.671138 Z"></path>
        <filter id="filter-7" filterUnits="objectBoundingBox" height="126.5%" width="105.0%" y="-13.2%" x="-2.5%">
            <feGaussianBlur result="shadowBlurInner1" in="SourceAlpha" stdDeviation="8"></feGaussianBlur>
            <feOffset result="shadowOffsetInner1" in="shadowBlurInner1" dy="0" dx="0"></feOffset>
            <feComposite result="shadowInnerInner1" k3="1" k2="-1" operator="arithmetic" in2="SourceAlpha" in="shadowOffsetInner1"></feComposite>
            <feColorMatrix in="shadowInnerInner1" type="matrix" values="0 0 0 0 0.661258421   0 0 0 0 0.0872254633   0 0 0 0 0.00982776113  0 0 0 1 0"></feColorMatrix>
        </filter>
        <linearGradient id="linearGradient-8" y2="100%" x2="50%" y1="0%" x1="50%">
            <stop offset="0%" stop-color="#FFFFFF"></stop>
            <stop offset="100%" stop-color="#FFEDBE"></stop>
        </linearGradient>
        <ellipse ry="128" rx="104" cy="128" cx="104" id="path-9"></ellipse>
        <filter id="filter-10" filterUnits="objectBoundingBox" height="175.0%" width="192.3%" y="-37.5%" x="-46.2%">
            <feOffset result="shadowOffsetOuter1" in="SourceAlpha" dy="0" dx="0"></feOffset>
            <feGaussianBlur result="shadowBlurOuter1" in="shadowOffsetOuter1" stdDeviation="32"></feGaussianBlur>
            <feColorMatrix in="shadowBlurOuter1" type="matrix" values="0 0 0 0 0.888848346   0 0 0 0 0.591702642   0 0 0 0 0.178785883  0 0 0 1 0"></feColorMatrix>
        </filter>
        <filter id="filter-11" filterUnits="objectBoundingBox" height="162.5%" width="176.9%" y="-31.2%" x="-38.5%">
            <feGaussianBlur result="shadowBlurInner1" in="SourceAlpha" stdDeviation="16"></feGaussianBlur>
            <feOffset result="shadowOffsetInner1" in="shadowBlurInner1" dy="0" dx="0"></feOffset>
            <feComposite result="shadowInnerInner1" k3="1" k2="-1" operator="arithmetic" in2="SourceAlpha" in="shadowOffsetInner1"></feComposite>
            <feColorMatrix in="shadowInnerInner1" type="matrix" values="0 0 0 0 1   0 0 0 0 0.880587925   0 0 0 0 0.537254902  0 0 0 0.500726446 0"></feColorMatrix>
        </filter>
        <path id="path-12" d="M73.8461538,147.692308 C114.630258,147.692308 147.692308,114.630258 147.692308,73.8461538 C147.692308,33.0620492 114.630258,0 73.8461538,0 C33.0620492,0 0,33.0620492 0,73.8461538 C0,114.630258 33.0620492,147.692308 73.8461538,147.692308 Z"></path>
        <filter id="filter-13" filterUnits="objectBoundingBox" height="121.7%" width="121.7%" y="-10.8%" x="-10.8%">
            <feGaussianBlur result="shadowBlurInner1" in="SourceAlpha" stdDeviation="16"></feGaussianBlur>
            <feOffset result="shadowOffsetInner1" in="shadowBlurInner1" dy="0" dx="0"></feOffset>
            <feComposite result="shadowInnerInner1" k3="1" k2="-1" operator="arithmetic" in2="SourceAlpha" in="shadowOffsetInner1"></feComposite>
            <feColorMatrix in="shadowInnerInner1" type="matrix" values="0 0 0 0 0.322660142   0 0 0 0 0   0 0 0 0 0.0976114716  0 0 0 1 0"></feColorMatrix>
        </filter>
        <linearGradient id="linearGradient-14" y2="100%" x2="50%" y1="0%" x1="50%">
            <stop offset="0%" stop-color="#FFFFFF"></stop>
            <stop offset="100%" stop-color="#FFEDBE"></stop>
        </linearGradient>
        <ellipse ry="128" rx="112" cy="128" cx="112" id="path-15"></ellipse>
        <filter id="filter-16" filterUnits="objectBoundingBox" height="175.0%" width="185.7%" y="-37.5%" x="-42.9%">
            <feOffset result="shadowOffsetOuter1" in="SourceAlpha" dy="0" dx="0"></feOffset>
            <feGaussianBlur result="shadowBlurOuter1" in="shadowOffsetOuter1" stdDeviation="32"></feGaussianBlur>
            <feColorMatrix in="shadowBlurOuter1" type="matrix" values="0 0 0 0 0.888848346   0 0 0 0 0.591702642   0 0 0 0 0.178785883  0 0 0 1 0"></feColorMatrix>
        </filter>
        <filter id="filter-17" filterUnits="objectBoundingBox" height="162.5%" width="171.4%" y="-31.2%" x="-35.7%">
            <feGaussianBlur result="shadowBlurInner1" in="SourceAlpha" stdDeviation="16"></feGaussianBlur>
            <feOffset result="shadowOffsetInner1" in="shadowBlurInner1" dy="0" dx="0"></feOffset>
            <feComposite result="shadowInnerInner1" k3="1" k2="-1" operator="arithmetic" in2="SourceAlpha" in="shadowOffsetInner1"></feComposite>
            <feColorMatrix in="shadowInnerInner1" type="matrix" values="0 0 0 0 1   0 0 0 0 0.880587925   0 0 0 0 0.537254902  0 0 0 0.500726446 0"></feColorMatrix>
        </filter>
        <path id="path-18" d="M73.8461538,147.692308 C114.630258,147.692308 147.692308,114.630258 147.692308,73.8461538 C147.692308,33.0620492 114.630258,0 73.8461538,0 C33.0620492,0 0,33.0620492 0,73.8461538 C0,114.630258 33.0620492,147.692308 73.8461538,147.692308 Z"></path>
        <filter id="filter-19" filterUnits="objectBoundingBox" height="121.7%" width="121.7%" y="-10.8%" x="-10.8%">
            <feGaussianBlur result="shadowBlurInner1" in="SourceAlpha" stdDeviation="16"></feGaussianBlur>
            <feOffset result="shadowOffsetInner1" in="shadowBlurInner1" dy="0" dx="0"></feOffset>
            <feComposite result="shadowInnerInner1" k3="1" k2="-1" operator="arithmetic" in2="SourceAlpha" in="shadowOffsetInner1"></feComposite>
            <feColorMatrix in="shadowInnerInner1" type="matrix" values="0 0 0 0 0.322660142   0 0 0 0 0   0 0 0 0 0.0976114716  0 0 0 1 0"></feColorMatrix>
        </filter>
    </defs>
    <g fill-rule="evenodd" fill="none" stroke-width="1" stroke="none" id="上传尺寸">
        <g id="撇嘴">
            <rect height="1024" width="1024" y="0" x="0" id="矩形备份-6"></rect>
            <g transform="translate(64.000000, 96.000000)" id="默认">
                <g id="形状结合">
                    <use xlink:href="#path-2" fill-rule="evenodd" fill="url(#radialGradient-1)"></use>
                    <use xlink:href="#path-2" filter="url(#filter-3)" fill-opacity="1" fill="black"></use>
                </g>
                <ellipse ry="80" rx="88" cy="488" cx="648" filter="url(#filter-4)" fill="#FF5EA4" fill-opacity="0.8" id="椭圆形"></ellipse>
                <ellipse ry="80" rx="88" cy="488" cx="216" filter="url(#filter-5)" fill="#FF5EA4" fill-opacity="0.8" id="椭圆形备份-6"></ellipse>
                <g fill-rule="nonzero" id="路径-8">
                    <use xlink:href="#path-6" fill="#ED1F2A"></use>
                    <use xlink:href="#path-6" filter="url(#filter-7)" fill-opacity="1" fill="black"></use>
                </g>
            </g>
            <g transform="translate(544.000000, 336.383633)" id="编组-2备份">
                <g id="椭圆形">
                    <use xlink:href="#path-9" filter="url(#filter-10)" fill-opacity="1" fill="black"></use>
                    <use xlink:href="#path-9" fill-rule="evenodd" fill="url(#linearGradient-8)"></use>
                    <use xlink:href="#path-9" filter="url(#filter-11)" fill-opacity="1" fill="black"></use>
                </g>
                <g transform="translate(39.651616, 102.930809)" id="编组-6">
                    <g id="椭圆形">
                        <use xlink:href="#path-12" fill-rule="evenodd" fill="#930027"></use>
                        <use xlink:href="#path-12" filter="url(#filter-13)" fill-opacity="1" fill="black"></use>
                    </g>
                    <path fill="#301502" id="椭圆形" d="M73.8461538,110.769231 C94.2382061,110.769231 110.769231,94.2382061 110.769231,73.8461538 C110.769231,53.4541015 94.2382061,36.9230769 73.8461538,36.9230769 C53.4541015,36.9230769 36.9230769,53.4541015 36.9230769,73.8461538 C36.9230769,94.2382061 53.4541015,110.769231 73.8461538,110.769231 Z"></path>
                    <path fill="#FFFFFF" id="椭圆形" d="M97.8461538,73.8461538 C111.100988,73.8461538 121.846154,63.1009878 121.846154,49.8461538 C121.846154,36.5913199 111.100988,25.8461538 97.8461538,25.8461538 C84.5913199,25.8461538 73.8461538,36.5913199 73.8461538,49.8461538 C73.8461538,63.1009878 84.5913199,73.8461538 97.8461538,73.8461538 Z"></path>
                    <path fill="#FFFFFF" id="椭圆形备份-5" d="M50.7692308,120 C58.4162504,120 64.6153846,113.800866 64.6153846,106.153846 C64.6153846,98.5068265 58.4162504,92.3076923 50.7692308,92.3076923 C43.1222112,92.3076923 36.9230769,98.5068265 36.9230769,106.153846 C36.9230769,113.800866 43.1222112,120 50.7692308,120 Z"></path>
                </g>
            </g>
            <g transform="translate(224.000000, 336.383633)" id="编组-2备份-2">
                <g id="椭圆形">
                    <use xlink:href="#path-15" filter="url(#filter-16)" fill-opacity="1" fill="black"></use>
                    <use xlink:href="#path-15" fill-rule="evenodd" fill="url(#linearGradient-14)"></use>
                    <use xlink:href="#path-15" filter="url(#filter-17)" fill-opacity="1" fill="black"></use>
                </g>
                <g transform="translate(56.264933, 99.444993)" id="编组-5">
                    <g id="椭圆形">
                        <use xlink:href="#path-18" fill-rule="evenodd" fill="#930027"></use>
                        <use xlink:href="#path-18" filter="url(#filter-19)" fill-opacity="1" fill="black"></use>
                    </g>
                    <path fill="#301502" id="椭圆形" d="M73.8461538,110.769231 C94.2382061,110.769231 110.769231,94.2382061 110.769231,73.8461538 C110.769231,53.4541015 94.2382061,36.9230769 73.8461538,36.9230769 C53.4541015,36.9230769 36.9230769,53.4541015 36.9230769,73.8461538 C36.9230769,94.2382061 53.4541015,110.769231 73.8461538,110.769231 Z"></path>
                    <path fill="#FFFFFF" id="椭圆形" d="M97.8461538,73.8461538 C111.100988,73.8461538 121.846154,63.1009878 121.846154,49.8461538 C121.846154,36.5913199 111.100988,25.8461538 97.8461538,25.8461538 C84.5913199,25.8461538 73.8461538,36.5913199 73.8461538,49.8461538 C73.8461538,63.1009878 84.5913199,73.8461538 97.8461538,73.8461538 Z"></path>
                    <path fill="#FFFFFF" id="椭圆形备份-5" d="M50.7692308,120 C58.4162504,120 64.6153846,113.800866 64.6153846,106.153846 C64.6153846,98.5068265 58.4162504,92.3076923 50.7692308,92.3076923 C43.1222112,92.3076923 36.9230769,98.5068265 36.9230769,106.153846 C36.9230769,113.800866 43.1222112,120 50.7692308,120 Z"></path>
                </g>
            </g>
            <path fill-rule="nonzero" fill="#A05400" id="路径-7" d="M338.909772,240.948906 C345.25459,234.798458 355.384004,234.956027 361.534452,241.300845 C367.211788,247.1576 367.514247,256.2391 362.536814,262.439092 L361.182513,263.925525 L225.066238,395.871943 C218.721419,402.02239 208.592005,401.864822 202.441558,395.520004 C196.764221,389.663249 196.461763,380.581749 201.439196,374.381757 L202.793497,372.895324 L338.909772,240.948906 Z"></path>
            <path fill-rule="nonzero" fill="#A05400" id="路径-7备份" d="M659.88859,245.503421 C665.232644,239.34105 674.254002,238.254673 680.86106,242.677515 L682.459001,243.898252 L789.445069,336.677361 C796.120971,342.466752 796.839629,352.571869 791.050238,359.247771 C785.706184,365.410142 776.684826,366.496519 770.077768,362.073677 L768.479827,360.852941 L661.493759,268.073832 C654.817857,262.28444 654.099199,252.179323 659.88859,245.503421 Z"></path>
        </g>
    </g>
</svg>