<?xml version="1.0" standalone="no"?><!DOCTYPE svg PUBLIC "-//W3C//DTD SVG 1.1//EN" "http://www.w3.org/Graphics/SVG/1.1/DTD/svg11.dtd"><svg height="1024" node-id="1" sillyvg="true" template-height="1024" template-width="1024" version="1.1" viewBox="0 0 1024 1024" width="1024" xmlns="http://www.w3.org/2000/svg" xmlns:xlink="http://www.w3.org/1999/xlink"><defs node-id="73"><linearGradient gradientUnits="objectBoundingBox" id="linearGradient-13" node-id="39" spreadMethod="pad" x1="0.5" x2="0.5" y1="0.1186253" y2="1"><stop offset="0" stop-color="#ff8b9f"></stop><stop offset="1" stop-color="#ff5166"></stop></linearGradient><radialGradient cx="0.5" cy="0.1966899" fx="0.5" fy="0.1966899" gradientUnits="objectBoundingBox" id="radialGradient-1" node-id="5" r="0.9393923" rev="1" spreadMethod="pad"><stop offset="0" stop-color="#ffe476"></stop><stop offset="0.41387266" stop-color="#fcec6c"></stop><stop offset="1" stop-color="#ffb02f"></stop></radialGradient><filter height="975.936" id="filter-3" node-id="10" width="1056.096" x="-72.048004" y="-72.383995"><feGaussianBlur color-interpolation-filters="linearRGB" in="SourceAlpha" result="shadowBlurInner1" stdDeviation="64 64"></feGaussianBlur><feOffset color-interpolation-filters="linearRGB" dx="0" dy="16" in="shadowBlurInner1" result="shadowOffsetInner1"></feOffset><feComposite color-interpolation-filters="linearRGB" in="shadowOffsetInner1" in2="SourceAlpha" k1="0" k2="-1" k3="1" k4="0" operator="arithmetic" result="shadowInnerInner1"></feComposite><feColorMatrix color-interpolation-filters="linearRGB" in="shadowInnerInner1" result="result4" type="matrix" values="0 0 0 0 0.96862745 0 0 0 0 0.6862745 0 0 0 0 0.27058825 0 0 0 0.5011456 0"></feColorMatrix></filter><filter height="448" id="filter-4" node-id="15" width="463.93604" x="416.03198" y="264"><feGaussianBlur color-interpolation-filters="linearRGB" in="SourceGraphic" result="result1" stdDeviation="48 48"></feGaussianBlur></filter><filter height="448" id="filter-5" node-id="17" width="463.93604" x="-15.968002" y="264"><feGaussianBlur color-interpolation-filters="linearRGB" in="SourceGraphic" result="result1" stdDeviation="48 48"></feGaussianBlur></filter><filter height="417.5878" id="filter-7" node-id="20" width="383.7146" x="95.92773" y="160.10117"><feOffset color-interpolation-filters="linearRGB" dx="0" dy="0" in="SourceAlpha" result="shadowOffsetOuter1"></feOffset><feGaussianBlur color-interpolation-filters="linearRGB" in="shadowOffsetOuter1" result="shadowBlurOuter1" stdDeviation="16 16"></feGaussianBlur><feColorMatrix color-interpolation-filters="linearRGB" in="shadowBlurOuter1" result="result3" type="matrix" values="0 0 0 0 0.88884836 0 0 0 0 0.59170264 0 0 0 0 0.17878589 0 0 0 1 0"></feColorMatrix></filter><filter height="415.9619" id="filter-9" node-id="25" width="393.5953" x="432.06595" y="160.00441"><feOffset color-interpolation-filters="linearRGB" dx="0" dy="0" in="SourceAlpha" result="shadowOffsetOuter1"></feOffset><feGaussianBlur color-interpolation-filters="linearRGB" in="shadowOffsetOuter1" result="shadowBlurOuter1" stdDeviation="16 16"></feGaussianBlur><feColorMatrix color-interpolation-filters="linearRGB" in="shadowBlurOuter1" result="result3" type="matrix" values="0 0 0 0 0.88884836 0 0 0 0 0.59170264 0 0 0 0 0.17878589 0 0 0 1 0"></feColorMatrix></filter><filter height="192" id="filter-11" node-id="30" width="543.872" x="-47.935993" y="-48"><feOffset color-interpolation-filters="linearRGB" dx="0" dy="0" in="SourceAlpha" result="shadowOffsetOuter1"></feOffset><feGaussianBlur color-interpolation-filters="linearRGB" in="shadowOffsetOuter1" result="shadowBlurOuter1" stdDeviation="16 16"></feGaussianBlur><feColorMatrix color-interpolation-filters="linearRGB" in="shadowBlurOuter1" result="result3" type="matrix" values="0 0 0 0 1 0 0 0 0 0.9485037 0 0 0 0 0.56682485 0 0 0 1 0"></feColorMatrix></filter><filter height="175.96802" id="filter-12" node-id="34" width="528.192" x="-39.87199" y="-40.031998"><feGaussianBlur color-interpolation-filters="linearRGB" in="SourceAlpha" result="shadowBlurInner1" stdDeviation="8 8"></feGaussianBlur><feOffset color-interpolation-filters="linearRGB" dx="0" dy="0" in="shadowBlurInner1" result="shadowOffsetInner1"></feOffset><feComposite color-interpolation-filters="linearRGB" in="shadowOffsetInner1" in2="SourceAlpha" k1="0" k2="-1" k3="1" k4="0" operator="arithmetic" result="shadowInnerInner1"></feComposite><feColorMatrix color-interpolation-filters="linearRGB" in="shadowInnerInner1" result="result4" type="matrix" values="0 0 0 0 0.6612584 0 0 0 0 0.08722547 0 0 0 0 0.009827761 0 0 0 1 0"></feColorMatrix></filter><filter height="120" id="filter-15" node-id="43" width="472.19202" x="-12.095993" y="-12"><feGaussianBlur color-interpolation-filters="linearRGB" in="SourceAlpha" result="shadowBlurInner1" stdDeviation="8 8"></feGaussianBlur><feOffset color-interpolation-filters="linearRGB" dx="0" dy="0" in="shadowBlurInner1" result="shadowOffsetInner1"></feOffset><feComposite color-interpolation-filters="linearRGB" in="shadowOffsetInner1" in2="SourceAlpha" k1="0" k2="-1" k3="1" k4="0" operator="arithmetic" result="shadowInnerInner1"></feComposite><feColorMatrix color-interpolation-filters="linearRGB" in="shadowInnerInner1" result="result4" type="matrix" values="0 0 0 0 0.6612584 0 0 0 0 0.08722547 0 0 0 0 0.009827761 0 0 0 1 0"></feColorMatrix></filter></defs><g node-id="229"><path d="M 0.00 0.00 L 1024.00 0.00 L 1024.00 1024.00 L 0.00 1024.00 Z" fill="none" group-id="1" id="矩形备份-6" node-id="50" stroke="none" target-height="1024" target-width="1024" target-x="0" target-y="0"></path><g node-id="230"><g node-id="231"><g node-id="237"><path d="M 486.90 96.40 L 501.30 96.00 L 515.40 96.30 L 529.20 97.10 L 542.80 98.60 L 556.10 100.60 L 569.40 103.30 L 582.50 106.40 L 595.10 110.20 L 607.50 114.40 L 619.60 119.20 L 631.50 124.60 L 643.10 130.50 L 654.30 136.80 L 665.10 143.60 L 675.60 150.90 L 685.80 158.80 L 695.50 167.00 L 704.90 175.70 L 713.80 184.80 L 722.40 194.30 L 730.40 204.30 L 738.00 214.60 L 745.20 225.30 L 751.80 236.50 L 758.00 248.10 L 769.40 253.30 L 780.50 259.00 L 791.50 265.00 L 802.40 271.40 L 813.10 278.30 L 826.20 287.20 L 838.90 296.70 L 851.30 306.80 L 863.30 317.30 L 872.50 326.10 L 881.50 335.20 L 890.10 344.60 L 898.50 354.20 L 906.50 364.20 L 914.10 374.40 L 921.40 384.80 L 928.30 395.50 L 934.80 406.40 L 940.90 417.60 L 946.50 429.00 L 951.70 440.60 L 956.40 452.30 L 960.70 464.30 L 964.50 476.40 L 967.80 488.70 L 970.50 501.20 L 972.70 513.80 L 974.30 526.60 L 975.50 539.60 L 976.00 552.50 L 975.90 565.50 L 975.20 578.80 L 973.80 592.20 L 971.80 605.70 L 969.00 620.60 L 965.80 635.00 L 962.10 648.90 L 958.00 662.40 L 953.50 675.50 L 948.60 688.20 L 943.20 700.90 L 937.30 713.20 L 931.10 725.10 L 924.50 736.60 L 917.50 747.70 L 910.20 758.50 L 902.30 769.10 L 894.10 779.30 L 885.60 789.10 L 876.70 798.60 L 867.40 807.80 L 857.80 816.60 L 847.90 825.10 L 837.60 833.20 L 826.90 841.00 L 816.00 848.40 L 804.60 855.60 L 784.20 867.80 L 774.80 873.10 L 764.80 878.20 L 754.10 883.20 L 743.50 887.80 L 732.10 892.20 L 719.90 896.50 L 706.80 900.60 L 680.20 907.70 L 665.50 911.00 L 634.40 916.80 L 600.50 921.50 L 581.80 923.50 L 560.70 925.40 L 540.00 926.80 L 519.60 927.60 L 499.60 928.00 L 480.00 927.90 L 460.20 927.30 L 440.80 926.10 L 421.90 924.50 L 403.40 922.50 L 385.40 919.90 L 367.20 916.70 L 349.60 913.10 L 332.40 909.00 L 315.80 904.40 L 299.70 899.30 L 286.20 894.60 L 273.10 889.50 L 260.40 884.10 L 248.10 878.40 L 236.20 872.30 L 224.60 865.90 L 213.10 859.00 L 202.10 851.80 L 191.40 844.20 L 181.20 836.30 L 171.30 828.00 L 161.80 819.30 L 152.70 810.30 L 144.00 800.90 L 135.60 791.10 L 127.70 780.90 L 120.20 770.40 L 113.10 759.40 L 106.60 748.20 L 100.40 736.60 L 94.70 724.60 L 89.50 712.20 L 84.60 699.20 L 80.20 685.80 L 76.50 672.50 L 73.20 658.70 L 70.30 644.40 L 68.00 629.60 L 66.20 614.20 L 64.80 598.20 L 64.10 583.10 L 64.00 568.60 L 64.50 554.60 L 65.40 541.20 L 66.90 528.40 L 68.90 515.30 L 71.40 502.70 L 74.40 490.60 L 77.80 479.00 L 81.70 467.80 L 86.20 456.60 L 91.10 445.90 L 96.30 435.50 L 102.10 425.60 L 108.20 416.00 L 114.80 406.60 L 121.70 397.60 L 129.10 388.90 L 136.80 380.60 L 145.00 372.50 L 153.50 364.80 L 162.30 357.40 L 171.50 350.30 L 181.00 343.40 L 191.00 336.90 L 193.90 323.40 L 197.20 310.50 L 200.80 298.00 L 204.80 286.10 L 209.20 274.60 L 213.80 263.60 L 218.80 253.10 L 224.40 242.40 L 230.30 232.20 L 236.40 222.40 L 242.90 213.10 L 249.70 204.10 L 256.90 195.60 L 264.30 187.40 L 273.50 178.20 L 283.00 169.50 L 293.00 161.30 L 303.40 153.60 L 314.20 146.30 L 325.40 139.60 L 336.90 133.40 L 348.70 127.70 L 361.00 122.40 L 373.60 117.60 L 386.70 113.20 L 400.30 109.30 L 413.70 106.00 L 427.50 103.20 L 441.70 100.80 L 456.30 98.90 L 471.40 97.40 L 486.90 96.40 Z" fill="url(#radialGradient-1)" fill-rule="evenodd" group-id="1,2,3,9" node-id="159" stroke="none" target-height="832" target-width="912" target-x="64" target-y="96"></path></g><path d="M 486.90 96.40 L 501.30 96.00 L 515.40 96.30 L 529.20 97.10 L 542.80 98.60 L 556.10 100.60 L 569.40 103.30 L 582.50 106.40 L 595.10 110.20 L 607.50 114.40 L 619.60 119.20 L 631.50 124.60 L 643.10 130.50 L 654.30 136.80 L 665.10 143.60 L 675.60 150.90 L 685.80 158.80 L 695.50 167.00 L 704.90 175.70 L 713.80 184.80 L 722.40 194.30 L 730.40 204.30 L 738.00 214.60 L 745.20 225.30 L 751.80 236.50 L 758.00 248.10 L 769.40 253.30 L 780.50 259.00 L 791.50 265.00 L 802.40 271.40 L 813.10 278.30 L 826.20 287.20 L 838.90 296.70 L 851.30 306.80 L 863.30 317.30 L 872.50 326.10 L 881.50 335.20 L 890.10 344.60 L 898.50 354.20 L 906.50 364.20 L 914.10 374.40 L 921.40 384.80 L 928.30 395.50 L 934.80 406.40 L 940.90 417.60 L 946.50 429.00 L 951.70 440.60 L 956.40 452.30 L 960.70 464.30 L 964.50 476.40 L 967.80 488.70 L 970.50 501.20 L 972.70 513.80 L 974.30 526.60 L 975.50 539.60 L 976.00 552.50 L 975.90 565.50 L 975.20 578.80 L 973.80 592.20 L 971.80 605.70 L 969.00 620.60 L 965.80 635.00 L 962.10 648.90 L 958.00 662.40 L 953.50 675.50 L 948.60 688.20 L 943.20 700.90 L 937.30 713.20 L 931.10 725.10 L 924.50 736.60 L 917.50 747.70 L 910.20 758.50 L 902.30 769.10 L 894.10 779.30 L 885.60 789.10 L 876.70 798.60 L 867.40 807.80 L 857.80 816.60 L 847.90 825.10 L 837.60 833.20 L 826.90 841.00 L 816.00 848.40 L 804.60 855.60 L 784.20 867.80 L 774.80 873.10 L 764.80 878.20 L 754.10 883.20 L 743.50 887.80 L 732.10 892.20 L 719.90 896.50 L 706.80 900.60 L 680.20 907.70 L 665.50 911.00 L 634.40 916.80 L 600.50 921.50 L 581.80 923.50 L 560.70 925.40 L 540.00 926.80 L 519.60 927.60 L 499.60 928.00 L 480.00 927.90 L 460.20 927.30 L 440.80 926.10 L 421.90 924.50 L 403.40 922.50 L 385.40 919.90 L 367.20 916.70 L 349.60 913.10 L 332.40 909.00 L 315.80 904.40 L 299.70 899.30 L 286.20 894.60 L 273.10 889.50 L 260.40 884.10 L 248.10 878.40 L 236.20 872.30 L 224.60 865.90 L 213.10 859.00 L 202.10 851.80 L 191.40 844.20 L 181.20 836.30 L 171.30 828.00 L 161.80 819.30 L 152.70 810.30 L 144.00 800.90 L 135.60 791.10 L 127.70 780.90 L 120.20 770.40 L 113.10 759.40 L 106.60 748.20 L 100.40 736.60 L 94.70 724.60 L 89.50 712.20 L 84.60 699.20 L 80.20 685.80 L 76.50 672.50 L 73.20 658.70 L 70.30 644.40 L 68.00 629.60 L 66.20 614.20 L 64.80 598.20 L 64.10 583.10 L 64.00 568.60 L 64.50 554.60 L 65.40 541.20 L 66.90 528.40 L 68.90 515.30 L 71.40 502.70 L 74.40 490.60 L 77.80 479.00 L 81.70 467.80 L 86.20 456.60 L 91.10 445.90 L 96.30 435.50 L 102.10 425.60 L 108.20 416.00 L 114.80 406.60 L 121.70 397.60 L 129.10 388.90 L 136.80 380.60 L 145.00 372.50 L 153.50 364.80 L 162.30 357.40 L 171.50 350.30 L 181.00 343.40 L 191.00 336.90 L 193.90 323.40 L 197.20 310.50 L 200.80 298.00 L 204.80 286.10 L 209.20 274.60 L 213.80 263.60 L 218.80 253.10 L 224.40 242.40 L 230.30 232.20 L 236.40 222.40 L 242.90 213.10 L 249.70 204.10 L 256.90 195.60 L 264.30 187.40 L 273.50 178.20 L 283.00 169.50 L 293.00 161.30 L 303.40 153.60 L 314.20 146.30 L 325.40 139.60 L 336.90 133.40 L 348.70 127.70 L 361.00 122.40 L 373.60 117.60 L 386.70 113.20 L 400.30 109.30 L 413.70 106.00 L 427.50 103.20 L 441.70 100.80 L 456.30 98.90 L 471.40 97.40 L 486.90 96.40 Z" fill="#000000" fill-rule="evenodd" filter="url(#filter-3)" group-id="1,2,3,10" node-id="164" stroke="none" target-height="832" target-width="912" target-x="64" target-y="96"></path></g><g node-id="232"><path d="M 800.00 584.00 L 799.70 590.60 L 798.80 597.00 L 797.40 603.30 L 795.50 609.30 L 793.10 615.20 L 790.20 620.80 L 786.80 626.10 L 783.00 631.20 L 778.80 636.10 L 774.30 640.50 L 769.30 644.70 L 764.00 648.60 L 758.40 652.00 L 752.50 655.00 L 746.30 657.70 L 739.80 659.90 L 733.20 661.70 L 726.40 662.90 L 719.30 663.70 L 712.00 664.00 L 704.70 663.70 L 697.60 662.90 L 690.80 661.70 L 684.20 659.90 L 677.70 657.70 L 671.50 655.00 L 665.60 652.00 L 660.00 648.60 L 654.70 644.70 L 649.70 640.50 L 645.20 636.10 L 641.00 631.20 L 637.20 626.10 L 633.80 620.80 L 630.90 615.20 L 628.50 609.30 L 626.60 603.30 L 625.20 597.00 L 624.30 590.60 L 624.00 584.00 L 624.30 577.40 L 625.20 571.00 L 626.60 564.70 L 628.50 558.70 L 630.90 552.80 L 633.80 547.20 L 637.20 541.90 L 641.00 536.80 L 645.20 531.90 L 649.70 527.50 L 654.70 523.30 L 660.00 519.40 L 665.60 516.00 L 671.50 513.00 L 677.70 510.30 L 684.20 508.10 L 690.80 506.30 L 697.60 505.10 L 704.70 504.30 L 712.00 504.00 L 719.30 504.30 L 726.40 505.10 L 733.20 506.30 L 739.80 508.10 L 746.30 510.30 L 752.50 513.00 L 758.40 516.00 L 764.00 519.40 L 769.30 523.30 L 774.30 527.50 L 778.80 531.90 L 783.00 536.80 L 786.80 541.90 L 790.20 547.20 L 793.10 552.80 L 795.50 558.70 L 797.40 564.70 L 798.80 571.00 L 799.70 577.40 L 800.00 584.00 Z" fill="#ff5ea4" fill-opacity="0.8" fill-rule="evenodd" filter="url(#filter-4)" group-id="1,2,4" id="椭圆形" node-id="55" stroke="none" target-height="160" target-width="176" target-x="624" target-y="504"></path></g><g node-id="233"><path d="M 368.00 584.00 L 367.70 590.60 L 366.80 597.00 L 365.40 603.30 L 363.50 609.30 L 361.10 615.20 L 358.20 620.80 L 354.80 626.10 L 351.00 631.20 L 346.80 636.10 L 342.30 640.50 L 337.30 644.70 L 332.00 648.60 L 326.40 652.00 L 320.50 655.00 L 314.30 657.70 L 307.80 659.90 L 301.20 661.70 L 294.40 662.90 L 287.30 663.70 L 280.00 664.00 L 272.70 663.70 L 265.60 662.90 L 258.80 661.70 L 252.20 659.90 L 245.70 657.70 L 239.50 655.00 L 233.60 652.00 L 228.00 648.60 L 222.70 644.70 L 217.70 640.50 L 213.20 636.10 L 209.00 631.20 L 205.20 626.10 L 201.80 620.80 L 198.90 615.20 L 196.50 609.30 L 194.60 603.30 L 193.20 597.00 L 192.30 590.60 L 192.00 584.00 L 192.30 577.40 L 193.20 571.00 L 194.60 564.70 L 196.50 558.70 L 198.90 552.80 L 201.80 547.20 L 205.20 541.90 L 209.00 536.80 L 213.20 531.90 L 217.70 527.50 L 222.70 523.30 L 228.00 519.40 L 233.60 516.00 L 239.50 513.00 L 245.70 510.30 L 252.20 508.10 L 258.80 506.30 L 265.60 505.10 L 272.70 504.30 L 280.00 504.00 L 287.30 504.30 L 294.40 505.10 L 301.20 506.30 L 307.80 508.10 L 314.30 510.30 L 320.50 513.00 L 326.40 516.00 L 332.00 519.40 L 337.30 523.30 L 342.30 527.50 L 346.80 531.90 L 351.00 536.80 L 354.80 541.90 L 358.20 547.20 L 361.10 552.80 L 363.50 558.70 L 365.40 564.70 L 366.80 571.00 L 367.70 577.40 L 368.00 584.00 Z" fill="#ff5ea4" fill-opacity="0.8" fill-rule="evenodd" filter="url(#filter-5)" group-id="1,2,5" id="椭圆形备份-6" node-id="56" stroke="none" target-height="160" target-width="176" target-x="192" target-y="504"></path></g><g node-id="234"><g node-id="239"><path d="M 342.00 304.00 L 352.30 304.30 L 362.30 305.30 L 372.00 306.80 L 381.50 309.00 L 391.00 311.70 L 400.00 315.00 L 408.80 318.90 L 417.30 323.30 L 425.50 328.20 L 433.40 333.60 L 440.80 339.50 L 447.90 345.80 L 454.60 352.60 L 460.90 359.90 L 466.70 367.50 L 472.10 375.70 L 477.00 384.10 L 481.30 392.90 L 485.10 402.10 L 488.50 411.80 L 490.70 419.60 L 492.50 427.60 L 493.90 435.80 L 495.00 444.40 L 495.60 453.10 L 495.90 461.80 L 495.70 470.70 L 495.00 479.80 L 493.90 489.10 L 492.30 498.70 L 490.50 506.90 L 488.30 514.70 L 485.70 522.20 L 482.70 529.50 L 479.40 536.50 L 474.60 545.00 L 469.40 553.10 L 463.70 560.80 L 457.50 568.10 L 450.90 575.00 L 443.90 581.50 L 436.60 587.60 L 428.80 593.20 L 420.80 598.40 L 412.60 603.20 L 404.20 607.50 L 395.50 611.40 L 386.70 614.80 L 377.80 617.80 L 368.80 620.20 L 359.80 622.30 L 350.60 623.80 L 341.50 624.80 L 332.50 625.40 L 323.70 625.40 L 314.70 625.00 L 306.00 624.00 L 297.60 622.50 L 289.40 620.50 L 281.30 618.00 L 273.50 614.90 L 266.20 611.30 L 259.10 607.10 L 252.80 602.70 L 247.10 597.80 L 241.70 592.50 L 236.70 586.80 L 232.30 580.60 L 228.20 574.20 L 224.50 567.40 L 221.30 560.20 L 218.50 552.80 L 216.10 545.30 L 214.20 537.50 L 212.70 529.50 L 211.60 521.50 L 211.00 513.30 L 210.90 505.10 L 211.10 496.80 L 211.80 488.60 L 213.00 480.40 L 214.60 472.30 L 216.60 464.30 L 219.10 456.30 L 222.10 448.60 L 225.50 441.20 L 229.30 433.90 L 233.60 426.90 L 238.30 420.20 L 243.50 413.80 L 249.20 407.80 L 254.50 403.00 L 259.90 398.80 L 265.60 395.10 L 271.50 391.80 L 277.70 389.00 L 284.00 386.70 L 290.40 384.80 L 297.00 383.40 L 303.60 382.30 L 310.30 381.70 L 317.00 381.60 L 323.70 381.80 L 337.00 383.40 L 349.90 386.50 L 362.30 391.00 L 373.70 396.80 L 379.20 400.20 L 384.30 403.90 L 389.00 407.90 L 393.40 412.10 L 397.50 416.70 L 401.20 421.50 L 404.40 426.50 L 407.20 431.80 L 409.40 437.30 L 411.20 443.10 L 412.40 449.00 L 413.10 455.30 L 413.20 460.20 L 412.90 465.40 L 411.00 476.20 L 409.40 481.90 L 406.80 489.20 L 404.00 495.80 L 401.00 501.60 L 397.80 506.80 L 394.50 511.40 L 391.00 515.40 L 387.00 519.30 L 382.80 522.50 L 378.50 525.30 L 374.00 527.50 L 369.30 529.30 L 364.30 530.50 L 359.40 531.20 L 354.20 531.50 L 348.70 531.30 L 343.00 530.50 L 337.00 529.30 L 330.60 527.40 L 323.60 524.80 L 316.20 521.40 L 308.40 517.30 L 300.10 512.20 L 291.30 506.20 L 289.10 504.30 L 287.30 502.10 L 286.00 499.70 L 285.10 497.10 L 284.70 494.40 L 284.70 491.70 L 285.20 489.00 L 286.20 486.40 L 287.70 483.90 L 289.60 481.70 L 291.80 479.90 L 294.20 478.60 L 296.80 477.70 L 299.50 477.30 L 302.20 477.30 L 304.90 477.80 L 307.50 478.80 L 324.70 490.00 L 330.70 493.30 L 336.00 495.90 L 340.70 497.70 L 345.00 498.90 L 348.80 499.60 L 352.20 499.80 L 355.30 499.60 L 358.40 498.90 L 361.30 497.80 L 364.10 496.30 L 366.70 494.20 L 369.20 491.60 L 371.70 488.10 L 374.20 483.80 L 376.70 478.50 L 379.00 472.10 L 380.10 467.50 L 380.80 463.20 L 380.80 459.00 L 380.40 455.00 L 379.50 451.10 L 378.20 447.30 L 376.40 443.60 L 374.30 440.00 L 368.90 433.60 L 362.20 427.80 L 357.20 424.40 L 351.80 421.50 L 345.90 418.90 L 339.80 416.80 L 333.50 415.20 L 327.00 414.10 L 320.40 413.50 L 313.80 413.40 L 307.20 414.00 L 302.30 414.70 L 292.80 417.40 L 288.20 419.20 L 283.80 421.50 L 279.60 424.10 L 275.50 427.10 L 271.70 430.60 L 267.40 435.10 L 263.60 439.80 L 260.00 444.90 L 256.80 450.20 L 251.40 461.30 L 249.20 467.20 L 247.40 473.20 L 245.40 481.30 L 243.90 489.60 L 243.10 497.90 L 242.80 506.30 L 243.20 514.60 L 244.00 522.70 L 245.40 530.70 L 247.40 538.40 L 249.90 545.80 L 254.80 556.30 L 260.80 565.50 L 264.30 569.80 L 268.00 573.60 L 272.10 577.10 L 276.40 580.20 L 281.70 583.30 L 287.40 586.00 L 293.30 588.30 L 299.60 590.20 L 306.00 591.60 L 312.50 592.70 L 319.30 593.30 L 333.40 593.40 L 347.60 591.90 L 354.90 590.60 L 369.20 586.90 L 383.40 581.70 L 397.10 575.10 L 410.10 567.10 L 416.20 562.70 L 422.10 557.80 L 427.70 552.70 L 433.10 547.30 L 438.00 541.50 L 442.60 535.40 L 446.80 529.10 L 450.60 522.40 L 453.90 515.40 L 456.70 508.20 L 459.10 500.70 L 460.90 492.80 L 462.40 483.60 L 463.30 474.70 L 463.80 466.20 L 463.80 457.90 L 463.30 449.80 L 462.40 441.70 L 461.00 433.80 L 459.30 426.30 L 457.20 419.00 L 454.60 412.00 L 451.60 405.10 L 448.30 398.50 L 444.70 392.20 L 440.70 386.30 L 436.50 380.60 L 431.80 375.10 L 426.90 370.00 L 421.70 365.20 L 416.20 360.70 L 410.50 356.60 L 404.50 352.80 L 398.30 349.40 L 391.90 346.30 L 385.30 343.70 L 378.40 341.30 L 371.50 339.50 L 364.40 338.00 L 357.10 336.90 L 349.70 336.20 L 342.00 336.00 L 332.10 336.20 L 322.60 336.90 L 313.60 338.00 L 305.00 339.50 L 296.90 341.40 L 289.10 343.70 L 281.60 346.40 L 274.10 349.60 L 267.00 353.20 L 260.20 357.20 L 253.60 361.60 L 247.40 366.50 L 241.40 371.80 L 233.50 379.40 L 231.10 380.90 L 228.50 381.90 L 225.80 382.40 L 223.10 382.50 L 220.40 382.10 L 217.80 381.30 L 215.40 380.00 L 213.00 378.20 L 211.10 376.00 L 209.60 373.60 L 208.70 371.10 L 208.10 368.40 L 208.00 365.70 L 208.40 363.00 L 209.20 360.30 L 210.50 357.90 L 212.30 355.60 L 219.50 348.40 L 227.00 341.80 L 234.70 335.80 L 242.80 330.30 L 251.20 325.30 L 260.00 320.90 L 269.10 316.90 L 278.30 313.60 L 287.90 310.70 L 297.80 308.30 L 308.20 306.50 L 319.00 305.10 L 330.20 304.30 L 342.00 304.00 Z" fill="#000000" fill-rule="nonzero" filter="url(#filter-7)" group-id="1,2,6,11" node-id="179" stroke="none" target-height="321.40002" target-width="287.9" target-x="208" target-y="304"></path></g><path d="M 342.00 304.00 L 352.30 304.30 L 362.30 305.30 L 372.00 306.80 L 381.50 309.00 L 391.00 311.70 L 400.00 315.00 L 408.80 318.90 L 417.30 323.30 L 425.50 328.20 L 433.40 333.60 L 440.80 339.50 L 447.90 345.80 L 454.60 352.60 L 460.90 359.90 L 466.70 367.50 L 472.10 375.70 L 477.00 384.10 L 481.30 392.90 L 485.10 402.10 L 488.50 411.80 L 490.70 419.60 L 492.50 427.60 L 493.90 435.80 L 495.00 444.40 L 495.60 453.10 L 495.90 461.80 L 495.70 470.70 L 495.00 479.80 L 493.90 489.10 L 492.30 498.70 L 490.50 506.90 L 488.30 514.70 L 485.70 522.20 L 482.70 529.50 L 479.40 536.50 L 474.60 545.00 L 469.40 553.10 L 463.70 560.80 L 457.50 568.10 L 450.90 575.00 L 443.90 581.50 L 436.60 587.60 L 428.80 593.20 L 420.80 598.40 L 412.60 603.20 L 404.20 607.50 L 395.50 611.40 L 386.70 614.80 L 377.80 617.80 L 368.80 620.20 L 359.80 622.30 L 350.60 623.80 L 341.50 624.80 L 332.50 625.40 L 323.70 625.40 L 314.70 625.00 L 306.00 624.00 L 297.60 622.50 L 289.40 620.50 L 281.30 618.00 L 273.50 614.90 L 266.20 611.30 L 259.10 607.10 L 252.80 602.70 L 247.10 597.80 L 241.70 592.50 L 236.70 586.80 L 232.30 580.60 L 228.20 574.20 L 224.50 567.40 L 221.30 560.20 L 218.50 552.80 L 216.10 545.30 L 214.20 537.50 L 212.70 529.50 L 211.60 521.50 L 211.00 513.30 L 210.90 505.10 L 211.10 496.80 L 211.80 488.60 L 213.00 480.40 L 214.60 472.30 L 216.60 464.30 L 219.10 456.30 L 222.10 448.60 L 225.50 441.20 L 229.30 433.90 L 233.60 426.90 L 238.30 420.20 L 243.50 413.80 L 249.20 407.80 L 254.50 403.00 L 259.90 398.80 L 265.60 395.10 L 271.50 391.80 L 277.70 389.00 L 284.00 386.70 L 290.40 384.80 L 297.00 383.40 L 303.60 382.30 L 310.30 381.70 L 317.00 381.60 L 323.70 381.80 L 337.00 383.40 L 349.90 386.50 L 362.30 391.00 L 373.70 396.80 L 379.20 400.20 L 384.30 403.90 L 389.00 407.90 L 393.40 412.10 L 397.50 416.70 L 401.20 421.50 L 404.40 426.50 L 407.20 431.80 L 409.40 437.30 L 411.20 443.10 L 412.40 449.00 L 413.10 455.30 L 413.20 460.20 L 412.90 465.40 L 411.00 476.20 L 409.40 481.90 L 406.80 489.20 L 404.00 495.80 L 401.00 501.60 L 397.80 506.80 L 394.50 511.40 L 391.00 515.40 L 387.00 519.30 L 382.80 522.50 L 378.50 525.30 L 374.00 527.50 L 369.30 529.30 L 364.30 530.50 L 359.40 531.20 L 354.20 531.50 L 348.70 531.30 L 343.00 530.50 L 337.00 529.30 L 330.60 527.40 L 323.60 524.80 L 316.20 521.40 L 308.40 517.30 L 300.10 512.20 L 291.30 506.20 L 289.10 504.30 L 287.30 502.10 L 286.00 499.70 L 285.10 497.10 L 284.70 494.40 L 284.70 491.70 L 285.20 489.00 L 286.20 486.40 L 287.70 483.90 L 289.60 481.70 L 291.80 479.90 L 294.20 478.60 L 296.80 477.70 L 299.50 477.30 L 302.20 477.30 L 304.90 477.80 L 307.50 478.80 L 324.70 490.00 L 330.70 493.30 L 336.00 495.90 L 340.70 497.70 L 345.00 498.90 L 348.80 499.60 L 352.20 499.80 L 355.30 499.60 L 358.40 498.90 L 361.30 497.80 L 364.10 496.30 L 366.70 494.20 L 369.20 491.60 L 371.70 488.10 L 374.20 483.80 L 376.70 478.50 L 379.00 472.10 L 380.10 467.50 L 380.80 463.20 L 380.80 459.00 L 380.40 455.00 L 379.50 451.10 L 378.20 447.30 L 376.40 443.60 L 374.30 440.00 L 368.90 433.60 L 362.20 427.80 L 357.20 424.40 L 351.80 421.50 L 345.90 418.90 L 339.80 416.80 L 333.50 415.20 L 327.00 414.10 L 320.40 413.50 L 313.80 413.40 L 307.20 414.00 L 302.30 414.70 L 292.80 417.40 L 288.20 419.20 L 283.80 421.50 L 279.60 424.10 L 275.50 427.10 L 271.70 430.60 L 267.40 435.10 L 263.60 439.80 L 260.00 444.90 L 256.80 450.20 L 251.40 461.30 L 249.20 467.20 L 247.40 473.20 L 245.40 481.30 L 243.90 489.60 L 243.10 497.90 L 242.80 506.30 L 243.20 514.60 L 244.00 522.70 L 245.40 530.70 L 247.40 538.40 L 249.90 545.80 L 254.80 556.30 L 260.80 565.50 L 264.30 569.80 L 268.00 573.60 L 272.10 577.10 L 276.40 580.20 L 281.70 583.30 L 287.40 586.00 L 293.30 588.30 L 299.60 590.20 L 306.00 591.60 L 312.50 592.70 L 319.30 593.30 L 333.40 593.40 L 347.60 591.90 L 354.90 590.60 L 369.20 586.90 L 383.40 581.70 L 397.10 575.10 L 410.10 567.10 L 416.20 562.70 L 422.10 557.80 L 427.70 552.70 L 433.10 547.30 L 438.00 541.50 L 442.60 535.40 L 446.80 529.10 L 450.60 522.40 L 453.90 515.40 L 456.70 508.20 L 459.10 500.70 L 460.90 492.80 L 462.40 483.60 L 463.30 474.70 L 463.80 466.20 L 463.80 457.90 L 463.30 449.80 L 462.40 441.70 L 461.00 433.80 L 459.30 426.30 L 457.20 419.00 L 454.60 412.00 L 451.60 405.10 L 448.30 398.50 L 444.70 392.20 L 440.70 386.30 L 436.50 380.60 L 431.80 375.10 L 426.90 370.00 L 421.70 365.20 L 416.20 360.70 L 410.50 356.60 L 404.50 352.80 L 398.30 349.40 L 391.90 346.30 L 385.30 343.70 L 378.40 341.30 L 371.50 339.50 L 364.40 338.00 L 357.10 336.90 L 349.70 336.20 L 342.00 336.00 L 332.10 336.20 L 322.60 336.90 L 313.60 338.00 L 305.00 339.50 L 296.90 341.40 L 289.10 343.70 L 281.60 346.40 L 274.10 349.60 L 267.00 353.20 L 260.20 357.20 L 253.60 361.60 L 247.40 366.50 L 241.40 371.80 L 233.50 379.40 L 231.10 380.90 L 228.50 381.90 L 225.80 382.40 L 223.10 382.50 L 220.40 382.10 L 217.80 381.30 L 215.40 380.00 L 213.00 378.20 L 211.10 376.00 L 209.60 373.60 L 208.70 371.10 L 208.10 368.40 L 208.00 365.70 L 208.40 363.00 L 209.20 360.30 L 210.50 357.90 L 212.30 355.60 L 219.50 348.40 L 227.00 341.80 L 234.70 335.80 L 242.80 330.30 L 251.20 325.30 L 260.00 320.90 L 269.10 316.90 L 278.30 313.60 L 287.90 310.70 L 297.80 308.30 L 308.20 306.50 L 319.00 305.10 L 330.20 304.30 L 342.00 304.00 Z" fill="#5b2500" fill-rule="nonzero" group-id="1,2,6,12" node-id="184" stroke="none" target-height="321.40002" target-width="287.9" target-x="208" target-y="304"></path></g><g node-id="235"><g node-id="241"><path d="M 657.70 616.40 L 647.80 613.50 L 638.40 610.00 L 629.40 605.90 L 620.80 601.40 L 612.40 596.30 L 604.50 590.70 L 597.00 584.80 L 589.90 578.30 L 583.30 571.50 L 577.10 564.20 L 571.40 556.60 L 566.20 548.60 L 561.50 540.30 L 557.30 531.70 L 553.70 522.80 L 550.60 513.50 L 548.10 504.10 L 546.10 494.50 L 544.80 484.60 L 544.10 474.40 L 544.00 466.30 L 544.30 458.10 L 545.10 449.80 L 546.20 441.30 L 547.90 432.60 L 549.90 424.20 L 552.40 415.70 L 555.40 407.00 L 558.90 398.30 L 562.90 389.40 L 566.70 382.00 L 570.90 375.10 L 575.30 368.40 L 580.10 362.20 L 585.10 356.30 L 591.90 349.30 L 599.10 342.80 L 606.60 336.90 L 614.50 331.40 L 622.70 326.50 L 631.10 322.00 L 639.70 318.10 L 648.60 314.60 L 657.70 311.60 L 666.90 309.20 L 676.20 307.20 L 685.50 305.70 L 695.00 304.60 L 704.30 304.10 L 713.60 304.00 L 722.90 304.40 L 732.20 305.30 L 741.20 306.70 L 750.00 308.50 L 758.60 310.70 L 767.10 313.50 L 775.20 316.70 L 783.00 320.30 L 790.40 324.30 L 797.60 328.90 L 804.30 333.90 L 810.50 339.30 L 816.20 345.10 L 821.10 351.00 L 825.40 357.20 L 829.20 363.70 L 832.50 370.50 L 835.30 377.60 L 837.60 384.90 L 839.30 392.50 L 840.60 400.20 L 841.40 408.00 L 841.70 415.90 L 841.60 424.00 L 840.90 432.10 L 839.90 440.10 L 838.40 448.10 L 836.40 456.10 L 834.00 464.00 L 831.20 471.80 L 828.00 479.40 L 824.30 486.80 L 820.30 494.10 L 815.80 501.10 L 811.00 507.80 L 805.80 514.10 L 800.20 520.20 L 794.20 525.80 L 787.90 531.10 L 781.20 535.80 L 774.20 540.20 L 767.80 543.50 L 761.40 546.20 L 754.90 548.30 L 748.30 549.90 L 741.60 551.00 L 734.90 551.60 L 728.10 551.70 L 721.40 551.40 L 714.70 550.60 L 708.00 549.50 L 701.50 547.90 L 695.00 545.90 L 688.70 543.50 L 676.60 537.80 L 666.20 531.30 L 659.50 526.30 L 653.40 520.90 L 647.70 515.10 L 643.80 510.50 L 637.10 500.80 L 634.40 495.70 L 632.00 490.40 L 630.00 485.00 L 628.50 479.50 L 627.50 473.90 L 626.90 468.20 L 626.90 462.50 L 627.40 456.70 L 628.40 450.70 L 630.00 445.00 L 632.20 439.20 L 635.00 433.20 L 638.60 427.10 L 643.00 420.80 L 647.40 415.20 L 651.90 410.30 L 656.20 406.10 L 660.60 402.60 L 665.00 399.60 L 669.90 396.90 L 674.80 394.80 L 679.70 393.20 L 684.60 392.20 L 689.60 391.80 L 694.70 391.90 L 699.70 392.50 L 704.80 393.50 L 710.00 395.20 L 715.30 397.40 L 720.80 400.10 L 726.50 403.60 L 732.60 407.90 L 738.90 413.10 L 745.40 419.10 L 752.10 426.20 L 759.00 434.20 L 760.60 436.70 L 761.70 439.20 L 762.40 441.90 L 762.60 444.60 L 762.30 447.30 L 761.60 450.00 L 760.40 452.40 L 758.80 454.70 L 756.70 456.80 L 754.20 458.40 L 751.70 459.50 L 749.00 460.20 L 746.30 460.30 L 743.60 460.10 L 741.00 459.30 L 738.50 458.10 L 736.20 456.50 L 722.60 441.30 L 717.60 436.50 L 713.10 432.70 L 709.00 429.70 L 705.30 427.40 L 701.80 425.80 L 698.50 424.70 L 695.50 424.10 L 692.30 423.90 L 689.20 424.20 L 686.10 425.00 L 683.00 426.30 L 680.00 428.20 L 676.60 430.90 L 673.10 434.40 L 669.30 438.90 L 665.50 444.50 L 663.10 448.60 L 661.40 452.60 L 660.30 456.60 L 659.70 460.60 L 659.50 464.70 L 659.80 468.70 L 660.50 472.70 L 661.70 476.70 L 665.20 484.30 L 670.20 491.70 L 674.20 496.20 L 678.70 500.40 L 683.70 504.50 L 689.00 508.00 L 694.60 511.20 L 700.70 514.00 L 706.90 516.30 L 713.20 518.00 L 719.70 519.20 L 724.70 519.70 L 734.50 519.60 L 739.40 519.00 L 744.30 518.00 L 749.00 516.60 L 753.70 514.70 L 758.40 512.40 L 763.60 509.10 L 768.60 505.50 L 773.30 501.60 L 782.00 492.70 L 789.50 482.80 L 792.90 477.50 L 796.90 470.20 L 800.40 462.60 L 803.40 454.70 L 805.80 446.70 L 807.70 438.60 L 808.90 430.60 L 809.60 422.40 L 809.70 414.50 L 809.20 406.70 L 808.40 400.90 L 805.70 390.00 L 803.80 384.80 L 801.60 379.80 L 798.90 375.10 L 795.90 370.70 L 792.50 366.60 L 788.20 362.20 L 783.40 358.20 L 778.30 354.40 L 772.70 351.00 L 766.90 347.90 L 760.80 345.20 L 754.50 342.80 L 740.90 339.10 L 726.80 336.90 L 719.40 336.20 L 704.60 336.10 L 689.60 337.50 L 674.70 340.30 L 660.10 344.60 L 652.90 347.40 L 646.00 350.50 L 639.20 354.00 L 632.70 357.90 L 626.40 362.20 L 620.40 366.90 L 614.70 371.90 L 609.30 377.40 L 604.30 383.20 L 599.70 389.50 L 595.50 396.20 L 591.70 403.30 L 587.90 411.80 L 584.70 420.10 L 582.00 428.30 L 579.90 436.30 L 578.20 444.20 L 577.00 452.30 L 576.30 460.20 L 576.00 468.00 L 576.20 475.50 L 576.90 482.90 L 577.90 490.40 L 579.40 497.60 L 581.30 504.60 L 583.60 511.40 L 586.30 518.00 L 589.30 524.50 L 592.80 530.70 L 596.50 536.70 L 600.70 542.40 L 605.10 547.90 L 609.90 553.10 L 615.00 558.00 L 620.40 562.60 L 626.10 566.90 L 632.10 570.90 L 638.40 574.60 L 644.80 577.80 L 651.60 580.80 L 658.60 583.30 L 666.00 585.50 L 675.60 587.90 L 684.90 589.70 L 693.90 590.90 L 702.60 591.70 L 711.00 592.00 L 719.10 591.80 L 727.00 591.10 L 735.00 590.00 L 742.80 588.40 L 750.50 586.20 L 757.90 583.70 L 765.20 580.60 L 772.40 577.00 L 782.00 571.70 L 784.70 570.90 L 787.40 570.60 L 790.20 570.70 L 792.80 571.40 L 795.30 572.40 L 797.60 573.90 L 799.70 575.80 L 801.40 578.10 L 802.80 580.80 L 803.50 583.40 L 803.80 586.20 L 803.70 588.90 L 803.10 591.50 L 802.00 594.10 L 800.50 596.40 L 798.60 598.40 L 796.30 600.20 L 787.50 605.20 L 778.60 609.70 L 769.50 613.50 L 760.30 616.70 L 750.90 619.30 L 741.20 621.40 L 731.40 622.80 L 721.70 623.70 L 711.70 624.00 L 701.50 623.70 L 691.00 622.80 L 680.20 621.30 L 669.10 619.20 L 657.70 616.40 Z" fill="#000000" fill-rule="nonzero" filter="url(#filter-9)" group-id="1,2,7,13" node-id="191" stroke="none" target-height="320" target-width="297.7" target-x="544" target-y="304"></path></g><path d="M 657.70 616.40 L 647.80 613.50 L 638.40 610.00 L 629.40 605.90 L 620.80 601.40 L 612.40 596.30 L 604.50 590.70 L 597.00 584.80 L 589.90 578.30 L 583.30 571.50 L 577.10 564.20 L 571.40 556.60 L 566.20 548.60 L 561.50 540.30 L 557.30 531.70 L 553.70 522.80 L 550.60 513.50 L 548.10 504.10 L 546.10 494.50 L 544.80 484.60 L 544.10 474.40 L 544.00 466.30 L 544.30 458.10 L 545.10 449.80 L 546.20 441.30 L 547.90 432.60 L 549.90 424.20 L 552.40 415.70 L 555.40 407.00 L 558.90 398.30 L 562.90 389.40 L 566.70 382.00 L 570.90 375.10 L 575.30 368.40 L 580.10 362.20 L 585.10 356.30 L 591.90 349.30 L 599.10 342.80 L 606.60 336.90 L 614.50 331.40 L 622.70 326.50 L 631.10 322.00 L 639.70 318.10 L 648.60 314.60 L 657.70 311.60 L 666.90 309.20 L 676.20 307.20 L 685.50 305.70 L 695.00 304.60 L 704.30 304.10 L 713.60 304.00 L 722.90 304.40 L 732.20 305.30 L 741.20 306.70 L 750.00 308.50 L 758.60 310.70 L 767.10 313.50 L 775.20 316.70 L 783.00 320.30 L 790.40 324.30 L 797.60 328.90 L 804.30 333.90 L 810.50 339.30 L 816.20 345.10 L 821.10 351.00 L 825.40 357.20 L 829.20 363.70 L 832.50 370.50 L 835.30 377.60 L 837.60 384.90 L 839.30 392.50 L 840.60 400.20 L 841.40 408.00 L 841.70 415.90 L 841.60 424.00 L 840.90 432.10 L 839.90 440.10 L 838.40 448.10 L 836.40 456.10 L 834.00 464.00 L 831.20 471.80 L 828.00 479.40 L 824.30 486.80 L 820.30 494.10 L 815.80 501.10 L 811.00 507.80 L 805.80 514.10 L 800.20 520.20 L 794.20 525.80 L 787.90 531.10 L 781.20 535.80 L 774.20 540.20 L 767.80 543.50 L 761.40 546.20 L 754.90 548.30 L 748.30 549.90 L 741.60 551.00 L 734.90 551.60 L 728.10 551.70 L 721.40 551.40 L 714.70 550.60 L 708.00 549.50 L 701.50 547.90 L 695.00 545.90 L 688.70 543.50 L 676.60 537.80 L 666.20 531.30 L 659.50 526.30 L 653.40 520.90 L 647.70 515.10 L 643.80 510.50 L 637.10 500.80 L 634.40 495.70 L 632.00 490.40 L 630.00 485.00 L 628.50 479.50 L 627.50 473.90 L 626.90 468.20 L 626.90 462.50 L 627.40 456.70 L 628.40 450.70 L 630.00 445.00 L 632.20 439.20 L 635.00 433.20 L 638.60 427.10 L 643.00 420.80 L 647.40 415.20 L 651.90 410.30 L 656.20 406.10 L 660.60 402.60 L 665.00 399.60 L 669.90 396.90 L 674.80 394.80 L 679.70 393.20 L 684.60 392.20 L 689.60 391.80 L 694.70 391.90 L 699.70 392.50 L 704.80 393.50 L 710.00 395.20 L 715.30 397.40 L 720.80 400.10 L 726.50 403.60 L 732.60 407.90 L 738.90 413.10 L 745.40 419.10 L 752.10 426.20 L 759.00 434.20 L 760.60 436.70 L 761.70 439.20 L 762.40 441.90 L 762.60 444.60 L 762.30 447.30 L 761.60 450.00 L 760.40 452.40 L 758.80 454.70 L 756.70 456.80 L 754.20 458.40 L 751.70 459.50 L 749.00 460.20 L 746.30 460.30 L 743.60 460.10 L 741.00 459.30 L 738.50 458.10 L 736.20 456.50 L 722.60 441.30 L 717.60 436.50 L 713.10 432.70 L 709.00 429.70 L 705.30 427.40 L 701.80 425.80 L 698.50 424.70 L 695.50 424.10 L 692.30 423.90 L 689.20 424.20 L 686.10 425.00 L 683.00 426.30 L 680.00 428.20 L 676.60 430.90 L 673.10 434.40 L 669.30 438.90 L 665.50 444.50 L 663.10 448.60 L 661.40 452.60 L 660.30 456.60 L 659.70 460.60 L 659.50 464.70 L 659.80 468.70 L 660.50 472.70 L 661.70 476.70 L 665.20 484.30 L 670.20 491.70 L 674.20 496.20 L 678.70 500.40 L 683.70 504.50 L 689.00 508.00 L 694.60 511.20 L 700.70 514.00 L 706.90 516.30 L 713.20 518.00 L 719.70 519.20 L 724.70 519.70 L 734.50 519.60 L 739.40 519.00 L 744.30 518.00 L 749.00 516.60 L 753.70 514.70 L 758.40 512.40 L 763.60 509.10 L 768.60 505.50 L 773.30 501.60 L 782.00 492.70 L 789.50 482.80 L 792.90 477.50 L 796.90 470.20 L 800.40 462.60 L 803.40 454.70 L 805.80 446.70 L 807.70 438.60 L 808.90 430.60 L 809.60 422.40 L 809.70 414.50 L 809.20 406.70 L 808.40 400.90 L 805.70 390.00 L 803.80 384.80 L 801.60 379.80 L 798.90 375.10 L 795.90 370.70 L 792.50 366.60 L 788.20 362.20 L 783.40 358.20 L 778.30 354.40 L 772.70 351.00 L 766.90 347.90 L 760.80 345.20 L 754.50 342.80 L 740.90 339.10 L 726.80 336.90 L 719.40 336.20 L 704.60 336.10 L 689.60 337.50 L 674.70 340.30 L 660.10 344.60 L 652.90 347.40 L 646.00 350.50 L 639.20 354.00 L 632.70 357.90 L 626.40 362.20 L 620.40 366.90 L 614.70 371.90 L 609.30 377.40 L 604.30 383.20 L 599.70 389.50 L 595.50 396.20 L 591.70 403.30 L 587.90 411.80 L 584.70 420.10 L 582.00 428.30 L 579.90 436.30 L 578.20 444.20 L 577.00 452.30 L 576.30 460.20 L 576.00 468.00 L 576.20 475.50 L 576.90 482.90 L 577.90 490.40 L 579.40 497.60 L 581.30 504.60 L 583.60 511.40 L 586.30 518.00 L 589.30 524.50 L 592.80 530.70 L 596.50 536.70 L 600.70 542.40 L 605.10 547.90 L 609.90 553.10 L 615.00 558.00 L 620.40 562.60 L 626.10 566.90 L 632.10 570.90 L 638.40 574.60 L 644.80 577.80 L 651.60 580.80 L 658.60 583.30 L 666.00 585.50 L 675.60 587.90 L 684.90 589.70 L 693.90 590.90 L 702.60 591.70 L 711.00 592.00 L 719.10 591.80 L 727.00 591.10 L 735.00 590.00 L 742.80 588.40 L 750.50 586.20 L 757.90 583.70 L 765.20 580.60 L 772.40 577.00 L 782.00 571.70 L 784.70 570.90 L 787.40 570.60 L 790.20 570.70 L 792.80 571.40 L 795.30 572.40 L 797.60 573.90 L 799.70 575.80 L 801.40 578.10 L 802.80 580.80 L 803.50 583.40 L 803.80 586.20 L 803.70 588.90 L 803.10 591.50 L 802.00 594.10 L 800.50 596.40 L 798.60 598.40 L 796.30 600.20 L 787.50 605.20 L 778.60 609.70 L 769.50 613.50 L 760.30 616.70 L 750.90 619.30 L 741.20 621.40 L 731.40 622.80 L 721.70 623.70 L 711.70 624.00 L 701.50 623.70 L 691.00 622.80 L 680.20 621.30 L 669.10 619.20 L 657.70 616.40 Z" fill="#5b2500" fill-rule="nonzero" group-id="1,2,7,14" node-id="196" stroke="none" target-height="320" target-width="297.7" target-x="544" target-y="304"></path></g><g node-id="236"><g node-id="243"><g node-id="245"><path d="M 362.00 817.70 L 367.50 818.30 L 377.20 818.40 L 384.20 817.70 L 390.70 816.70 L 410.10 813.20 L 421.60 812.40 L 431.90 813.10 L 437.10 814.10 L 442.90 815.60 L 454.90 819.50 L 468.30 822.60 L 479.10 824.30 L 490.80 825.60 L 502.60 826.50 L 526.20 827.10 L 537.00 826.90 L 556.00 826.00 L 569.10 824.40 L 572.40 823.50 L 573.70 822.90 L 574.30 822.00 L 575.30 821.60 L 578.10 821.40 L 589.00 822.20 L 644.00 829.10 L 663.20 831.00 L 679.70 831.80 L 685.30 831.00 L 691.70 828.50 L 695.90 826.10 L 700.10 823.20 L 704.50 819.70 L 712.70 811.60 L 720.40 802.00 L 726.90 791.70 L 729.70 786.30 L 731.90 781.00 L 733.80 775.80 L 735.10 770.50 L 735.80 765.40 L 736.00 760.70 L 735.60 757.10 L 734.90 753.80 L 733.70 750.80 L 732.20 747.90 L 730.20 745.30 L 727.80 743.00 L 724.70 740.90 L 721.00 739.10 L 717.30 737.70 L 712.80 736.70 L 707.50 736.00 L 701.20 735.80 L 690.60 736.10 L 680.40 737.00 L 670.50 738.40 L 660.70 740.40 L 651.30 742.70 L 642.10 745.30 L 628.60 749.80 L 615.90 754.70 L 570.60 774.30 L 560.60 778.20 L 551.70 781.10 L 545.70 782.60 L 540.30 783.50 L 535.30 783.80 L 518.40 782.80 L 495.50 780.10 L 469.00 776.00 L 440.90 771.10 L 413.50 765.80 L 388.90 760.30 L 369.40 755.30 L 361.80 752.90 L 354.70 750.10 L 347.80 748.60 L 342.00 748.00 L 335.30 747.90 L 328.40 748.20 L 321.30 748.90 L 314.30 750.20 L 307.70 751.80 L 299.80 754.90 L 296.50 756.80 L 293.50 758.90 L 291.20 761.20 L 289.50 763.70 L 288.60 765.80 L 288.10 767.90 L 288.00 770.30 L 288.40 772.90 L 289.20 775.20 L 292.60 780.90 L 295.30 784.20 L 299.30 788.20 L 304.70 792.70 L 311.90 797.90 L 315.60 802.50 L 317.90 804.60 L 323.40 808.10 L 331.00 811.20 L 341.30 814.00 L 350.30 815.80 L 362.00 817.70 Z" fill="#000000" fill-rule="evenodd" filter="url(#filter-11)" group-id="1,2,8,15,17" node-id="204" stroke="none" target-height="96" target-width="448" target-x="288" target-y="735.8"></path></g><g node-id="246"><path d="M 362.00 817.70 L 367.50 818.30 L 377.20 818.40 L 384.20 817.70 L 390.70 816.70 L 410.10 813.20 L 421.60 812.40 L 431.90 813.10 L 437.10 814.10 L 442.90 815.60 L 454.90 819.50 L 468.30 822.60 L 479.10 824.30 L 490.80 825.60 L 502.60 826.50 L 526.20 827.10 L 537.00 826.90 L 556.00 826.00 L 569.10 824.40 L 572.40 823.50 L 573.70 822.90 L 574.30 822.00 L 575.30 821.60 L 578.10 821.40 L 589.00 822.20 L 644.00 829.10 L 663.20 831.00 L 679.70 831.80 L 685.30 831.00 L 691.70 828.50 L 695.90 826.10 L 700.10 823.20 L 704.50 819.70 L 712.70 811.60 L 720.40 802.00 L 726.90 791.70 L 729.70 786.30 L 731.90 781.00 L 733.80 775.80 L 735.10 770.50 L 735.80 765.40 L 736.00 760.70 L 735.60 757.10 L 734.90 753.80 L 733.70 750.80 L 732.20 747.90 L 730.20 745.30 L 727.80 743.00 L 724.70 740.90 L 721.00 739.10 L 717.30 737.70 L 712.80 736.70 L 707.50 736.00 L 701.20 735.80 L 690.60 736.10 L 680.40 737.00 L 670.50 738.40 L 660.70 740.40 L 651.30 742.70 L 642.10 745.30 L 628.60 749.80 L 615.90 754.70 L 570.60 774.30 L 560.60 778.20 L 551.70 781.10 L 545.70 782.60 L 540.30 783.50 L 535.30 783.80 L 518.40 782.80 L 495.50 780.10 L 469.00 776.00 L 440.90 771.10 L 413.50 765.80 L 388.90 760.30 L 369.40 755.30 L 361.80 752.90 L 354.70 750.10 L 347.80 748.60 L 342.00 748.00 L 335.30 747.90 L 328.40 748.20 L 321.30 748.90 L 314.30 750.20 L 307.70 751.80 L 299.80 754.90 L 296.50 756.80 L 293.50 758.90 L 291.20 761.20 L 289.50 763.70 L 288.60 765.80 L 288.10 767.90 L 288.00 770.30 L 288.40 772.90 L 289.20 775.20 L 292.60 780.90 L 295.30 784.20 L 299.30 788.20 L 304.70 792.70 L 311.90 797.90 L 315.60 802.50 L 317.90 804.60 L 323.40 808.10 L 331.00 811.20 L 341.30 814.00 L 350.30 815.80 L 362.00 817.70 Z" fill="#ed1f2a" fill-rule="evenodd" group-id="1,2,8,15,18" node-id="209" stroke="none" target-height="96" target-width="448" target-x="288" target-y="735.8"></path></g><path d="M 362.00 817.70 L 367.50 818.30 L 377.20 818.40 L 384.20 817.70 L 390.70 816.70 L 410.10 813.20 L 421.60 812.40 L 431.90 813.10 L 437.10 814.10 L 442.90 815.60 L 454.90 819.50 L 468.30 822.60 L 479.10 824.30 L 490.80 825.60 L 502.60 826.50 L 526.20 827.10 L 537.00 826.90 L 556.00 826.00 L 569.10 824.40 L 572.40 823.50 L 573.70 822.90 L 574.30 822.00 L 575.30 821.60 L 578.10 821.40 L 589.00 822.20 L 644.00 829.10 L 663.20 831.00 L 679.70 831.80 L 685.30 831.00 L 691.70 828.50 L 695.90 826.10 L 700.10 823.20 L 704.50 819.70 L 712.70 811.60 L 720.40 802.00 L 726.90 791.70 L 729.70 786.30 L 731.90 781.00 L 733.80 775.80 L 735.10 770.50 L 735.80 765.40 L 736.00 760.70 L 735.60 757.10 L 734.90 753.80 L 733.70 750.80 L 732.20 747.90 L 730.20 745.30 L 727.80 743.00 L 724.70 740.90 L 721.00 739.10 L 717.30 737.70 L 712.80 736.70 L 707.50 736.00 L 701.20 735.80 L 690.60 736.10 L 680.40 737.00 L 670.50 738.40 L 660.70 740.40 L 651.30 742.70 L 642.10 745.30 L 628.60 749.80 L 615.90 754.70 L 570.60 774.30 L 560.60 778.20 L 551.70 781.10 L 545.70 782.60 L 540.30 783.50 L 535.30 783.80 L 518.40 782.80 L 495.50 780.10 L 469.00 776.00 L 440.90 771.10 L 413.50 765.80 L 388.90 760.30 L 369.40 755.30 L 361.80 752.90 L 354.70 750.10 L 347.80 748.60 L 342.00 748.00 L 335.30 747.90 L 328.40 748.20 L 321.30 748.90 L 314.30 750.20 L 307.70 751.80 L 299.80 754.90 L 296.50 756.80 L 293.50 758.90 L 291.20 761.20 L 289.50 763.70 L 288.60 765.80 L 288.10 767.90 L 288.00 770.30 L 288.40 772.90 L 289.20 775.20 L 292.60 780.90 L 295.30 784.20 L 299.30 788.20 L 304.70 792.70 L 311.90 797.90 L 315.60 802.50 L 317.90 804.60 L 323.40 808.10 L 331.00 811.20 L 341.30 814.00 L 350.30 815.80 L 362.00 817.70 Z" fill="#000000" fill-rule="evenodd" filter="url(#filter-12)" group-id="1,2,8,15,19" node-id="214" stroke="none" target-height="96" target-width="448" target-x="288" target-y="735.8"></path></g><path d="M 637.70 783.80 L 658.10 784.60 L 677.40 786.80 L 695.40 790.40 L 704.10 792.80 L 720.00 798.20 L 713.60 806.80 L 710.00 810.90 L 706.10 814.90 L 698.10 821.70 L 693.90 824.60 L 685.80 829.00 L 681.60 830.60 L 677.80 831.50 L 674.10 831.80 L 657.90 831.10 L 638.90 829.40 L 584.70 823.50 L 573.80 822.80 L 571.10 823.00 L 570.10 823.30 L 569.50 824.00 L 568.30 824.60 L 565.10 825.30 L 552.40 826.70 L 533.90 827.60 L 512.00 827.60 L 516.00 823.00 L 520.70 818.50 L 526.00 814.20 L 532.20 809.90 L 538.50 806.10 L 545.40 802.60 L 553.00 799.20 L 561.20 796.00 L 569.40 793.30 L 578.10 790.90 L 587.30 788.80 L 597.00 787.00 L 606.60 785.60 L 616.60 784.60 L 627.00 784.00 L 637.70 783.80 Z" fill="url(#linearGradient-13)" fill-rule="evenodd" group-id="1,2,8" id="形状结合" node-id="68" stroke="none" target-height="48" target-width="208" target-x="512" target-y="783.8"></path><g node-id="244"><g node-id="248"><path d="M 362.00 817.70 L 367.50 818.30 L 377.20 818.40 L 384.20 817.70 L 390.70 816.70 L 410.10 813.20 L 421.60 812.40 L 431.90 813.10 L 437.10 814.10 L 442.90 815.60 L 454.90 819.50 L 468.30 822.60 L 479.10 824.30 L 490.80 825.60 L 502.60 826.50 L 526.20 827.10 L 537.00 826.90 L 556.00 826.00 L 569.10 824.40 L 572.40 823.50 L 573.70 822.90 L 574.30 822.00 L 575.30 821.60 L 578.10 821.40 L 589.00 822.20 L 644.00 829.10 L 663.20 831.00 L 679.70 831.80 L 685.30 831.00 L 691.70 828.50 L 695.90 826.10 L 700.10 823.20 L 704.50 819.70 L 712.70 811.60 L 720.40 802.00 L 726.90 791.70 L 729.70 786.30 L 731.90 781.00 L 733.80 775.80 L 735.10 770.50 L 735.80 765.40 L 736.00 760.70 L 735.60 757.10 L 734.90 753.80 L 733.70 750.80 L 732.20 747.90 L 730.20 745.30 L 727.80 743.00 L 724.70 740.90 L 721.00 739.10 L 717.30 737.70 L 712.80 736.70 L 707.50 736.00 L 701.20 735.80 L 690.60 736.10 L 680.40 737.00 L 670.50 738.40 L 660.70 740.40 L 651.30 742.70 L 642.10 745.30 L 628.60 749.80 L 615.90 754.70 L 570.60 774.30 L 560.60 778.20 L 551.70 781.10 L 545.70 782.60 L 540.30 783.50 L 535.30 783.80 L 518.40 782.80 L 495.50 780.10 L 469.00 776.00 L 440.90 771.10 L 413.50 765.80 L 388.90 760.30 L 369.40 755.30 L 361.80 752.90 L 354.70 750.10 L 347.80 748.60 L 342.00 748.00 L 335.30 747.90 L 328.40 748.20 L 321.30 748.90 L 314.30 750.20 L 307.70 751.80 L 299.80 754.90 L 296.50 756.80 L 293.50 758.90 L 291.20 761.20 L 289.50 763.70 L 288.60 765.80 L 288.10 767.90 L 288.00 770.30 L 288.40 772.90 L 289.20 775.20 L 292.60 780.90 L 295.30 784.20 L 299.30 788.20 L 304.70 792.70 L 311.90 797.90 L 315.60 802.50 L 317.90 804.60 L 323.40 808.10 L 331.00 811.20 L 341.30 814.00 L 350.30 815.80 L 362.00 817.70 Z" fill="#000000" fill-rule="evenodd" filter="url(#filter-15)" group-id="1,2,8,16,20" node-id="222" stroke="none" target-height="96" target-width="448" target-x="288" target-y="735.8"></path></g><path d="M 362.00 817.70 L 367.50 818.30 L 377.20 818.40 L 384.20 817.70 L 390.70 816.70 L 410.10 813.20 L 421.60 812.40 L 431.90 813.10 L 437.10 814.10 L 442.90 815.60 L 454.90 819.50 L 468.30 822.60 L 479.10 824.30 L 490.80 825.60 L 502.60 826.50 L 526.20 827.10 L 537.00 826.90 L 556.00 826.00 L 569.10 824.40 L 572.40 823.50 L 573.70 822.90 L 574.30 822.00 L 575.30 821.60 L 578.10 821.40 L 589.00 822.20 L 644.00 829.10 L 663.20 831.00 L 679.70 831.80 L 685.30 831.00 L 691.70 828.50 L 695.90 826.10 L 700.10 823.20 L 704.50 819.70 L 712.70 811.60 L 720.40 802.00 L 726.90 791.70 L 729.70 786.30 L 731.90 781.00 L 733.80 775.80 L 735.10 770.50 L 735.80 765.40 L 736.00 760.70 L 735.60 757.10 L 734.90 753.80 L 733.70 750.80 L 732.20 747.90 L 730.20 745.30 L 727.80 743.00 L 724.70 740.90 L 721.00 739.10 L 717.30 737.70 L 712.80 736.70 L 707.50 736.00 L 701.20 735.80 L 690.60 736.10 L 680.40 737.00 L 670.50 738.40 L 660.70 740.40 L 651.30 742.70 L 642.10 745.30 L 628.60 749.80 L 615.90 754.70 L 570.60 774.30 L 560.60 778.20 L 551.70 781.10 L 545.70 782.60 L 540.30 783.50 L 535.30 783.80 L 518.40 782.80 L 495.50 780.10 L 469.00 776.00 L 440.90 771.10 L 413.50 765.80 L 388.90 760.30 L 369.40 755.30 L 361.80 752.90 L 354.70 750.10 L 347.80 748.60 L 342.00 748.00 L 335.30 747.90 L 328.40 748.20 L 321.30 748.90 L 314.30 750.20 L 307.70 751.80 L 299.80 754.90 L 296.50 756.80 L 293.50 758.90 L 291.20 761.20 L 289.50 763.70 L 288.60 765.80 L 288.10 767.90 L 288.00 770.30 L 288.40 772.90 L 289.20 775.20 L 292.60 780.90 L 295.30 784.20 L 299.30 788.20 L 304.70 792.70 L 311.90 797.90 L 315.60 802.50 L 317.90 804.60 L 323.40 808.10 L 331.00 811.20 L 341.30 814.00 L 350.30 815.80 L 362.00 817.70 Z" fill="none" group-id="1,2,8,16,21" node-id="227" stroke="#ad371e" stroke-linecap="butt" stroke-width="8" target-height="96" target-width="448" target-x="288" target-y="735.8"></path></g></g></g></g></svg>