<?xml version="1.0" standalone="no"?><!DOCTYPE svg PUBLIC "-//W3C//DTD SVG 1.1//EN" "http://www.w3.org/Graphics/SVG/1.1/DTD/svg11.dtd"><svg height="1024" node-id="1" sillyvg="true" template-height="1024" template-width="1040" version="1.1" viewBox="0 0 1040 1024" width="1040" xmlns="http://www.w3.org/2000/svg" xmlns:xlink="http://www.w3.org/1999/xlink"><defs node-id="155"><linearGradient gradientUnits="objectBoundingBox" id="linearGradient-1" node-id="5" spreadMethod="pad" x1="0.44300702" x2="0.5121769" y1="0.10276583" y2="0.42184636"><stop offset="0" stop-color="#ff737b"></stop><stop offset="1" stop-color="#ec0030"></stop></linearGradient><linearGradient gradientUnits="objectBoundingBox" id="linearGradient-3" node-id="9" spreadMethod="pad" x1="0.54933375" x2="0.41411182" y1="0.17007938" y2="0.704173"><stop offset="0" stop-color="#ff737b"></stop><stop offset="1" stop-color="#ec0030"></stop></linearGradient><linearGradient gradientUnits="objectBoundingBox" id="linearGradient-14" node-id="44" spreadMethod="pad" x1="0.5" x2="0.5" y1="0.1186253" y2="1"><stop offset="0" stop-color="#ff8b9f"></stop><stop offset="1" stop-color="#ff5166"></stop></linearGradient><linearGradient gradientUnits="objectBoundingBox" id="linearGradient-21" node-id="65" spreadMethod="pad" x1="0.5" x2="0.5" y1="0.28134015" y2="1"><stop offset="0" stop-color="#ff737b"></stop><stop offset="1" stop-color="#ec0030"></stop></linearGradient><radialGradient cx="0.5" cy="0.1966899" fx="0.5" fy="0.1966899" gradientUnits="objectBoundingBox" id="radialGradient-6" node-id="17" r="0.9393923" rev="3" spreadMethod="pad"><stop offset="0" stop-color="#ffe476"></stop><stop offset="0.41387266" stop-color="#fcec6c"></stop><stop offset="1" stop-color="#ffb02f"></stop></radialGradient><radialGradient cx="0.5" cy="0" fx="0.5" fy="0" gradientUnits="objectBoundingBox" id="radialGradient1" node-id="189" r="0.98521996" rev="2" spreadMethod="pad"><stop offset="0" stop-color="#ffe476"></stop><stop offset="0.41387266" stop-color="#fff287"></stop><stop offset="1" stop-color="#ffb02f"></stop></radialGradient><radialGradient cx="0.5" cy="0" fx="0.5" fy="0" gradientUnits="objectBoundingBox" id="radialGradient-28" node-id="83" r="0.98521996" rev="1" spreadMethod="pad"><stop offset="0" stop-color="#ffe476"></stop><stop offset="0.41387266" stop-color="#fff287"></stop><stop offset="1" stop-color="#ffb02f"></stop></radialGradient><filter height="255.93599" id="filter-5" node-id="13" width="190.10849" x="43.175148" y="-15.936001"><feOffset color-interpolation-filters="linearRGB" dx="0" dy="16" in="SourceAlpha" result="shadowOffsetOuter1"></feOffset><feGaussianBlur color-interpolation-filters="linearRGB" in="shadowOffsetOuter1" result="shadowBlurOuter1" stdDeviation="8 8"></feGaussianBlur><feColorMatrix color-interpolation-filters="linearRGB" in="shadowBlurOuter1" result="result3" type="matrix" values="0 0 0 0 0.96566814 0 0 0 0 0.5807407 0 0 0 0 0.62913156 0 0 0 0.61585754 0"></feColorMatrix></filter><filter height="975.936" id="filter-8" node-id="22" width="1056.096" x="-8.048008" y="23.616005"><feGaussianBlur color-interpolation-filters="linearRGB" in="SourceAlpha" result="shadowBlurInner1" stdDeviation="64 64"></feGaussianBlur><feOffset color-interpolation-filters="linearRGB" dx="0" dy="16" in="shadowBlurInner1" result="shadowOffsetInner1"></feOffset><feComposite color-interpolation-filters="linearRGB" in="shadowOffsetInner1" in2="SourceAlpha" k1="0" k2="-1" k3="1" k4="0" operator="arithmetic" result="shadowInnerInner1"></feComposite><feColorMatrix color-interpolation-filters="linearRGB" in="shadowInnerInner1" result="result4" type="matrix" values="0 0 0 0 0.96862745 0 0 0 0 0.6862745 0 0 0 0 0.27058825 0 0 0 0.5011456 0"></feColorMatrix></filter><filter height="448" id="filter-9" node-id="27" width="463.93604" x="528.032" y="360"><feGaussianBlur color-interpolation-filters="linearRGB" in="SourceGraphic" result="result1" stdDeviation="48 48"></feGaussianBlur></filter><filter height="448" id="filter-10" node-id="29" width="463.93604" x="48.031998" y="360"><feGaussianBlur color-interpolation-filters="linearRGB" in="SourceGraphic" result="result1" stdDeviation="48 48"></feGaussianBlur></filter><filter height="300.29333" id="filter-11" node-id="31" width="235.98398" x="-62.048004" y="-62.068848"><feOffset color-interpolation-filters="linearRGB" dx="0" dy="0" in="SourceAlpha" result="shadowOffsetOuter1"></feOffset><feGaussianBlur color-interpolation-filters="linearRGB" in="shadowOffsetOuter1" result="shadowBlurOuter1" stdDeviation="16 16"></feGaussianBlur><feColorMatrix color-interpolation-filters="linearRGB" in="shadowBlurOuter1" result="shadowMatrixOuter1" type="matrix" values="0 0 0 0 1 0 0 0 0 0.9485037 0 0 0 0 0.56682485 0 0 0 1 0"></feColorMatrix><feMerge color-interpolation-filters="linearRGB" result="result4"><feMergeNode in="shadowMatrixOuter1"></feMergeNode><feMergeNode in="SourceGraphic"></feMergeNode></feMerge></filter><filter height="192.01599" id="filter-13" node-id="39" width="128.016" x="-7.952" y="-7.92"><feGaussianBlur color-interpolation-filters="linearRGB" in="SourceAlpha" result="shadowBlurInner1" stdDeviation="8 8"></feGaussianBlur><feOffset color-interpolation-filters="linearRGB" dx="0" dy="0" in="shadowBlurInner1" result="shadowOffsetInner1"></feOffset><feComposite color-interpolation-filters="linearRGB" in="shadowOffsetInner1" in2="SourceAlpha" k1="0" k2="-1" k3="1" k4="0" operator="arithmetic" result="shadowInnerInner1"></feComposite><feColorMatrix color-interpolation-filters="linearRGB" in="shadowInnerInner1" result="result4" type="matrix" values="0 0 0 0 0.6612584 0 0 0 0 0.08722547 0 0 0 0 0.009827761 0 0 0 1 0"></feColorMatrix></filter><filter height="192.01599" id="filter-16" node-id="48" width="128.016" x="-7.9519997" y="-7.92"><feGaussianBlur color-interpolation-filters="linearRGB" in="SourceAlpha" result="shadowBlurInner1" stdDeviation="8 8"></feGaussianBlur><feOffset color-interpolation-filters="linearRGB" dx="0" dy="0" in="shadowBlurInner1" result="shadowOffsetInner1"></feOffset><feComposite color-interpolation-filters="linearRGB" in="shadowOffsetInner1" in2="SourceAlpha" k1="0" k2="-1" k3="1" k4="0" operator="arithmetic" result="shadowInnerInner1"></feComposite><feColorMatrix color-interpolation-filters="linearRGB" in="shadowInnerInner1" result="result4" type="matrix" values="0 0 0 0 0.6612584 0 0 0 0 0.08722547 0 0 0 0 0.009827761 0 0 0 1 0"></feColorMatrix></filter><filter height="165.93256" id="filter-18" node-id="54" width="190.03296" x="289.4265" y="346.67743"><feGaussianBlur color-interpolation-filters="linearRGB" in="SourceAlpha" result="shadowBlurInner1" stdDeviation="8 8"></feGaussianBlur><feOffset color-interpolation-filters="linearRGB" dx="0" dy="16" in="shadowBlurInner1" result="shadowOffsetInner1"></feOffset><feComposite color-interpolation-filters="linearRGB" in="shadowOffsetInner1" in2="SourceAlpha" k1="0" k2="-1" k3="1" k4="0" operator="arithmetic" result="shadowInnerInner1"></feComposite><feColorMatrix color-interpolation-filters="linearRGB" in="shadowInnerInner1" result="result4" type="matrix" values="0 0 0 0 0.17219079 0 0 0 0 0.07073995 0 0 0 0 0.0012273269 0 0 0 0.58074826 0"></feColorMatrix></filter><filter height="165.93256" id="filter-20" node-id="60" width="190.03296" x="545.4266" y="346.67743"><feGaussianBlur color-interpolation-filters="linearRGB" in="SourceAlpha" result="shadowBlurInner1" stdDeviation="8 8"></feGaussianBlur><feOffset color-interpolation-filters="linearRGB" dx="0" dy="16" in="shadowBlurInner1" result="shadowOffsetInner1"></feOffset><feComposite color-interpolation-filters="linearRGB" in="shadowOffsetInner1" in2="SourceAlpha" k1="0" k2="-1" k3="1" k4="0" operator="arithmetic" result="shadowInnerInner1"></feComposite><feColorMatrix color-interpolation-filters="linearRGB" in="shadowInnerInner1" result="result4" type="matrix" values="0 0 0 0 0.17219079 0 0 0 0 0.07073995 0 0 0 0 0.0012273269 0 0 0 0.58074826 0"></feColorMatrix></filter><filter height="223.32619" id="filter-23" node-id="69" width="784.6615" x="133.65689" y="180.70723"><feOffset color-interpolation-filters="linearRGB" dx="0" dy="16" in="SourceAlpha" result="shadowOffsetOuter1"></feOffset><feGaussianBlur color-interpolation-filters="linearRGB" in="shadowOffsetOuter1" result="shadowBlurOuter1" stdDeviation="16 16"></feGaussianBlur><feColorMatrix color-interpolation-filters="linearRGB" in="shadowBlurOuter1" result="result3" type="matrix" values="0 0 0 0 0.96566814 0 0 0 0 0.5807407 0 0 0 0 0.62913156 0 0 0 0.61585754 0"></feColorMatrix></filter><filter height="272.04794" id="filter-25" node-id="74" width="272.04797" x="256.03198" y="416.048"><feOffset color-interpolation-filters="linearRGB" dx="0" dy="16" in="SourceAlpha" result="shadowOffsetOuter1"></feOffset><feGaussianBlur color-interpolation-filters="linearRGB" in="shadowOffsetOuter1" result="shadowBlurOuter1" stdDeviation="24 24"></feGaussianBlur><feColorMatrix color-interpolation-filters="linearRGB" in="shadowBlurOuter1" result="result3" type="matrix" values="0 0 0 0 0.88884836 0 0 0 0 0.59170264 0 0 0 0 0.17878589 0 0 0 1 0"></feColorMatrix></filter><filter height="272.04794" id="filter-27" node-id="79" width="272.04797" x="496.03198" y="416.048"><feOffset color-interpolation-filters="linearRGB" dx="0" dy="16" in="SourceAlpha" result="shadowOffsetOuter1"></feOffset><feGaussianBlur color-interpolation-filters="linearRGB" in="shadowOffsetOuter1" result="shadowBlurOuter1" stdDeviation="24 24"></feGaussianBlur><feColorMatrix color-interpolation-filters="linearRGB" in="shadowBlurOuter1" result="result3" type="matrix" values="0 0 0 0 0.88884836 0 0 0 0 0.59170264 0 0 0 0 0.17878589 0 0 0 1 0"></feColorMatrix></filter><filter height="416" id="filter-30" node-id="88" width="416" x="-55.983994" y="520"><feOffset color-interpolation-filters="linearRGB" dx="16" dy="0" in="SourceAlpha" result="shadowOffsetOuter1"></feOffset><feGaussianBlur color-interpolation-filters="linearRGB" in="shadowOffsetOuter1" result="shadowBlurOuter1" stdDeviation="32 32"></feGaussianBlur><feColorMatrix color-interpolation-filters="linearRGB" in="shadowBlurOuter1" result="result3" type="matrix" values="0 0 0 0 0.88884836 0 0 0 0 0.59170264 0 0 0 0 0.17878589 0 0 0 1 0"></feColorMatrix></filter><filter height="383.96802" id="filter-31" node-id="92" width="383.96802" x="-39.967995" y="536.016"><feGaussianBlur color-interpolation-filters="linearRGB" in="SourceAlpha" result="shadowBlurInner1" stdDeviation="16 16"></feGaussianBlur><feOffset color-interpolation-filters="linearRGB" dx="0" dy="16" in="shadowBlurInner1" result="shadowOffsetInner1"></feOffset><feComposite color-interpolation-filters="linearRGB" in="shadowOffsetInner1" in2="SourceAlpha" k1="0" k2="-1" k3="1" k4="0" operator="arithmetic" result="shadowInnerInner1"></feComposite><feColorMatrix color-interpolation-filters="linearRGB" in="shadowInnerInner1" result="result4" type="matrix" values="0 0 0 0 1 0 0 0 0 0.7527772 0 0 0 0 0.1876965 0 0 0 0.75659436 0"></feColorMatrix></filter><filter height="399.98395" id="filter-33" node-id="98" width="399.984" x="591.904" y="655.904"><feOffset color-interpolation-filters="linearRGB" dx="0" dy="0" in="SourceAlpha" result="shadowOffsetOuter1"></feOffset><feGaussianBlur color-interpolation-filters="linearRGB" in="shadowOffsetOuter1" result="shadowBlurOuter1" stdDeviation="32 32"></feGaussianBlur><feColorMatrix color-interpolation-filters="linearRGB" in="shadowBlurOuter1" result="result3" type="matrix" values="0 0 0 0 0.88884836 0 0 0 0 0.59170264 0 0 0 0 0.17878589 0 0 0 1 0"></feColorMatrix></filter><filter height="383.96802" id="filter-34" node-id="102" width="383.96802" x="600.016" y="664.016"><feGaussianBlur color-interpolation-filters="linearRGB" in="SourceAlpha" result="shadowBlurInner1" stdDeviation="16 16"></feGaussianBlur><feOffset color-interpolation-filters="linearRGB" dx="0" dy="16" in="shadowBlurInner1" result="shadowOffsetInner1"></feOffset><feComposite color-interpolation-filters="linearRGB" in="shadowOffsetInner1" in2="SourceAlpha" k1="0" k2="-1" k3="1" k4="0" operator="arithmetic" result="shadowInnerInner1"></feComposite><feColorMatrix color-interpolation-filters="linearRGB" in="shadowInnerInner1" result="result4" type="matrix" values="0 0 0 0 1 0 0 0 0 0.7527772 0 0 0 0 0.1876965 0 0 0 0.75659436 0"></feColorMatrix></filter></defs><g node-id="518"><g node-id="519"><path d="M 16.00 0.00 L 1040.00 0.00 L 1040.00 1024.00 L 16.00 1024.00 Z" fill="none" group-id="1,2" id="矩形备份-4" node-id="110" stroke="none" target-height="1024" target-width="1024" target-x="16" target-y="0"></path><g node-id="522"><g node-id="538"><g node-id="554"><path d="M 768.20 275.40 L 813.40 265.40 L 847.90 258.30 L 873.60 253.50 L 892.00 250.60 L 904.80 248.90 L 913.20 248.30 L 918.40 248.40 L 921.30 248.80 L 922.80 249.50 L 923.40 250.20 L 925.30 257.00 L 927.50 268.50 L 930.50 290.20 L 931.70 304.70 L 931.70 316.90 L 931.20 321.10 L 930.60 323.70 L 929.80 325.10 L 928.90 325.80 L 927.20 326.00 L 922.20 325.90 L 911.10 324.90 L 890.10 322.20 L 854.60 317.20 L 799.20 308.70 L 717.40 295.50 L 768.20 275.40 Z" fill="#d8d8d8" fill-rule="evenodd" group-id="1,2,5,21,37" node-id="356" stroke="none" target-height="77.7" target-width="214.29999" target-x="717.4" target-y="248.3"></path></g><path d="M 768.20 275.40 L 813.40 265.40 L 847.90 258.30 L 873.60 253.50 L 892.00 250.60 L 904.80 248.90 L 913.20 248.30 L 918.40 248.40 L 921.30 248.80 L 922.80 249.50 L 923.40 250.20 L 925.30 257.00 L 927.50 268.50 L 930.50 290.20 L 931.70 304.70 L 931.70 316.90 L 931.20 321.10 L 930.60 323.70 L 929.80 325.10 L 928.90 325.80 L 927.20 326.00 L 922.20 325.90 L 911.10 324.90 L 890.10 322.20 L 854.60 317.20 L 799.20 308.70 L 717.40 295.50 L 768.20 275.40 Z" fill="url(#linearGradient-1)" fill-rule="evenodd" group-id="1,2,5,21,38" node-id="361" stroke="none" target-height="77.7" target-width="214.29999" target-x="717.4" target-y="248.3"></path></g><g node-id="539"><g node-id="556"><path d="M 792.60 281.50 L 798.20 248.50 L 803.00 222.40 L 807.20 202.30 L 810.90 187.10 L 814.10 176.10 L 816.80 168.30 L 819.10 163.00 L 821.00 159.70 L 822.60 157.80 L 823.90 156.80 L 825.10 156.50 L 827.90 156.70 L 845.10 159.70 L 860.30 163.10 L 884.80 169.60 L 899.80 174.50 L 911.50 179.40 L 915.30 181.50 L 917.40 183.20 L 918.50 184.60 L 918.80 185.70 L 918.40 187.30 L 916.60 190.80 L 912.40 197.50 L 904.30 209.00 L 890.50 227.40 L 868.90 254.90 L 837.20 294.30 L 792.60 348.50 L 792.60 281.50 Z" fill="#000000" fill-rule="evenodd" filter="url(#filter-5)" group-id="1,2,5,22,39" node-id="368" stroke="none" target-height="192" target-width="126.20001" target-x="792.6" target-y="156.5"></path></g><g node-id="557"><path d="M 792.60 281.50 L 798.20 248.50 L 803.00 222.40 L 807.20 202.30 L 810.90 187.10 L 814.10 176.10 L 816.80 168.30 L 819.10 163.00 L 821.00 159.70 L 822.60 157.80 L 823.90 156.80 L 825.10 156.50 L 827.90 156.70 L 845.10 159.70 L 860.30 163.10 L 884.80 169.60 L 899.80 174.50 L 911.50 179.40 L 915.30 181.50 L 917.40 183.20 L 918.50 184.60 L 918.80 185.70 L 918.40 187.30 L 916.60 190.80 L 912.40 197.50 L 904.30 209.00 L 890.50 227.40 L 868.90 254.90 L 837.20 294.30 L 792.60 348.50 L 792.60 281.50 Z" fill="#d8d8d8" fill-rule="evenodd" group-id="1,2,5,22,40" node-id="373" stroke="none" target-height="192" target-width="126.20001" target-x="792.6" target-y="156.5"></path></g><path d="M 792.60 281.50 L 798.20 248.50 L 803.00 222.40 L 807.20 202.30 L 810.90 187.10 L 814.10 176.10 L 816.80 168.30 L 819.10 163.00 L 821.00 159.70 L 822.60 157.80 L 823.90 156.80 L 825.10 156.50 L 827.90 156.70 L 845.10 159.70 L 860.30 163.10 L 884.80 169.60 L 899.80 174.50 L 911.50 179.40 L 915.30 181.50 L 917.40 183.20 L 918.50 184.60 L 918.80 185.70 L 918.40 187.30 L 916.60 190.80 L 912.40 197.50 L 904.30 209.00 L 890.50 227.40 L 868.90 254.90 L 837.20 294.30 L 792.60 348.50 L 792.60 281.50 Z" fill="url(#linearGradient-3)" fill-rule="evenodd" group-id="1,2,5,22,41" node-id="378" stroke="none" target-height="192" target-width="126.20001" target-x="792.6" target-y="156.5"></path></g></g><g node-id="523"><g node-id="540"><path d="M 502.90 96.40 L 517.30 96.00 L 531.40 96.30 L 545.20 97.10 L 558.80 98.60 L 572.10 100.60 L 585.40 103.30 L 598.50 106.40 L 611.10 110.20 L 623.50 114.40 L 635.60 119.20 L 647.50 124.60 L 659.10 130.50 L 670.30 136.80 L 681.10 143.60 L 691.60 150.90 L 701.80 158.80 L 711.50 167.00 L 720.90 175.70 L 729.80 184.80 L 738.40 194.30 L 746.40 204.30 L 754.00 214.60 L 761.20 225.30 L 767.80 236.50 L 774.00 248.10 L 785.40 253.30 L 796.50 259.00 L 807.50 265.00 L 818.40 271.40 L 829.10 278.30 L 842.20 287.20 L 854.90 296.70 L 867.30 306.80 L 879.30 317.30 L 888.50 326.10 L 897.50 335.20 L 906.10 344.60 L 914.50 354.20 L 922.50 364.20 L 930.10 374.40 L 937.40 384.80 L 944.30 395.50 L 950.80 406.40 L 956.90 417.60 L 962.50 429.00 L 967.70 440.60 L 972.40 452.30 L 976.70 464.30 L 980.50 476.40 L 983.80 488.70 L 986.50 501.20 L 988.70 513.80 L 990.30 526.60 L 991.50 539.60 L 992.00 552.50 L 991.90 565.50 L 991.20 578.80 L 989.80 592.20 L 987.80 605.70 L 985.00 620.60 L 981.80 635.00 L 978.10 648.90 L 974.00 662.40 L 969.50 675.50 L 964.60 688.20 L 959.20 700.90 L 953.30 713.20 L 947.10 725.10 L 940.50 736.60 L 933.50 747.70 L 926.20 758.50 L 918.30 769.10 L 910.10 779.30 L 901.60 789.10 L 892.70 798.60 L 883.40 807.80 L 873.80 816.60 L 863.90 825.10 L 853.60 833.20 L 842.90 841.00 L 832.00 848.40 L 820.60 855.60 L 800.20 867.80 L 790.80 873.10 L 780.80 878.20 L 770.10 883.20 L 759.50 887.80 L 748.10 892.20 L 735.90 896.50 L 722.80 900.60 L 696.20 907.70 L 681.50 911.00 L 650.40 916.80 L 616.50 921.50 L 597.80 923.50 L 576.70 925.40 L 556.00 926.80 L 535.60 927.60 L 515.60 928.00 L 496.00 927.90 L 476.20 927.30 L 456.80 926.10 L 437.90 924.50 L 419.40 922.50 L 401.40 919.90 L 383.20 916.70 L 365.60 913.10 L 348.40 909.00 L 331.80 904.40 L 315.70 899.30 L 302.20 894.60 L 289.10 889.50 L 276.40 884.10 L 264.10 878.40 L 252.20 872.30 L 240.60 865.90 L 229.10 859.00 L 218.10 851.80 L 207.40 844.20 L 197.20 836.30 L 187.30 828.00 L 177.80 819.30 L 168.70 810.30 L 160.00 800.90 L 151.60 791.10 L 143.70 780.90 L 136.20 770.40 L 129.10 759.40 L 122.60 748.20 L 116.40 736.60 L 110.70 724.60 L 105.50 712.20 L 100.60 699.20 L 96.20 685.80 L 92.50 672.50 L 89.20 658.70 L 86.30 644.40 L 84.00 629.60 L 82.20 614.20 L 80.80 598.20 L 80.10 583.10 L 80.00 568.60 L 80.50 554.60 L 81.40 541.20 L 82.90 528.40 L 84.90 515.30 L 87.40 502.70 L 90.40 490.60 L 93.80 479.00 L 97.70 467.80 L 102.20 456.60 L 107.10 445.90 L 112.30 435.50 L 118.10 425.60 L 124.20 416.00 L 130.80 406.60 L 137.70 397.60 L 145.10 388.90 L 152.80 380.60 L 161.00 372.50 L 169.50 364.80 L 178.30 357.40 L 187.50 350.30 L 197.00 343.40 L 207.00 336.90 L 209.90 323.40 L 213.20 310.50 L 216.80 298.00 L 220.80 286.10 L 225.20 274.60 L 229.80 263.60 L 234.80 253.10 L 240.40 242.40 L 246.30 232.20 L 252.40 222.40 L 258.90 213.10 L 265.70 204.10 L 272.90 195.60 L 280.30 187.40 L 289.50 178.20 L 299.00 169.50 L 309.00 161.30 L 319.40 153.60 L 330.20 146.30 L 341.40 139.60 L 352.90 133.40 L 364.70 127.70 L 377.00 122.40 L 389.60 117.60 L 402.70 113.20 L 416.30 109.30 L 429.70 106.00 L 443.50 103.20 L 457.70 100.80 L 472.30 98.90 L 487.40 97.40 L 502.90 96.40 Z" fill="url(#radialGradient-6)" fill-rule="evenodd" group-id="1,2,6,23" node-id="386" stroke="none" target-height="832" target-width="912" target-x="80" target-y="96"></path></g><path d="M 502.90 96.40 L 517.30 96.00 L 531.40 96.30 L 545.20 97.10 L 558.80 98.60 L 572.10 100.60 L 585.40 103.30 L 598.50 106.40 L 611.10 110.20 L 623.50 114.40 L 635.60 119.20 L 647.50 124.60 L 659.10 130.50 L 670.30 136.80 L 681.10 143.60 L 691.60 150.90 L 701.80 158.80 L 711.50 167.00 L 720.90 175.70 L 729.80 184.80 L 738.40 194.30 L 746.40 204.30 L 754.00 214.60 L 761.20 225.30 L 767.80 236.50 L 774.00 248.10 L 785.40 253.30 L 796.50 259.00 L 807.50 265.00 L 818.40 271.40 L 829.10 278.30 L 842.20 287.20 L 854.90 296.70 L 867.30 306.80 L 879.30 317.30 L 888.50 326.10 L 897.50 335.20 L 906.10 344.60 L 914.50 354.20 L 922.50 364.20 L 930.10 374.40 L 937.40 384.80 L 944.30 395.50 L 950.80 406.40 L 956.90 417.60 L 962.50 429.00 L 967.70 440.60 L 972.40 452.30 L 976.70 464.30 L 980.50 476.40 L 983.80 488.70 L 986.50 501.20 L 988.70 513.80 L 990.30 526.60 L 991.50 539.60 L 992.00 552.50 L 991.90 565.50 L 991.20 578.80 L 989.80 592.20 L 987.80 605.70 L 985.00 620.60 L 981.80 635.00 L 978.10 648.90 L 974.00 662.40 L 969.50 675.50 L 964.60 688.20 L 959.20 700.90 L 953.30 713.20 L 947.10 725.10 L 940.50 736.60 L 933.50 747.70 L 926.20 758.50 L 918.30 769.10 L 910.10 779.30 L 901.60 789.10 L 892.70 798.60 L 883.40 807.80 L 873.80 816.60 L 863.90 825.10 L 853.60 833.20 L 842.90 841.00 L 832.00 848.40 L 820.60 855.60 L 800.20 867.80 L 790.80 873.10 L 780.80 878.20 L 770.10 883.20 L 759.50 887.80 L 748.10 892.20 L 735.90 896.50 L 722.80 900.60 L 696.20 907.70 L 681.50 911.00 L 650.40 916.80 L 616.50 921.50 L 597.80 923.50 L 576.70 925.40 L 556.00 926.80 L 535.60 927.60 L 515.60 928.00 L 496.00 927.90 L 476.20 927.30 L 456.80 926.10 L 437.90 924.50 L 419.40 922.50 L 401.40 919.90 L 383.20 916.70 L 365.60 913.10 L 348.40 909.00 L 331.80 904.40 L 315.70 899.30 L 302.20 894.60 L 289.10 889.50 L 276.40 884.10 L 264.10 878.40 L 252.20 872.30 L 240.60 865.90 L 229.10 859.00 L 218.10 851.80 L 207.40 844.20 L 197.20 836.30 L 187.30 828.00 L 177.80 819.30 L 168.70 810.30 L 160.00 800.90 L 151.60 791.10 L 143.70 780.90 L 136.20 770.40 L 129.10 759.40 L 122.60 748.20 L 116.40 736.60 L 110.70 724.60 L 105.50 712.20 L 100.60 699.20 L 96.20 685.80 L 92.50 672.50 L 89.20 658.70 L 86.30 644.40 L 84.00 629.60 L 82.20 614.20 L 80.80 598.20 L 80.10 583.10 L 80.00 568.60 L 80.50 554.60 L 81.40 541.20 L 82.90 528.40 L 84.90 515.30 L 87.40 502.70 L 90.40 490.60 L 93.80 479.00 L 97.70 467.80 L 102.20 456.60 L 107.10 445.90 L 112.30 435.50 L 118.10 425.60 L 124.20 416.00 L 130.80 406.60 L 137.70 397.60 L 145.10 388.90 L 152.80 380.60 L 161.00 372.50 L 169.50 364.80 L 178.30 357.40 L 187.50 350.30 L 197.00 343.40 L 207.00 336.90 L 209.90 323.40 L 213.20 310.50 L 216.80 298.00 L 220.80 286.10 L 225.20 274.60 L 229.80 263.60 L 234.80 253.10 L 240.40 242.40 L 246.30 232.20 L 252.40 222.40 L 258.90 213.10 L 265.70 204.10 L 272.90 195.60 L 280.30 187.40 L 289.50 178.20 L 299.00 169.50 L 309.00 161.30 L 319.40 153.60 L 330.20 146.30 L 341.40 139.60 L 352.90 133.40 L 364.70 127.70 L 377.00 122.40 L 389.60 117.60 L 402.70 113.20 L 416.30 109.30 L 429.70 106.00 L 443.50 103.20 L 457.70 100.80 L 472.30 98.90 L 487.40 97.40 L 502.90 96.40 Z" fill="#000000" fill-rule="evenodd" filter="url(#filter-8)" group-id="1,2,6,24" node-id="391" stroke="none" target-height="832" target-width="912" target-x="80" target-y="96"></path></g><g node-id="524"><path d="M 864.00 584.00 L 863.70 590.60 L 862.80 597.00 L 861.40 603.30 L 859.50 609.30 L 857.10 615.20 L 854.20 620.80 L 850.80 626.10 L 847.00 631.20 L 842.80 636.10 L 838.30 640.50 L 833.30 644.70 L 828.00 648.60 L 822.40 652.00 L 816.50 655.00 L 810.30 657.70 L 803.80 659.90 L 797.20 661.70 L 790.40 662.90 L 783.30 663.70 L 776.00 664.00 L 768.70 663.70 L 761.60 662.90 L 754.80 661.70 L 748.20 659.90 L 741.70 657.70 L 735.50 655.00 L 729.60 652.00 L 724.00 648.60 L 718.70 644.70 L 713.70 640.50 L 709.20 636.10 L 705.00 631.20 L 701.20 626.10 L 697.80 620.80 L 694.90 615.20 L 692.50 609.30 L 690.60 603.30 L 689.20 597.00 L 688.30 590.60 L 688.00 584.00 L 688.30 577.40 L 689.20 571.00 L 690.60 564.70 L 692.50 558.70 L 694.90 552.80 L 697.80 547.20 L 701.20 541.90 L 705.00 536.80 L 709.20 531.90 L 713.70 527.50 L 718.70 523.30 L 724.00 519.40 L 729.60 516.00 L 735.50 513.00 L 741.70 510.30 L 748.20 508.10 L 754.80 506.30 L 761.60 505.10 L 768.70 504.30 L 776.00 504.00 L 783.30 504.30 L 790.40 505.10 L 797.20 506.30 L 803.80 508.10 L 810.30 510.30 L 816.50 513.00 L 822.40 516.00 L 828.00 519.40 L 833.30 523.30 L 838.30 527.50 L 842.80 531.90 L 847.00 536.80 L 850.80 541.90 L 854.20 547.20 L 857.10 552.80 L 859.50 558.70 L 861.40 564.70 L 862.80 571.00 L 863.70 577.40 L 864.00 584.00 Z" fill="#ff5ea4" fill-opacity="0.8" fill-rule="evenodd" filter="url(#filter-9)" group-id="1,2,7" id="椭圆形" node-id="122" stroke="none" target-height="160" target-width="176" target-x="688" target-y="504"></path></g><g node-id="525"><path d="M 384.00 584.00 L 383.70 590.60 L 382.80 597.00 L 381.40 603.30 L 379.50 609.30 L 377.10 615.20 L 374.20 620.80 L 370.80 626.10 L 367.00 631.20 L 362.80 636.10 L 358.30 640.50 L 353.30 644.70 L 348.00 648.60 L 342.40 652.00 L 336.50 655.00 L 330.30 657.70 L 323.80 659.90 L 317.20 661.70 L 310.40 662.90 L 303.30 663.70 L 296.00 664.00 L 288.70 663.70 L 281.60 662.90 L 274.80 661.70 L 268.20 659.90 L 261.70 657.70 L 255.50 655.00 L 249.60 652.00 L 244.00 648.60 L 238.70 644.70 L 233.70 640.50 L 229.20 636.10 L 225.00 631.20 L 221.20 626.10 L 217.80 620.80 L 214.90 615.20 L 212.50 609.30 L 210.60 603.30 L 209.20 597.00 L 208.30 590.60 L 208.00 584.00 L 208.30 577.40 L 209.20 571.00 L 210.60 564.70 L 212.50 558.70 L 214.90 552.80 L 217.80 547.20 L 221.20 541.90 L 225.00 536.80 L 229.20 531.90 L 233.70 527.50 L 238.70 523.30 L 244.00 519.40 L 249.60 516.00 L 255.50 513.00 L 261.70 510.30 L 268.20 508.10 L 274.80 506.30 L 281.60 505.10 L 288.70 504.30 L 296.00 504.00 L 303.30 504.30 L 310.40 505.10 L 317.20 506.30 L 323.80 508.10 L 330.30 510.30 L 336.50 513.00 L 342.40 516.00 L 348.00 519.40 L 353.30 523.30 L 358.30 527.50 L 362.80 531.90 L 367.00 536.80 L 370.80 541.90 L 374.20 547.20 L 377.10 552.80 L 379.50 558.70 L 381.40 564.70 L 382.80 571.00 L 383.70 577.40 L 384.00 584.00 Z" fill="#ff5ea4" fill-opacity="0.8" fill-rule="evenodd" filter="url(#filter-10)" group-id="1,2,8" id="椭圆形备份-6" node-id="123" stroke="none" target-height="160" target-width="176" target-x="208" target-y="504"></path></g><g node-id="526"><g node-id="542"><g node-id="559"><path d="M 483.00 698.60 L 481.60 688.40 L 480.20 671.00 L 480.20 657.30 L 481.60 646.90 L 484.00 638.70 L 485.90 634.90 L 488.10 631.80 L 490.60 629.10 L 493.50 626.90 L 498.50 624.30 L 499.60 624.00 L 503.20 624.30 L 518.10 624.40 L 565.10 624.10 L 568.70 624.40 L 572.10 625.30 L 575.30 626.70 L 578.30 628.70 L 580.90 631.10 L 583.30 634.00 L 585.50 637.50 L 587.50 641.70 L 589.10 645.90 L 590.30 650.70 L 591.20 656.10 L 591.80 662.20 L 591.80 674.60 L 590.00 689.30 L 585.90 711.40 L 584.10 719.80 L 579.10 739.00 L 576.00 748.90 L 572.50 758.70 L 568.60 768.00 L 565.70 773.90 L 559.50 784.30 L 556.80 787.80 L 551.30 793.50 L 548.40 795.70 L 545.30 797.60 L 542.20 798.90 L 538.90 799.70 L 535.40 800.00 L 531.50 799.70 L 527.70 798.80 L 524.00 797.40 L 520.40 795.30 L 516.80 792.50 L 513.20 788.90 L 509.60 784.50 L 506.10 779.00 L 502.50 772.30 L 499.00 764.40 L 495.60 755.00 L 492.20 743.90 L 488.90 730.90 L 485.90 715.90 L 483.00 698.60 Z" fill="#ed1f2a" fill-rule="evenodd" group-id="1,2,9,25,42" node-id="407" stroke="none" target-height="176" target-width="111.599976" target-x="480.2" target-y="624"></path></g><path d="M 483.00 698.60 L 481.60 688.40 L 480.20 671.00 L 480.20 657.30 L 481.60 646.90 L 484.00 638.70 L 485.90 634.90 L 488.10 631.80 L 490.60 629.10 L 493.50 626.90 L 498.50 624.30 L 499.60 624.00 L 503.20 624.30 L 518.10 624.40 L 565.10 624.10 L 568.70 624.40 L 572.10 625.30 L 575.30 626.70 L 578.30 628.70 L 580.90 631.10 L 583.30 634.00 L 585.50 637.50 L 587.50 641.70 L 589.10 645.90 L 590.30 650.70 L 591.20 656.10 L 591.80 662.20 L 591.80 674.60 L 590.00 689.30 L 585.90 711.40 L 584.10 719.80 L 579.10 739.00 L 576.00 748.90 L 572.50 758.70 L 568.60 768.00 L 565.70 773.90 L 559.50 784.30 L 556.80 787.80 L 551.30 793.50 L 548.40 795.70 L 545.30 797.60 L 542.20 798.90 L 538.90 799.70 L 535.40 800.00 L 531.50 799.70 L 527.70 798.80 L 524.00 797.40 L 520.40 795.30 L 516.80 792.50 L 513.20 788.90 L 509.60 784.50 L 506.10 779.00 L 502.50 772.30 L 499.00 764.40 L 495.60 755.00 L 492.20 743.90 L 488.90 730.90 L 485.90 715.90 L 483.00 698.60 Z" fill="#000000" fill-rule="evenodd" filter="url(#filter-13)" group-id="1,2,9,25,43" node-id="412" stroke="none" target-height="176" target-width="111.599976" target-x="480.2" target-y="624"></path></g><path d="M 536.80 736.30 L 540.00 736.60 L 543.30 737.30 L 546.50 738.50 L 552.70 741.90 L 555.80 744.30 L 561.30 749.70 L 563.90 752.90 L 568.30 759.70 L 570.20 763.40 L 568.20 768.50 L 563.60 777.90 L 561.00 782.30 L 555.60 789.60 L 552.50 792.80 L 549.40 795.40 L 546.30 797.50 L 543.00 799.10 L 539.70 800.00 L 536.30 800.30 L 533.10 800.10 L 529.80 799.50 L 526.40 798.30 L 522.90 796.60 L 519.70 794.60 L 516.50 792.10 L 513.30 789.00 L 510.10 785.20 L 507.30 781.30 L 504.60 776.80 L 502.10 771.60 L 499.70 765.60 L 504.00 757.90 L 506.70 754.30 L 509.60 750.90 L 515.90 745.00 L 519.40 742.50 L 526.40 738.70 L 530.00 737.40 L 533.50 736.60 L 536.80 736.30 Z" fill="url(#linearGradient-14)" fill-rule="evenodd" filter="url(#filter-11)" group-id="1,2,9" id="路径" node-id="128" stroke="none" target-height="64" target-width="70.5" target-x="499.7" target-y="736.3"></path><g node-id="543"><g node-id="561"><path d="M 483.00 698.50 L 481.30 685.70 L 480.30 674.40 L 480.00 664.60 L 480.20 657.10 L 480.90 650.60 L 482.00 644.90 L 483.40 640.10 L 485.10 636.30 L 487.10 633.00 L 489.30 630.20 L 491.90 627.80 L 496.50 625.10 L 499.40 624.00 L 511.60 626.00 L 519.20 626.60 L 528.20 626.70 L 538.70 626.40 L 550.90 625.50 L 565.10 624.00 L 568.70 624.30 L 572.10 625.20 L 575.30 626.60 L 578.30 628.50 L 580.90 630.90 L 583.30 633.80 L 585.50 637.40 L 587.50 641.50 L 589.10 645.80 L 590.30 650.60 L 591.20 656.00 L 591.80 662.10 L 591.80 674.50 L 590.00 689.20 L 585.90 711.30 L 584.10 719.70 L 579.10 738.90 L 576.00 748.80 L 572.50 758.60 L 568.60 767.90 L 565.70 773.90 L 559.50 784.30 L 556.80 787.80 L 551.30 793.50 L 548.40 795.70 L 545.30 797.60 L 542.20 798.90 L 538.90 799.70 L 535.40 800.00 L 531.50 799.70 L 527.70 798.80 L 524.00 797.40 L 520.40 795.30 L 516.80 792.50 L 513.20 788.90 L 509.60 784.50 L 506.10 779.00 L 502.50 772.30 L 499.00 764.40 L 495.60 754.90 L 492.20 743.80 L 488.90 730.90 L 485.90 715.80 L 483.00 698.50 Z" fill="#000000" fill-rule="evenodd" filter="url(#filter-16)" group-id="1,2,9,26,44" node-id="420" stroke="none" target-height="176" target-width="111.79999" target-x="480" target-y="624"></path></g></g></g><g node-id="527"><g node-id="544"><path d="M 324.90 368.60 L 326.80 366.60 L 328.90 365.10 L 331.10 363.90 L 336.00 362.70 L 341.00 363.00 L 343.50 363.80 L 347.40 366.20 L 473.40 468.10 L 475.50 470.10 L 477.10 472.40 L 478.30 474.90 L 479.10 477.50 L 479.30 480.20 L 479.20 483.00 L 478.50 485.60 L 477.40 488.20 L 475.80 490.60 L 473.90 492.60 L 471.90 494.10 L 469.60 495.30 L 467.20 496.10 L 462.20 496.50 L 459.70 496.10 L 457.30 495.30 L 453.30 493.00 L 327.30 391.10 L 325.20 389.00 L 323.60 386.80 L 322.40 384.30 L 321.70 381.60 L 321.40 378.90 L 321.60 376.20 L 322.20 373.50 L 323.30 371.00 L 324.90 368.60 Z" fill="#723004" fill-rule="nonzero" group-id="1,2,10,27" node-id="428" stroke="none" target-height="133.79999" target-width="157.9" target-x="321.4" target-y="362.7"></path></g><path d="M 324.90 368.60 L 326.80 366.60 L 328.90 365.10 L 331.10 363.90 L 336.00 362.70 L 341.00 363.00 L 343.50 363.80 L 347.40 366.20 L 473.40 468.10 L 475.50 470.10 L 477.10 472.40 L 478.30 474.90 L 479.10 477.50 L 479.30 480.20 L 479.20 483.00 L 478.50 485.60 L 477.40 488.20 L 475.80 490.60 L 473.90 492.60 L 471.90 494.10 L 469.60 495.30 L 467.20 496.10 L 462.20 496.50 L 459.70 496.10 L 457.30 495.30 L 453.30 493.00 L 327.30 391.10 L 325.20 389.00 L 323.60 386.80 L 322.40 384.30 L 321.70 381.60 L 321.40 378.90 L 321.60 376.20 L 322.20 373.50 L 323.30 371.00 L 324.90 368.60 Z" fill="#000000" fill-rule="nonzero" filter="url(#filter-18)" group-id="1,2,10,28" node-id="433" stroke="none" target-height="133.79999" target-width="157.9" target-x="321.4" target-y="362.7"></path></g><g node-id="528"><g node-id="546"><path d="M 731.80 368.60 L 729.90 366.60 L 727.90 365.10 L 725.60 363.90 L 720.70 362.70 L 715.70 363.00 L 713.30 363.80 L 709.30 366.20 L 583.30 468.10 L 581.20 470.10 L 579.60 472.40 L 578.40 474.90 L 577.70 477.50 L 577.40 480.20 L 577.60 483.00 L 578.20 485.60 L 579.30 488.20 L 580.90 490.60 L 582.80 492.60 L 584.90 494.10 L 589.50 496.10 L 594.50 496.50 L 597.00 496.10 L 599.50 495.30 L 603.40 493.00 L 729.40 391.10 L 731.50 389.00 L 733.10 386.80 L 734.30 384.30 L 735.10 381.60 L 735.30 378.90 L 735.20 376.20 L 734.50 373.50 L 733.40 371.00 L 731.80 368.60 Z" fill="#723004" fill-rule="nonzero" group-id="1,2,11,29" node-id="440" stroke="none" target-height="133.79999" target-width="157.89996" target-x="577.4" target-y="362.7"></path></g><path d="M 731.80 368.60 L 729.90 366.60 L 727.90 365.10 L 725.60 363.90 L 720.70 362.70 L 715.70 363.00 L 713.30 363.80 L 709.30 366.20 L 583.30 468.10 L 581.20 470.10 L 579.60 472.40 L 578.40 474.90 L 577.70 477.50 L 577.40 480.20 L 577.60 483.00 L 578.20 485.60 L 579.30 488.20 L 580.90 490.60 L 582.80 492.60 L 584.90 494.10 L 589.50 496.10 L 594.50 496.50 L 597.00 496.10 L 599.50 495.30 L 603.40 493.00 L 729.40 391.10 L 731.50 389.00 L 733.10 386.80 L 734.30 384.30 L 735.10 381.60 L 735.30 378.90 L 735.20 376.20 L 734.50 373.50 L 733.40 371.00 L 731.80 368.60 Z" fill="#000000" fill-rule="nonzero" filter="url(#filter-20)" group-id="1,2,11,30" node-id="445" stroke="none" target-height="133.79999" target-width="157.89996" target-x="577.4" target-y="362.7"></path></g><g node-id="529"><g node-id="548"><path d="M 242.60 240.00 L 238.70 245.30 L 234.40 252.20 L 230.20 259.70 L 221.80 276.80 L 214.30 294.60 L 208.70 311.00 L 206.00 322.20 L 205.60 325.50 L 205.80 330.00 L 206.30 331.10 L 207.10 331.70 L 208.00 331.90 L 350.20 329.60 L 772.00 324.20 L 830.80 322.80 L 853.30 321.90 L 866.90 320.90 L 874.20 320.10 L 877.30 319.30 L 878.30 318.80 L 878.40 318.30 L 876.80 315.40 L 871.10 307.80 L 865.70 301.80 L 858.80 294.90 L 842.90 280.50 L 824.90 265.90 L 806.20 252.00 L 797.00 245.60 L 780.00 234.70 L 772.80 230.70 L 765.90 227.30 L 760.90 225.40 L 756.90 224.70 L 747.40 223.70 L 720.50 222.40 L 682.60 221.40 L 636.20 220.80 L 583.70 220.70 L 527.60 221.00 L 470.50 221.80 L 414.70 223.20 L 362.70 225.20 L 338.50 226.50 L 296.70 229.50 L 280.20 231.20 L 261.10 233.90 L 249.30 236.60 L 245.90 237.90 L 243.80 239.00 L 242.60 240.00 Z" fill="#000000" fill-rule="evenodd" filter="url(#filter-23)" group-id="1,2,12,31" node-id="452" stroke="none" target-height="111.2" target-width="672.80005" target-x="205.6" target-y="220.7"></path></g><path d="M 242.60 240.00 L 238.70 245.30 L 234.40 252.20 L 230.20 259.70 L 221.80 276.80 L 214.30 294.60 L 208.70 311.00 L 206.00 322.20 L 205.60 325.50 L 205.80 330.00 L 206.30 331.10 L 207.10 331.70 L 208.00 331.90 L 350.20 329.60 L 772.00 324.20 L 830.80 322.80 L 853.30 321.90 L 866.90 320.90 L 874.20 320.10 L 877.30 319.30 L 878.30 318.80 L 878.40 318.30 L 876.80 315.40 L 871.10 307.80 L 865.70 301.80 L 858.80 294.90 L 842.90 280.50 L 824.90 265.90 L 806.20 252.00 L 797.00 245.60 L 780.00 234.70 L 772.80 230.70 L 765.90 227.30 L 760.90 225.40 L 756.90 224.70 L 747.40 223.70 L 720.50 222.40 L 682.60 221.40 L 636.20 220.80 L 583.70 220.70 L 527.60 221.00 L 470.50 221.80 L 414.70 223.20 L 362.70 225.20 L 338.50 226.50 L 296.70 229.50 L 280.20 231.20 L 261.10 233.90 L 249.30 236.60 L 245.90 237.90 L 243.80 239.00 L 242.60 240.00 Z" fill="url(#linearGradient-21)" fill-rule="evenodd" group-id="1,2,12,32" node-id="457" stroke="none" target-height="111.2" target-width="672.80005" target-x="205.6" target-y="220.7"></path></g><g node-id="530"><g node-id="550"><path d="M 464.00 536.00 L 463.80 540.70 L 462.40 549.50 L 461.10 553.70 L 459.00 559.20 L 456.40 564.30 L 453.20 569.10 L 449.60 573.50 L 445.50 577.60 L 441.10 581.20 L 436.30 584.40 L 431.20 587.00 L 425.70 589.10 L 417.10 591.30 L 408.00 592.00 L 398.90 591.30 L 390.30 589.10 L 384.80 587.00 L 379.70 584.40 L 374.90 581.20 L 370.50 577.60 L 366.40 573.50 L 362.80 569.10 L 359.60 564.30 L 357.00 559.20 L 354.90 553.70 L 353.60 549.50 L 352.20 540.70 L 352.20 531.30 L 352.70 526.90 L 354.90 518.30 L 357.00 512.80 L 359.60 507.70 L 362.80 502.90 L 366.40 498.50 L 370.50 494.40 L 374.90 490.80 L 379.70 487.60 L 384.80 485.00 L 390.30 482.90 L 394.50 481.60 L 403.30 480.20 L 408.00 480.00 L 412.70 480.20 L 421.50 481.60 L 425.70 482.90 L 431.20 485.00 L 436.30 487.60 L 441.10 490.80 L 445.50 494.40 L 449.60 498.50 L 453.20 502.90 L 456.40 507.70 L 459.00 512.80 L 461.10 518.30 L 463.30 526.90 L 464.00 536.00 Z" fill="#000000" fill-rule="evenodd" filter="url(#filter-25)" group-id="1,2,13,33" node-id="464" stroke="none" target-height="112" target-width="111.79999" target-x="352.2" target-y="480"></path></g><path d="M 464.00 536.00 L 463.80 540.70 L 462.40 549.50 L 461.10 553.70 L 459.00 559.20 L 456.40 564.30 L 453.20 569.10 L 449.60 573.50 L 445.50 577.60 L 441.10 581.20 L 436.30 584.40 L 431.20 587.00 L 425.70 589.10 L 417.10 591.30 L 408.00 592.00 L 398.90 591.30 L 390.30 589.10 L 384.80 587.00 L 379.70 584.40 L 374.90 581.20 L 370.50 577.60 L 366.40 573.50 L 362.80 569.10 L 359.60 564.30 L 357.00 559.20 L 354.90 553.70 L 353.60 549.50 L 352.20 540.70 L 352.20 531.30 L 352.70 526.90 L 354.90 518.30 L 357.00 512.80 L 359.60 507.70 L 362.80 502.90 L 366.40 498.50 L 370.50 494.40 L 374.90 490.80 L 379.70 487.60 L 384.80 485.00 L 390.30 482.90 L 394.50 481.60 L 403.30 480.20 L 408.00 480.00 L 412.70 480.20 L 421.50 481.60 L 425.70 482.90 L 431.20 485.00 L 436.30 487.60 L 441.10 490.80 L 445.50 494.40 L 449.60 498.50 L 453.20 502.90 L 456.40 507.70 L 459.00 512.80 L 461.10 518.30 L 463.30 526.90 L 464.00 536.00 Z" fill="#5b2500" fill-rule="evenodd" group-id="1,2,13,34" node-id="469" stroke="none" target-height="112" target-width="111.79999" target-x="352.2" target-y="480"></path></g><g node-id="531"><g node-id="552"><path d="M 704.00 536.00 L 703.80 540.70 L 702.40 549.50 L 701.10 553.70 L 699.00 559.20 L 696.40 564.30 L 693.20 569.10 L 689.60 573.50 L 685.50 577.60 L 681.10 581.20 L 676.30 584.40 L 671.20 587.00 L 665.70 589.10 L 657.10 591.30 L 648.00 592.00 L 638.90 591.30 L 630.30 589.10 L 624.80 587.00 L 619.70 584.40 L 614.90 581.20 L 610.50 577.60 L 606.40 573.50 L 602.80 569.10 L 599.60 564.30 L 597.00 559.20 L 594.90 553.70 L 593.60 549.50 L 592.20 540.70 L 592.20 531.30 L 592.70 526.90 L 594.90 518.30 L 597.00 512.80 L 599.60 507.70 L 602.80 502.90 L 606.40 498.50 L 610.50 494.40 L 614.90 490.80 L 619.70 487.60 L 624.80 485.00 L 630.30 482.90 L 634.50 481.60 L 643.30 480.20 L 648.00 480.00 L 652.70 480.20 L 661.50 481.60 L 665.70 482.90 L 671.20 485.00 L 676.30 487.60 L 681.10 490.80 L 685.50 494.40 L 689.60 498.50 L 693.20 502.90 L 696.40 507.70 L 699.00 512.80 L 701.10 518.30 L 703.30 526.90 L 704.00 536.00 Z" fill="#000000" fill-rule="evenodd" filter="url(#filter-27)" group-id="1,2,14,35" node-id="476" stroke="none" target-height="112" target-width="111.79999" target-x="592.2" target-y="480"></path></g><path d="M 704.00 536.00 L 703.80 540.70 L 702.40 549.50 L 701.10 553.70 L 699.00 559.20 L 696.40 564.30 L 693.20 569.10 L 689.60 573.50 L 685.50 577.60 L 681.10 581.20 L 676.30 584.40 L 671.20 587.00 L 665.70 589.10 L 657.10 591.30 L 648.00 592.00 L 638.90 591.30 L 630.30 589.10 L 624.80 587.00 L 619.70 584.40 L 614.90 581.20 L 610.50 577.60 L 606.40 573.50 L 602.80 569.10 L 599.60 564.30 L 597.00 559.20 L 594.90 553.70 L 593.60 549.50 L 592.20 540.70 L 592.20 531.30 L 592.70 526.90 L 594.90 518.30 L 597.00 512.80 L 599.60 507.70 L 602.80 502.90 L 606.40 498.50 L 610.50 494.40 L 614.90 490.80 L 619.70 487.60 L 624.80 485.00 L 630.30 482.90 L 634.50 481.60 L 643.30 480.20 L 648.00 480.00 L 652.70 480.20 L 661.50 481.60 L 665.70 482.90 L 671.20 485.00 L 676.30 487.60 L 681.10 490.80 L 685.50 494.40 L 689.60 498.50 L 693.20 502.90 L 696.40 507.70 L 699.00 512.80 L 701.10 518.30 L 703.30 526.90 L 704.00 536.00 Z" fill="#5b2500" fill-rule="evenodd" group-id="1,2,14,36" node-id="481" stroke="none" target-height="112" target-width="111.79999" target-x="592.2" target-y="480"></path></g></g><g node-id="520"><g node-id="532"><path d="M 256.00 728.00 L 255.80 734.90 L 255.10 741.70 L 254.00 748.20 L 252.60 754.60 L 250.70 760.90 L 247.80 768.50 L 244.40 775.80 L 240.40 782.80 L 235.90 789.40 L 230.90 795.70 L 225.50 801.50 L 219.70 806.90 L 213.40 811.90 L 206.80 816.40 L 199.80 820.40 L 192.50 823.80 L 184.90 826.70 L 178.60 828.60 L 172.20 830.00 L 165.70 831.10 L 158.90 831.80 L 152.00 832.00 L 145.10 831.80 L 138.30 831.10 L 131.80 830.00 L 125.40 828.60 L 119.10 826.70 L 111.50 823.80 L 104.20 820.40 L 97.20 816.40 L 90.60 811.90 L 84.30 806.90 L 78.50 801.50 L 73.10 795.70 L 68.10 789.40 L 63.60 782.80 L 59.60 775.80 L 56.20 768.50 L 53.30 760.90 L 51.40 754.60 L 50.00 748.20 L 48.90 741.70 L 48.20 734.90 L 48.00 728.00 L 48.20 721.10 L 48.90 714.30 L 50.00 707.80 L 51.40 701.40 L 53.30 695.10 L 56.20 687.50 L 59.60 680.20 L 63.60 673.20 L 68.10 666.60 L 73.10 660.30 L 78.50 654.50 L 84.30 649.10 L 90.60 644.10 L 97.20 639.60 L 104.20 635.60 L 111.50 632.20 L 119.10 629.30 L 125.40 627.40 L 131.80 626.00 L 138.30 624.90 L 145.10 624.20 L 152.00 624.00 L 158.90 624.20 L 165.70 624.90 L 172.20 626.00 L 178.60 627.40 L 184.90 629.30 L 192.50 632.20 L 199.80 635.60 L 206.80 639.60 L 213.40 644.10 L 219.70 649.10 L 225.50 654.50 L 230.90 660.30 L 235.90 666.60 L 240.40 673.20 L 244.40 680.20 L 247.80 687.50 L 250.70 695.10 L 252.60 701.40 L 254.00 707.80 L 255.10 714.30 L 255.80 721.10 L 256.00 728.00 Z" fill="#000000" fill-rule="evenodd" filter="url(#filter-30)" group-id="1,3,15" node-id="489" stroke="none" target-height="208" target-width="208" target-x="48" target-y="624"></path></g><g node-id="533"><path d="M 256.00 728.00 L 255.80 734.90 L 255.10 741.70 L 254.00 748.20 L 252.60 754.60 L 250.70 760.90 L 247.80 768.50 L 244.40 775.80 L 240.40 782.80 L 235.90 789.40 L 230.90 795.70 L 225.50 801.50 L 219.70 806.90 L 213.40 811.90 L 206.80 816.40 L 199.80 820.40 L 192.50 823.80 L 184.90 826.70 L 178.60 828.60 L 172.20 830.00 L 165.70 831.10 L 158.90 831.80 L 152.00 832.00 L 145.10 831.80 L 138.30 831.10 L 131.80 830.00 L 125.40 828.60 L 119.10 826.70 L 111.50 823.80 L 104.20 820.40 L 97.20 816.40 L 90.60 811.90 L 84.30 806.90 L 78.50 801.50 L 73.10 795.70 L 68.10 789.40 L 63.60 782.80 L 59.60 775.80 L 56.20 768.50 L 53.30 760.90 L 51.40 754.60 L 50.00 748.20 L 48.90 741.70 L 48.20 734.90 L 48.00 728.00 L 48.20 721.10 L 48.90 714.30 L 50.00 707.80 L 51.40 701.40 L 53.30 695.10 L 56.20 687.50 L 59.60 680.20 L 63.60 673.20 L 68.10 666.60 L 73.10 660.30 L 78.50 654.50 L 84.30 649.10 L 90.60 644.10 L 97.20 639.60 L 104.20 635.60 L 111.50 632.20 L 119.10 629.30 L 125.40 627.40 L 131.80 626.00 L 138.30 624.90 L 145.10 624.20 L 152.00 624.00 L 158.90 624.20 L 165.70 624.90 L 172.20 626.00 L 178.60 627.40 L 184.90 629.30 L 192.50 632.20 L 199.80 635.60 L 206.80 639.60 L 213.40 644.10 L 219.70 649.10 L 225.50 654.50 L 230.90 660.30 L 235.90 666.60 L 240.40 673.20 L 244.40 680.20 L 247.80 687.50 L 250.70 695.10 L 252.60 701.40 L 254.00 707.80 L 255.10 714.30 L 255.80 721.10 L 256.00 728.00 Z" fill="url(#radialGradient1)" fill-rule="evenodd" group-id="1,3,16" node-id="494" stroke="none" target-height="208" target-width="208" target-x="48" target-y="624"></path></g><path d="M 256.00 728.00 L 255.80 734.90 L 255.10 741.70 L 254.00 748.20 L 252.60 754.60 L 250.70 760.90 L 247.80 768.50 L 244.40 775.80 L 240.40 782.80 L 235.90 789.40 L 230.90 795.70 L 225.50 801.50 L 219.70 806.90 L 213.40 811.90 L 206.80 816.40 L 199.80 820.40 L 192.50 823.80 L 184.90 826.70 L 178.60 828.60 L 172.20 830.00 L 165.70 831.10 L 158.90 831.80 L 152.00 832.00 L 145.10 831.80 L 138.30 831.10 L 131.80 830.00 L 125.40 828.60 L 119.10 826.70 L 111.50 823.80 L 104.20 820.40 L 97.20 816.40 L 90.60 811.90 L 84.30 806.90 L 78.50 801.50 L 73.10 795.70 L 68.10 789.40 L 63.60 782.80 L 59.60 775.80 L 56.20 768.50 L 53.30 760.90 L 51.40 754.60 L 50.00 748.20 L 48.90 741.70 L 48.20 734.90 L 48.00 728.00 L 48.20 721.10 L 48.90 714.30 L 50.00 707.80 L 51.40 701.40 L 53.30 695.10 L 56.20 687.50 L 59.60 680.20 L 63.60 673.20 L 68.10 666.60 L 73.10 660.30 L 78.50 654.50 L 84.30 649.10 L 90.60 644.10 L 97.20 639.60 L 104.20 635.60 L 111.50 632.20 L 119.10 629.30 L 125.40 627.40 L 131.80 626.00 L 138.30 624.90 L 145.10 624.20 L 152.00 624.00 L 158.90 624.20 L 165.70 624.90 L 172.20 626.00 L 178.60 627.40 L 184.90 629.30 L 192.50 632.20 L 199.80 635.60 L 206.80 639.60 L 213.40 644.10 L 219.70 649.10 L 225.50 654.50 L 230.90 660.30 L 235.90 666.60 L 240.40 673.20 L 244.40 680.20 L 247.80 687.50 L 250.70 695.10 L 252.60 701.40 L 254.00 707.80 L 255.10 714.30 L 255.80 721.10 L 256.00 728.00 Z" fill="#000000" fill-rule="evenodd" filter="url(#filter-31)" group-id="1,3,17" node-id="499" stroke="none" target-height="208" target-width="208" target-x="48" target-y="624"></path></g><g node-id="521"><g node-id="535"><path d="M 912.00 856.00 L 911.80 862.90 L 911.10 869.70 L 910.00 876.20 L 908.60 882.60 L 906.70 888.90 L 903.80 896.50 L 900.40 903.80 L 896.40 910.80 L 891.90 917.40 L 886.90 923.70 L 881.50 929.50 L 875.70 934.90 L 869.40 939.90 L 862.80 944.40 L 855.80 948.40 L 848.50 951.80 L 840.90 954.70 L 834.60 956.60 L 828.20 958.00 L 821.70 959.10 L 814.90 959.80 L 808.00 960.00 L 801.10 959.80 L 794.30 959.10 L 787.80 958.00 L 781.40 956.60 L 775.10 954.70 L 767.50 951.80 L 760.20 948.40 L 753.20 944.40 L 746.60 939.90 L 740.30 934.90 L 734.50 929.50 L 729.10 923.70 L 724.10 917.40 L 719.60 910.80 L 715.60 903.80 L 712.20 896.50 L 709.30 888.90 L 707.40 882.60 L 706.00 876.20 L 704.90 869.70 L 704.20 862.90 L 704.00 856.00 L 704.20 849.10 L 704.90 842.30 L 706.00 835.80 L 707.40 829.40 L 709.30 823.10 L 712.20 815.50 L 715.60 808.20 L 719.60 801.20 L 724.10 794.60 L 729.10 788.30 L 734.50 782.50 L 740.30 777.10 L 746.60 772.10 L 753.20 767.60 L 760.20 763.60 L 767.50 760.20 L 775.10 757.30 L 781.40 755.40 L 787.80 754.00 L 794.30 752.90 L 801.10 752.20 L 808.00 752.00 L 814.90 752.20 L 821.70 752.90 L 828.20 754.00 L 834.60 755.40 L 840.90 757.30 L 848.50 760.20 L 855.80 763.60 L 862.80 767.60 L 869.40 772.10 L 875.70 777.10 L 881.50 782.50 L 886.90 788.30 L 891.90 794.60 L 896.40 801.20 L 900.40 808.20 L 903.80 815.50 L 906.70 823.10 L 908.60 829.40 L 910.00 835.80 L 911.10 842.30 L 911.80 849.10 L 912.00 856.00 Z" fill="#000000" fill-rule="evenodd" filter="url(#filter-33)" group-id="1,4,18" node-id="506" stroke="none" target-height="208" target-width="208" target-x="704" target-y="752"></path></g><g node-id="536"><path d="M 912.00 856.00 L 911.80 862.90 L 911.10 869.70 L 910.00 876.20 L 908.60 882.60 L 906.70 888.90 L 903.80 896.50 L 900.40 903.80 L 896.40 910.80 L 891.90 917.40 L 886.90 923.70 L 881.50 929.50 L 875.70 934.90 L 869.40 939.90 L 862.80 944.40 L 855.80 948.40 L 848.50 951.80 L 840.90 954.70 L 834.60 956.60 L 828.20 958.00 L 821.70 959.10 L 814.90 959.80 L 808.00 960.00 L 801.10 959.80 L 794.30 959.10 L 787.80 958.00 L 781.40 956.60 L 775.10 954.70 L 767.50 951.80 L 760.20 948.40 L 753.20 944.40 L 746.60 939.90 L 740.30 934.90 L 734.50 929.50 L 729.10 923.70 L 724.10 917.40 L 719.60 910.80 L 715.60 903.80 L 712.20 896.50 L 709.30 888.90 L 707.40 882.60 L 706.00 876.20 L 704.90 869.70 L 704.20 862.90 L 704.00 856.00 L 704.20 849.10 L 704.90 842.30 L 706.00 835.80 L 707.40 829.40 L 709.30 823.10 L 712.20 815.50 L 715.60 808.20 L 719.60 801.20 L 724.10 794.60 L 729.10 788.30 L 734.50 782.50 L 740.30 777.10 L 746.60 772.10 L 753.20 767.60 L 760.20 763.60 L 767.50 760.20 L 775.10 757.30 L 781.40 755.40 L 787.80 754.00 L 794.30 752.90 L 801.10 752.20 L 808.00 752.00 L 814.90 752.20 L 821.70 752.90 L 828.20 754.00 L 834.60 755.40 L 840.90 757.30 L 848.50 760.20 L 855.80 763.60 L 862.80 767.60 L 869.40 772.10 L 875.70 777.10 L 881.50 782.50 L 886.90 788.30 L 891.90 794.60 L 896.40 801.20 L 900.40 808.20 L 903.80 815.50 L 906.70 823.10 L 908.60 829.40 L 910.00 835.80 L 911.10 842.30 L 911.80 849.10 L 912.00 856.00 Z" fill="url(#radialGradient-28)" fill-rule="evenodd" group-id="1,4,19" node-id="511" stroke="none" target-height="208" target-width="208" target-x="704" target-y="752"></path></g><path d="M 912.00 856.00 L 911.80 862.90 L 911.10 869.70 L 910.00 876.20 L 908.60 882.60 L 906.70 888.90 L 903.80 896.50 L 900.40 903.80 L 896.40 910.80 L 891.90 917.40 L 886.90 923.70 L 881.50 929.50 L 875.70 934.90 L 869.40 939.90 L 862.80 944.40 L 855.80 948.40 L 848.50 951.80 L 840.90 954.70 L 834.60 956.60 L 828.20 958.00 L 821.70 959.10 L 814.90 959.80 L 808.00 960.00 L 801.10 959.80 L 794.30 959.10 L 787.80 958.00 L 781.40 956.60 L 775.10 954.70 L 767.50 951.80 L 760.20 948.40 L 753.20 944.40 L 746.60 939.90 L 740.30 934.90 L 734.50 929.50 L 729.10 923.70 L 724.10 917.40 L 719.60 910.80 L 715.60 903.80 L 712.20 896.50 L 709.30 888.90 L 707.40 882.60 L 706.00 876.20 L 704.90 869.70 L 704.20 862.90 L 704.00 856.00 L 704.20 849.10 L 704.90 842.30 L 706.00 835.80 L 707.40 829.40 L 709.30 823.10 L 712.20 815.50 L 715.60 808.20 L 719.60 801.20 L 724.10 794.60 L 729.10 788.30 L 734.50 782.50 L 740.30 777.10 L 746.60 772.10 L 753.20 767.60 L 760.20 763.60 L 767.50 760.20 L 775.10 757.30 L 781.40 755.40 L 787.80 754.00 L 794.30 752.90 L 801.10 752.20 L 808.00 752.00 L 814.90 752.20 L 821.70 752.90 L 828.20 754.00 L 834.60 755.40 L 840.90 757.30 L 848.50 760.20 L 855.80 763.60 L 862.80 767.60 L 869.40 772.10 L 875.70 777.10 L 881.50 782.50 L 886.90 788.30 L 891.90 794.60 L 896.40 801.20 L 900.40 808.20 L 903.80 815.50 L 906.70 823.10 L 908.60 829.40 L 910.00 835.80 L 911.10 842.30 L 911.80 849.10 L 912.00 856.00 Z" fill="#000000" fill-rule="evenodd" filter="url(#filter-34)" group-id="1,4,20" node-id="516" stroke="none" target-height="208" target-width="208" target-x="704" target-y="752"></path></g></g></svg>