<?xml version="1.0" standalone="no"?><!DOCTYPE svg PUBLIC "-//W3C//DTD SVG 1.1//EN" "http://www.w3.org/Graphics/SVG/1.1/DTD/svg11.dtd"><svg height="1024" node-id="1" sillyvg="true" template-height="1024" template-width="1024" version="1.1" viewBox="0 0 1024 1024" width="1024" xmlns="http://www.w3.org/2000/svg" xmlns:xlink="http://www.w3.org/1999/xlink"><defs node-id="35"><radialGradient cx="0.5" cy="0.27637437" fx="0.5" fy="0.27637437" gradientUnits="objectBoundingBox" id="radialGradient1" node-id="37" r="0.72362566" rev="7" spreadMethod="pad"><stop offset="0" stop-color="#fff5aa"></stop><stop offset="0.27121985" stop-color="#ffeb96"></stop><stop offset="1" stop-color="#ffa60f"></stop></radialGradient><radialGradient cx="0.24234363" cy="0.31625202" fx="0.24234363" fy="0.31625202" gradientUnits="objectBoundingBox" id="radialGradient2" node-id="46" r="1.2522156" rev="6" spreadMethod="pad"><stop offset="0" stop-color="#ffc6cc"></stop><stop offset="1" stop-color="#ff96a5"></stop></radialGradient><radialGradient cx="0.75765634" cy="0.31625202" fx="0.75765634" fy="0.31625202" gradientUnits="objectBoundingBox" id="radialGradient-2" node-id="9" r="1.2522156" rev="5" spreadMethod="pad"><stop offset="0" stop-color="#ffc6cc"></stop><stop offset="1" stop-color="#ff96a5"></stop></radialGradient><radialGradient cx="0.5" cy="0.27637437" fx="0.5" fy="0.27637437" gradientUnits="objectBoundingBox" id="radialGradient3" node-id="59" r="0.72362566" rev="4" spreadMethod="pad"><stop offset="0" stop-color="#fff5aa"></stop><stop offset="0.27121985" stop-color="#ffeb96"></stop><stop offset="1" stop-color="#ffa60f"></stop></radialGradient><radialGradient cx="0.5" cy="0.27637437" fx="0.5" fy="0.27637437" gradientUnits="objectBoundingBox" id="radialGradient-1" node-id="5" r="0.72362566" rev="3" spreadMethod="pad"><stop offset="0" stop-color="#fff5aa"></stop><stop offset="0.27121985" stop-color="#ffeb96"></stop><stop offset="1" stop-color="#ffa60f"></stop></radialGradient><radialGradient cx="0.8798964" cy="0.5" fx="0.8798964" fy="0.5" gradientUnits="objectBoundingBox" id="radialGradient4" node-id="76" r="0.59487605" rev="2" spreadMethod="pad"><stop offset="0" stop-color="#525252"></stop><stop offset="0.38796386" stop-color="#302838"></stop><stop offset="1" stop-color="#241e2b"></stop></radialGradient><radialGradient cx="0.1201036" cy="0.5" fx="0.1201036" fy="0.5" gradientUnits="objectBoundingBox" id="radialGradient-5" node-id="16" r="0.59487605" rev="1" spreadMethod="pad"><stop offset="0" stop-color="#525252"></stop><stop offset="0.38796386" stop-color="#302838"></stop><stop offset="1" stop-color="#241e2b"></stop></radialGradient><filter height="394.59418" id="filter-3" node-id="12" width="391.51163" x="-37.308155" y="-76.585884"><feGaussianBlur color-interpolation-filters="linearRGB" in="SourceGraphic" result="result1" stdDeviation="32.43782 32.43782"></feGaussianBlur></filter><filter height="394.59418" id="filter-4" node-id="14" width="391.51166" x="488.1845" y="-76.585884"><feGaussianBlur color-interpolation-filters="linearRGB" in="SourceGraphic" result="result1" stdDeviation="32.43782 32.43782"></feGaussianBlur></filter></defs><path d="M 901.40 512.20 L 901.10 527.70 L 900.20 543.10 L 898.70 558.30 L 896.60 573.50 L 893.90 588.50 L 890.60 603.40 L 886.70 618.10 L 882.30 632.60 L 877.30 647.00 L 871.80 661.10 L 865.70 675.10 L 859.10 688.70 L 851.90 702.10 L 844.30 715.20 L 836.00 728.10 L 827.30 740.70 L 818.10 752.90 L 808.40 764.70 L 798.20 776.20 L 787.40 787.40 L 776.20 798.20 L 764.70 808.40 L 752.90 818.10 L 740.70 827.30 L 728.10 836.00 L 715.20 844.30 L 702.10 851.90 L 688.70 859.10 L 675.10 865.70 L 661.10 871.80 L 647.00 877.30 L 632.60 882.30 L 618.10 886.70 L 603.40 890.60 L 588.50 893.90 L 573.50 896.60 L 558.30 898.70 L 543.10 900.20 L 527.70 901.10 L 512.20 901.40 L 496.70 901.10 L 481.30 900.20 L 466.00 898.70 L 450.90 896.60 L 435.90 893.90 L 421.00 890.60 L 406.20 886.70 L 391.70 882.30 L 377.40 877.30 L 363.20 871.80 L 349.30 865.70 L 335.60 859.10 L 322.20 851.90 L 309.10 844.30 L 296.20 836.00 L 283.70 827.30 L 271.50 818.10 L 259.70 808.40 L 248.10 798.20 L 236.90 787.40 L 226.20 776.20 L 216.00 764.70 L 206.20 752.90 L 197.00 740.70 L 188.30 728.10 L 180.10 715.20 L 172.40 702.10 L 165.30 688.70 L 158.60 675.10 L 152.60 661.10 L 147.00 647.00 L 142.00 632.60 L 137.60 618.10 L 133.80 603.40 L 130.50 588.50 L 127.80 573.50 L 125.70 558.30 L 124.20 543.10 L 123.20 527.70 L 122.90 512.20 L 123.20 496.70 L 124.20 481.30 L 125.70 466.00 L 127.80 450.90 L 130.50 435.90 L 133.80 421.00 L 137.60 406.20 L 142.00 391.70 L 147.00 377.40 L 152.60 363.20 L 158.60 349.30 L 165.30 335.60 L 172.40 322.20 L 180.10 309.10 L 188.30 296.20 L 197.00 283.70 L 206.20 271.50 L 216.00 259.70 L 226.20 248.10 L 236.90 236.90 L 248.10 226.20 L 259.70 216.00 L 271.50 206.20 L 283.70 197.00 L 296.20 188.30 L 309.10 180.10 L 322.20 172.40 L 335.60 165.30 L 349.30 158.60 L 363.20 152.60 L 377.40 147.00 L 391.70 142.00 L 406.20 137.60 L 421.00 133.80 L 435.90 130.50 L 450.90 127.80 L 466.00 125.70 L 481.30 124.20 L 496.70 123.20 L 512.20 122.90 L 527.70 123.20 L 543.10 124.20 L 558.30 125.70 L 573.50 127.80 L 588.50 130.50 L 603.40 133.80 L 618.10 137.60 L 632.60 142.00 L 647.00 147.00 L 661.10 152.60 L 675.10 158.60 L 688.70 165.30 L 702.10 172.40 L 715.20 180.10 L 728.10 188.30 L 740.70 197.00 L 752.90 206.20 L 764.70 216.00 L 776.20 226.20 L 787.40 236.90 L 798.20 248.10 L 808.40 259.70 L 818.10 271.50 L 827.30 283.70 L 836.00 296.20 L 844.30 309.10 L 851.90 322.20 L 859.10 335.60 L 865.70 349.30 L 871.80 363.20 L 877.30 377.40 L 882.30 391.70 L 886.70 406.20 L 890.60 421.00 L 893.90 435.90 L 896.60 450.90 L 898.70 466.00 L 900.20 481.30 L 901.10 496.70 L 901.40 512.20 Z" fill="url(#radialGradient1)" fill-rule="evenodd" id="椭圆形" node-id="21" stroke="none" target-height="778.5" target-width="778.5" target-x="122.9" target-y="122.9"></path><path d="M 812.70 495.10 L 812.30 499.70 L 811.40 504.00 L 809.90 508.30 L 807.80 512.40 L 805.30 516.20 L 802.20 519.80 L 798.70 523.30 L 794.70 526.50 L 790.40 529.30 L 785.70 531.80 L 780.60 534.10 L 775.10 536.00 L 769.50 537.50 L 763.70 538.60 L 757.60 539.20 L 751.20 539.50 L 744.80 539.20 L 738.70 538.60 L 732.80 537.50 L 727.30 536.00 L 721.80 534.10 L 716.70 531.80 L 712.00 529.30 L 707.70 526.50 L 703.70 523.30 L 700.10 519.80 L 697.10 516.20 L 694.60 512.40 L 692.50 508.30 L 691.00 504.00 L 690.10 499.70 L 689.70 495.10 L 690.10 490.50 L 691.00 486.20 L 692.50 481.90 L 694.60 477.80 L 697.10 474.00 L 700.10 470.40 L 703.70 467.00 L 707.70 463.70 L 712.00 460.90 L 716.70 458.40 L 721.80 456.10 L 727.30 454.20 L 732.80 452.70 L 738.70 451.60 L 744.80 451.00 L 751.20 450.70 L 757.60 451.00 L 763.70 451.60 L 769.50 452.70 L 775.10 454.20 L 780.60 456.10 L 785.70 458.40 L 790.40 460.90 L 794.70 463.70 L 798.70 467.00 L 802.20 470.40 L 805.30 474.00 L 807.80 477.80 L 809.90 481.90 L 811.40 486.20 L 812.30 490.50 L 812.70 495.10 Z" fill="url(#radialGradient2)" fill-rule="evenodd" id="椭圆形" node-id="22" stroke="none" target-height="88.79999" target-width="123" target-x="689.7" target-y="450.7"></path><g node-id="100"><path d="M 211.70 495.10 L 212.00 499.70 L 212.90 504.00 L 214.40 508.30 L 216.50 512.40 L 219.10 516.20 L 222.10 519.80 L 225.60 523.30 L 229.70 526.50 L 234.00 529.30 L 238.70 531.80 L 243.70 534.10 L 249.20 536.00 L 254.80 537.50 L 260.60 538.60 L 266.70 539.20 L 273.20 539.50 L 283.90 538.80 L 294.20 536.80 L 303.90 533.60 L 312.70 529.10 L 316.60 526.50 L 320.80 523.10 L 324.40 519.60 L 327.40 515.90 L 329.90 512.10 L 332.00 507.90 L 333.40 503.80 L 334.30 499.50 L 334.60 495.10 L 334.30 490.70 L 333.40 486.50 L 332.00 482.30 L 329.90 478.10 L 327.40 474.30 L 324.40 470.60 L 320.80 467.10 L 316.60 463.70 L 312.70 461.10 L 303.90 456.60 L 294.20 453.40 L 289.10 452.20 L 278.60 450.90 L 273.20 450.70 L 266.70 451.00 L 260.60 451.60 L 254.80 452.70 L 249.20 454.20 L 243.70 456.10 L 238.70 458.40 L 234.00 460.90 L 229.70 463.70 L 225.60 467.00 L 222.10 470.40 L 219.10 474.00 L 216.50 477.80 L 214.40 481.90 L 212.90 486.20 L 212.00 490.50 L 211.70 495.10 Z" fill="url(#radialGradient-2)" fill-rule="evenodd" group-id="1" id="椭圆形备份-2" node-id="23" stroke="none" target-height="88.79999" target-width="122.90001" target-x="211.7" target-y="450.7"></path></g><g node-id="101"><path d="M 126.70 304.70 L 136.70 303.60 L 141.50 303.60 L 151.10 304.90 L 160.20 307.60 L 164.60 309.40 L 170.10 312.40 L 175.30 315.90 L 180.20 320.00 L 186.60 326.90 L 189.40 330.70 L 194.20 339.10 L 196.00 343.60 L 198.70 353.30 L 303.00 889.60 L 303.70 894.70 L 304.00 904.50 L 302.80 914.00 L 300.10 923.10 L 298.30 927.50 L 295.30 933.10 L 291.80 938.30 L 287.70 943.10 L 280.80 949.50 L 272.80 954.90 L 268.60 957.10 L 259.30 960.50 L 254.40 961.70 L 249.30 962.40 L 244.40 962.80 L 234.70 962.30 L 229.90 961.50 L 220.80 958.80 L 216.50 957.00 L 210.90 954.00 L 205.70 950.50 L 200.90 946.40 L 194.40 939.50 L 191.60 935.70 L 186.90 927.20 L 185.00 922.80 L 182.30 913.10 L 78.10 376.80 L 77.30 371.70 L 77.00 361.90 L 77.40 357.10 L 79.40 347.70 L 82.80 338.90 L 85.80 333.30 L 89.30 328.10 L 93.30 323.30 L 96.60 319.90 L 104.10 314.00 L 112.50 309.30 L 117.00 307.40 L 126.70 304.70 Z" fill="#ff5e99" fill-rule="evenodd" group-id="2" id="矩形" node-id="24" stroke="none" target-height="659.19995" target-width="227" target-x="77" target-y="303.6"></path></g><g node-id="102"><path d="M 890.80 303.80 L 900.50 306.30 L 905.00 308.10 L 913.50 312.70 L 921.10 318.50 L 924.50 321.80 L 928.60 326.50 L 932.20 331.70 L 935.30 337.20 L 938.80 345.90 L 940.00 350.50 L 941.40 360.10 L 941.60 365.00 L 940.60 375.00 L 845.80 913.00 L 844.70 918.00 L 841.40 927.30 L 839.30 931.60 L 834.10 939.60 L 827.80 946.70 L 823.00 950.80 L 817.90 954.40 L 812.40 957.50 L 808.10 959.40 L 799.00 962.20 L 789.50 963.70 L 784.60 963.80 L 774.60 962.80 L 764.80 960.30 L 760.30 958.50 L 751.80 953.90 L 747.90 951.20 L 740.90 944.90 L 736.80 940.10 L 733.20 935.00 L 730.10 929.50 L 728.20 925.10 L 725.30 916.10 L 723.90 906.50 L 723.80 901.70 L 724.70 891.60 L 819.60 353.60 L 820.70 348.60 L 823.90 339.40 L 826.00 335.00 L 831.30 327.00 L 837.60 319.90 L 842.30 315.80 L 847.50 312.20 L 853.00 309.10 L 857.30 307.20 L 866.40 304.40 L 875.90 303.00 L 880.80 302.80 L 890.80 303.80 Z" fill="#02d4d6" fill-rule="evenodd" group-id="3" id="矩形备份" node-id="25" stroke="none" target-height="661" target-width="217.79999" target-x="723.8" target-y="302.8"></path></g><g node-id="103"><g node-id="105"><path d="M 163.00 734.30 L 173.70 730.20 L 183.70 727.00 L 192.90 724.70 L 201.50 723.00 L 209.50 722.10 L 216.90 721.80 L 223.80 722.00 L 230.30 722.80 L 236.40 724.10 L 242.00 725.90 L 247.40 728.20 L 252.40 730.90 L 257.20 734.20 L 261.70 738.00 L 266.00 742.30 L 270.00 747.30 L 274.90 754.30 L 279.20 761.70 L 283.20 769.50 L 286.70 777.80 L 289.70 786.50 L 292.20 795.80 L 294.30 805.50 L 295.90 815.90 L 296.90 826.90 L 297.40 838.50 L 297.30 850.80 L 296.60 863.90 L 323.70 890.10 L 329.00 879.60 L 333.60 869.50 L 337.30 859.70 L 340.30 850.20 L 342.60 840.90 L 344.30 831.80 L 345.30 823.00 L 345.70 814.40 L 345.50 805.90 L 344.70 797.50 L 343.30 789.30 L 341.30 781.20 L 338.70 773.10 L 335.50 765.10 L 332.10 758.10 L 328.40 751.50 L 324.50 745.40 L 320.40 739.80 L 315.90 734.30 L 306.50 724.60 L 301.50 720.30 L 294.60 715.00 L 287.70 710.30 L 280.70 706.20 L 273.50 702.60 L 266.50 699.40 L 252.80 694.60 L 246.30 692.90 L 234.20 690.70 L 224.20 690.10 L 217.10 690.30 L 209.00 691.20 L 199.70 692.80 L 189.20 695.20 L 177.30 698.40 L 163.90 702.70 L 148.80 708.20 L 163.00 734.30 Z" fill="#fa8102" fill-rule="evenodd" filter="url(#filter-3)" group-id="4,6" id="路径-3" node-id="27" stroke="none" target-height="200" target-width="196.90001" target-x="148.8" target-y="690.1"></path></g><g node-id="106"><path d="M 856.90 734.30 L 846.20 730.20 L 836.30 727.00 L 827.00 724.70 L 818.50 723.00 L 810.50 722.10 L 803.00 721.80 L 796.10 722.00 L 789.60 722.80 L 783.60 724.10 L 777.90 725.90 L 772.50 728.20 L 767.50 730.90 L 762.70 734.20 L 758.20 738.00 L 754.00 742.30 L 749.90 747.30 L 745.10 754.30 L 740.70 761.70 L 736.80 769.50 L 733.30 777.80 L 730.30 786.50 L 727.70 795.80 L 725.60 805.50 L 724.10 815.90 L 723.00 826.90 L 722.50 838.50 L 722.60 850.80 L 723.40 863.90 L 696.20 890.10 L 690.90 879.60 L 686.40 869.50 L 682.60 859.70 L 679.60 850.20 L 677.30 840.90 L 675.70 831.80 L 674.60 823.00 L 674.30 814.40 L 674.50 805.90 L 675.30 797.50 L 676.70 789.30 L 678.70 781.20 L 681.30 773.10 L 684.50 765.10 L 687.90 758.10 L 691.50 751.50 L 695.40 745.40 L 699.60 739.80 L 704.10 734.30 L 713.50 724.60 L 718.40 720.30 L 725.30 715.00 L 732.30 710.30 L 739.20 706.20 L 746.40 702.60 L 753.40 699.40 L 767.20 694.60 L 773.60 692.90 L 785.80 690.70 L 795.70 690.10 L 802.80 690.30 L 811.00 691.20 L 820.20 692.80 L 830.70 695.20 L 842.70 698.40 L 856.10 702.70 L 871.20 708.20 L 856.90 734.30 Z" fill="#fa8102" fill-rule="evenodd" filter="url(#filter-4)" group-id="4,7" id="路径-3备份" node-id="28" stroke="none" target-height="200" target-width="196.90002" target-x="674.3" target-y="690.1"></path></g><path d="M 348.30 799.00 L 348.00 808.00 L 347.10 816.70 L 345.60 825.20 L 343.60 833.50 L 341.10 841.70 L 338.10 849.50 L 334.60 857.10 L 330.60 864.50 L 326.10 871.60 L 321.20 878.30 L 316.00 884.70 L 310.30 890.70 L 304.20 896.40 L 297.80 901.70 L 291.10 906.60 L 284.00 911.00 L 276.70 915.00 L 269.10 918.50 L 261.20 921.60 L 253.00 924.10 L 244.70 926.10 L 236.20 927.50 L 227.50 928.40 L 218.50 928.70 L 209.60 928.40 L 200.80 927.50 L 192.30 926.10 L 184.00 924.10 L 175.90 921.60 L 168.00 918.50 L 160.40 915.00 L 153.00 911.00 L 146.00 906.60 L 139.20 901.70 L 132.80 896.40 L 126.80 890.70 L 121.10 884.70 L 115.80 878.30 L 111.00 871.60 L 106.50 864.50 L 102.50 857.10 L 99.00 849.50 L 96.00 841.70 L 93.40 833.50 L 91.40 825.20 L 90.00 816.70 L 89.10 808.00 L 88.80 799.00 L 89.10 790.00 L 90.00 781.30 L 91.40 772.80 L 93.40 764.50 L 96.00 756.30 L 99.00 748.40 L 102.50 740.80 L 106.50 733.50 L 111.00 726.40 L 115.80 719.70 L 121.10 713.30 L 126.80 707.20 L 132.80 701.60 L 139.20 696.30 L 146.00 691.40 L 153.00 687.00 L 160.40 683.00 L 168.00 679.50 L 175.90 676.40 L 184.00 673.90 L 192.30 671.90 L 200.80 670.40 L 209.60 669.60 L 218.50 669.20 L 227.50 669.60 L 236.20 670.40 L 244.70 671.90 L 253.00 673.90 L 261.20 676.40 L 269.10 679.50 L 276.70 683.00 L 284.00 687.00 L 291.10 691.40 L 297.80 696.30 L 304.20 701.60 L 310.30 707.20 L 316.00 713.30 L 321.20 719.70 L 326.10 726.40 L 330.60 733.50 L 334.60 740.80 L 338.10 748.40 L 341.10 756.30 L 343.60 764.50 L 345.60 772.80 L 347.10 781.30 L 348.00 790.00 L 348.30 799.00 Z" fill="url(#radialGradient3)" fill-rule="evenodd" group-id="4" id="椭圆形" node-id="29" stroke="none" target-height="259.5" target-width="259.5" target-x="88.8" target-y="669.2"></path><path d="M 934.90 799.00 L 934.60 808.00 L 933.70 816.70 L 932.30 825.20 L 930.30 833.50 L 927.70 841.70 L 924.70 849.50 L 921.20 857.10 L 917.20 864.50 L 912.70 871.60 L 907.80 878.30 L 902.60 884.70 L 896.90 890.70 L 890.80 896.40 L 884.40 901.70 L 877.70 906.60 L 870.60 911.00 L 863.30 915.00 L 855.70 918.50 L 847.80 921.60 L 839.60 924.10 L 831.30 926.10 L 822.80 927.50 L 814.10 928.40 L 805.10 928.70 L 796.20 928.40 L 787.40 927.50 L 778.90 926.10 L 770.60 924.10 L 762.50 921.60 L 754.60 918.50 L 747.00 915.00 L 739.70 911.00 L 732.60 906.60 L 725.80 901.70 L 719.50 896.40 L 713.40 890.70 L 707.70 884.70 L 702.40 878.30 L 697.60 871.60 L 693.10 864.50 L 689.10 857.10 L 685.60 849.50 L 682.60 841.70 L 680.00 833.50 L 678.00 825.20 L 676.60 816.70 L 675.70 808.00 L 675.40 799.00 L 675.70 790.00 L 676.60 781.30 L 678.00 772.80 L 680.00 764.50 L 682.60 756.30 L 685.60 748.40 L 689.10 740.80 L 693.10 733.50 L 697.60 726.40 L 702.40 719.70 L 707.70 713.30 L 713.40 707.20 L 719.50 701.60 L 725.80 696.30 L 732.60 691.40 L 739.70 687.00 L 747.00 683.00 L 754.60 679.50 L 762.50 676.40 L 770.60 673.90 L 778.90 671.90 L 787.40 670.40 L 796.20 669.60 L 805.10 669.20 L 814.10 669.60 L 822.80 670.40 L 831.30 671.90 L 839.60 673.90 L 847.80 676.40 L 855.70 679.50 L 863.30 683.00 L 870.60 687.00 L 877.70 691.40 L 884.40 696.30 L 890.80 701.60 L 896.90 707.20 L 902.60 713.30 L 907.80 719.70 L 912.70 726.40 L 917.20 733.50 L 921.20 740.80 L 924.70 748.40 L 927.70 756.30 L 930.30 764.50 L 932.30 772.80 L 933.70 781.30 L 934.60 790.00 L 934.90 799.00 Z" fill="url(#radialGradient-1)" fill-rule="evenodd" group-id="4" id="椭圆形备份" node-id="30" stroke="none" target-height="259.5" target-width="259.5" target-x="675.4" target-y="669.2"></path></g><path d="M 288.20 285.80 L 295.80 285.10 L 303.50 284.90 L 311.50 285.40 L 319.70 286.50 L 327.70 288.10 L 335.90 290.30 L 344.20 292.90 L 352.60 296.20 L 360.80 299.80 L 368.90 303.90 L 377.10 308.50 L 385.20 313.50 L 397.50 322.00 L 408.30 330.90 L 416.80 339.20 L 420.80 343.90 L 423.70 348.20 L 425.80 352.10 L 426.80 354.70 L 427.80 360.00 L 427.70 362.60 L 427.30 365.10 L 426.40 367.60 L 425.10 369.80 L 423.30 372.00 L 420.90 374.00 L 418.40 375.50 L 416.10 376.60 L 413.70 377.10 L 408.60 377.30 L 405.60 376.90 L 391.00 373.90 L 382.90 372.60 L 375.00 371.80 L 367.20 371.60 L 359.60 371.90 L 352.10 372.70 L 344.70 374.10 L 337.40 376.00 L 330.40 378.30 L 323.40 381.20 L 316.40 384.70 L 309.40 388.70 L 302.40 393.30 L 295.30 398.60 L 288.20 404.50 L 286.20 406.00 L 284.10 407.00 L 281.80 407.60 L 277.20 407.80 L 272.80 406.30 L 270.80 405.00 L 269.00 403.30 L 267.50 401.30 L 266.40 399.10 L 265.80 396.90 L 265.50 394.60 L 266.20 390.00 L 267.10 387.80 L 268.40 385.80 L 270.20 384.00 L 277.70 377.70 L 285.20 372.00 L 292.80 366.90 L 300.40 362.30 L 308.00 358.30 L 315.70 354.80 L 323.50 351.80 L 331.50 349.30 L 339.60 347.30 L 347.80 345.80 L 356.10 344.80 L 364.50 344.30 L 373.00 344.40 L 382.60 345.00 L 372.70 337.90 L 361.30 330.90 L 352.20 326.00 L 343.20 321.90 L 336.20 319.10 L 329.40 316.90 L 316.40 313.70 L 309.80 312.70 L 303.60 312.30 L 297.70 312.30 L 289.60 313.00 L 287.30 312.70 L 285.00 312.00 L 282.90 310.90 L 279.50 307.80 L 278.20 305.90 L 277.20 303.70 L 276.70 301.30 L 276.50 298.80 L 276.80 296.40 L 277.50 294.20 L 278.60 292.10 L 281.70 288.70 L 283.60 287.40 L 285.80 286.40 L 288.20 285.80 Z" fill="url(#radialGradient4)" fill-rule="nonzero" id="路径-49" node-id="31" stroke="none" target-height="122.899994" target-width="162.29999" target-x="265.5" target-y="284.9"></path><g node-id="104"><path d="M 739.60 285.80 L 732.10 285.10 L 724.40 284.90 L 716.40 285.40 L 708.20 286.50 L 700.20 288.10 L 692.00 290.30 L 683.70 292.90 L 675.30 296.20 L 667.10 299.80 L 658.90 303.90 L 650.80 308.50 L 642.60 313.50 L 630.40 322.00 L 619.50 330.90 L 611.00 339.20 L 607.10 343.90 L 604.10 348.20 L 602.10 352.10 L 601.10 354.70 L 600.10 360.00 L 600.10 362.60 L 600.60 365.10 L 601.50 367.60 L 602.80 369.80 L 604.60 372.00 L 607.00 374.00 L 609.40 375.50 L 611.80 376.60 L 614.20 377.10 L 619.20 377.30 L 622.20 376.90 L 636.90 373.90 L 645.00 372.60 L 652.90 371.80 L 660.60 371.60 L 668.30 371.90 L 675.70 372.70 L 683.10 374.10 L 690.40 376.00 L 697.50 378.30 L 704.50 381.20 L 711.50 384.70 L 718.50 388.70 L 725.50 393.30 L 732.60 398.60 L 739.60 404.50 L 741.70 406.00 L 743.80 407.00 L 746.00 407.60 L 750.70 407.80 L 752.90 407.20 L 755.10 406.30 L 757.10 405.00 L 758.90 403.30 L 760.40 401.30 L 761.40 399.10 L 762.10 396.90 L 762.20 392.30 L 761.70 390.00 L 760.70 387.80 L 759.40 385.80 L 757.70 384.00 L 750.20 377.70 L 742.70 372.00 L 735.10 366.90 L 727.50 362.30 L 719.90 358.30 L 712.20 354.80 L 704.40 351.80 L 696.40 349.30 L 688.30 347.30 L 680.10 345.80 L 671.80 344.80 L 663.40 344.30 L 654.90 344.40 L 645.20 345.00 L 655.10 337.90 L 666.60 330.90 L 675.70 326.00 L 684.70 321.90 L 691.70 319.10 L 698.50 316.90 L 711.50 313.70 L 718.00 312.70 L 724.30 312.30 L 730.20 312.30 L 738.30 313.00 L 740.60 312.70 L 744.90 310.90 L 748.40 307.80 L 749.70 305.90 L 750.60 303.70 L 751.20 301.30 L 751.30 298.80 L 751.10 296.40 L 750.40 294.20 L 749.30 292.10 L 746.20 288.70 L 744.30 287.40 L 742.10 286.40 L 739.60 285.80 Z" fill="url(#radialGradient-5)" fill-rule="nonzero" group-id="5" id="路径-49备份" node-id="32" stroke="none" target-height="122.899994" target-width="162.10004" target-x="600.1" target-y="284.9"></path></g><path d="M 567.70 445.80 L 568.80 443.60 L 570.20 441.70 L 571.90 440.00 L 573.90 438.70 L 578.30 437.20 L 580.60 437.10 L 583.00 437.30 L 585.40 438.00 L 587.60 439.10 L 589.50 440.50 L 591.10 442.20 L 592.40 444.10 L 593.90 448.50 L 594.10 450.80 L 593.90 453.20 L 593.20 455.60 L 589.40 464.70 L 585.30 473.00 L 581.00 480.40 L 576.50 487.00 L 571.80 492.90 L 566.80 498.20 L 561.60 502.80 L 556.60 506.60 L 551.40 509.80 L 546.00 512.60 L 540.30 514.80 L 534.50 516.60 L 528.30 517.90 L 521.90 518.70 L 515.10 519.00 L 508.30 518.70 L 501.80 517.90 L 495.70 516.60 L 489.80 514.80 L 484.20 512.60 L 478.80 509.80 L 473.70 506.50 L 468.70 502.70 L 463.60 498.10 L 458.70 492.80 L 454.10 486.90 L 449.70 480.20 L 445.50 472.80 L 441.60 464.60 L 437.90 455.40 L 437.30 453.00 L 437.00 450.60 L 437.30 448.30 L 437.90 446.00 L 440.20 442.00 L 441.80 440.30 L 443.80 439.00 L 446.00 437.90 L 448.40 437.30 L 450.80 437.00 L 453.10 437.30 L 457.50 438.90 L 459.40 440.20 L 461.10 441.80 L 462.50 443.80 L 466.80 454.20 L 470.20 461.20 L 473.70 467.30 L 477.40 472.50 L 481.10 476.90 L 484.90 480.60 L 488.70 483.60 L 492.60 486.10 L 496.70 488.10 L 500.90 489.70 L 505.40 490.80 L 510.10 491.50 L 515.10 491.70 L 520.10 491.50 L 524.80 490.80 L 529.30 489.70 L 533.60 488.10 L 537.80 486.10 L 541.80 483.60 L 545.60 480.60 L 549.50 476.80 L 553.40 472.40 L 557.10 467.20 L 560.80 461.10 L 564.30 454.00 L 567.70 445.80 Z" fill="#672900" fill-rule="nonzero" id="路径-51" node-id="33" stroke="none" target-height="82" target-width="157.09998" target-x="437" target-y="437"></path></svg>