<?xml version="1.0" standalone="no"?><!DOCTYPE svg PUBLIC "-//W3C//DTD SVG 1.1//EN" "http://www.w3.org/Graphics/SVG/1.1/DTD/svg11.dtd"><svg height="1024" node-id="1" sillyvg="true" template-height="1024" template-width="1024" version="1.1" viewBox="0 0 1024 1024" width="1024" xmlns="http://www.w3.org/2000/svg" xmlns:xlink="http://www.w3.org/1999/xlink"><defs node-id="86"><linearGradient gradientUnits="objectBoundingBox" id="linearGradient-4" node-id="15" spreadMethod="pad" x1="0.5" x2="0.5" y1="0" y2="1"><stop offset="0" stop-color="#ffe971"></stop><stop offset="1" stop-color="#ffe058"></stop></linearGradient><linearGradient gradientUnits="objectBoundingBox" id="linearGradient-10" node-id="32" spreadMethod="pad" x1="0.5" x2="0.5" y1="0.1186253" y2="1"><stop offset="0" stop-color="#ff8b9f"></stop><stop offset="1" stop-color="#ff5166"></stop></linearGradient><linearGradient gradientUnits="objectBoundingBox" id="linearGradient1" node-id="100" spreadMethod="pad" x1="0.5" x2="0.5" y1="0.10985147" y2="1"><stop offset="0" stop-color="#fc8fad"></stop><stop offset="1" stop-color="#f81755"></stop></linearGradient><linearGradient gradientUnits="objectBoundingBox" id="linearGradient-15" node-id="45" spreadMethod="pad" x1="0.5" x2="0.5" y1="0.10985147" y2="1"><stop offset="0" stop-color="#fc8fad"></stop><stop offset="1" stop-color="#f81755"></stop></linearGradient><radialGradient cx="0.5" cy="0.1966899" fx="0.5" fy="0.1966899" gradientUnits="objectBoundingBox" id="radialGradient-1" node-id="5" r="0.9393923" rev="1" spreadMethod="pad"><stop offset="0" stop-color="#ffe476"></stop><stop offset="0.41387266" stop-color="#fcec6c"></stop><stop offset="1" stop-color="#ffb02f"></stop></radialGradient><filter height="975.936" id="filter-3" node-id="10" width="1056.096" x="-72.048004" y="-72.383995"><feGaussianBlur color-interpolation-filters="linearRGB" in="SourceAlpha" result="shadowBlurInner1" stdDeviation="64 64"></feGaussianBlur><feOffset color-interpolation-filters="linearRGB" dx="0" dy="16" in="shadowBlurInner1" result="shadowOffsetInner1"></feOffset><feComposite color-interpolation-filters="linearRGB" in="shadowOffsetInner1" in2="SourceAlpha" k1="0" k2="-1" k3="1" k4="0" operator="arithmetic" result="shadowInnerInner1"></feComposite><feColorMatrix color-interpolation-filters="linearRGB" in="shadowInnerInner1" result="result4" type="matrix" values="0 0 0 0 0.96862745 0 0 0 0 0.6862745 0 0 0 0 0.27058825 0 0 0 0.5011456 0"></feColorMatrix></filter><filter height="400.064" id="filter-6" node-id="19" width="415.66504" x="-87.97524" y="-56"><feGaussianBlur color-interpolation-filters="linearRGB" in="SourceGraphic" result="result1" stdDeviation="8 8"></feGaussianBlur></filter><filter height="495.936" id="filter-7" node-id="21" width="511.79053" x="-135.91817" y="-103.936005"><feOffset color-interpolation-filters="linearRGB" dx="0" dy="32" in="SourceAlpha" result="shadowOffsetOuter1"></feOffset><feGaussianBlur color-interpolation-filters="linearRGB" in="shadowOffsetOuter1" result="shadowBlurOuter1" stdDeviation="32 32"></feGaussianBlur><feComposite color-interpolation-filters="linearRGB" in="shadowBlurOuter1" in2="SourceAlpha" operator="out" result="shadowBlurOuter1"></feComposite><feColorMatrix color-interpolation-filters="linearRGB" in="shadowBlurOuter1" result="result4" type="matrix" values="0 0 0 0 0.8909921 0 0 0 0 0.65693504 0 0 0 0 0.20072205 0 0 0 0.6933799 0"></feColorMatrix></filter><filter height="189.05502" id="filter-9" node-id="27" width="217.9322" x="10.790189" y="10.183224"><feGaussianBlur color-interpolation-filters="linearRGB" in="SourceAlpha" result="shadowBlurInner1" stdDeviation="8 8"></feGaussianBlur><feOffset color-interpolation-filters="linearRGB" dx="0" dy="0" in="shadowBlurInner1" result="shadowOffsetInner1"></feOffset><feComposite color-interpolation-filters="linearRGB" in="shadowOffsetInner1" in2="SourceAlpha" k1="0" k2="-1" k3="1" k4="0" operator="arithmetic" result="shadowInnerInner1"></feComposite><feColorMatrix color-interpolation-filters="linearRGB" in="shadowInnerInner1" result="result4" type="matrix" values="0 0 0 0 0.6612584 0 0 0 0 0.08722547 0 0 0 0 0.009827761 0 0 0 1 0"></feColorMatrix></filter><filter height="188.90422" id="filter-12" node-id="36" width="217.9322" x="10.790193" y="10.327531"><feGaussianBlur color-interpolation-filters="linearRGB" in="SourceAlpha" result="shadowBlurInner1" stdDeviation="8 8"></feGaussianBlur><feOffset color-interpolation-filters="linearRGB" dx="0" dy="0" in="shadowBlurInner1" result="shadowOffsetInner1"></feOffset><feComposite color-interpolation-filters="linearRGB" in="shadowOffsetInner1" in2="SourceAlpha" k1="0" k2="-1" k3="1" k4="0" operator="arithmetic" result="shadowInnerInner1"></feComposite><feColorMatrix color-interpolation-filters="linearRGB" in="shadowInnerInner1" result="result4" type="matrix" values="0 0 0 0 0.6612584 0 0 0 0 0.08722547 0 0 0 0 0.009827761 0 0 0 1 0"></feColorMatrix></filter><filter height="448" id="filter-13" node-id="41" width="463.93604" x="464.03198" y="264"><feGaussianBlur color-interpolation-filters="linearRGB" in="SourceGraphic" result="result1" stdDeviation="48 48"></feGaussianBlur></filter><filter height="448" id="filter-14" node-id="43" width="463.93604" x="-15.968002" y="264"><feGaussianBlur color-interpolation-filters="linearRGB" in="SourceGraphic" result="result1" stdDeviation="48 48"></feGaussianBlur></filter><filter height="467.33902" id="filter-17" node-id="49" width="494.68167" x="-45.324654" y="58.933872"><feGaussianBlur color-interpolation-filters="linearRGB" in="SourceAlpha" result="shadowBlurInner1" stdDeviation="40 40"></feGaussianBlur><feOffset color-interpolation-filters="linearRGB" dx="0" dy="-16" in="shadowBlurInner1" result="shadowOffsetInner1"></feOffset><feComposite color-interpolation-filters="linearRGB" in="shadowOffsetInner1" in2="SourceAlpha" k1="0" k2="-1" k3="1" k4="0" operator="arithmetic" result="shadowInnerInner1"></feComposite><feColorMatrix color-interpolation-filters="linearRGB" in="shadowInnerInner1" result="result4" type="matrix" values="0 0 0 0 0.85107464 0 0 0 0 0.12963614 0 0 0 0 0.31372735 0 0 0 1 0"></feColorMatrix></filter><filter height="467.33902" id="filter-19" node-id="55" width="494.68164" x="447.04163" y="58.933872"><feGaussianBlur color-interpolation-filters="linearRGB" in="SourceAlpha" result="shadowBlurInner1" stdDeviation="40 40"></feGaussianBlur><feOffset color-interpolation-filters="linearRGB" dx="0" dy="-16" in="shadowBlurInner1" result="shadowOffsetInner1"></feOffset><feComposite color-interpolation-filters="linearRGB" in="shadowOffsetInner1" in2="SourceAlpha" k1="0" k2="-1" k3="1" k4="0" operator="arithmetic" result="shadowInnerInner1"></feComposite><feColorMatrix color-interpolation-filters="linearRGB" in="shadowInnerInner1" result="result4" type="matrix" values="0 0 0 0 0.85107464 0 0 0 0 0.12963614 0 0 0 0 0.31372735 0 0 0 1 0"></feColorMatrix></filter></defs><g node-id="274"><path d="M 0.00 0.00 L 1024.00 0.00 L 1024.00 1024.00 L 0.00 1024.00 Z" fill="none" group-id="1" id="矩形备份-8" node-id="62" stroke="none" target-height="1024" target-width="1024" target-x="0" target-y="0"></path><g node-id="275"><g node-id="276"><g node-id="282"><path d="M 493.60 96.40 L 508.00 96.00 L 522.10 96.30 L 535.90 97.10 L 549.50 98.60 L 562.80 100.60 L 576.20 103.30 L 589.20 106.40 L 601.90 110.20 L 614.30 114.40 L 626.40 119.20 L 638.30 124.60 L 649.80 130.50 L 661.00 136.80 L 671.90 143.60 L 682.40 150.90 L 692.50 158.80 L 702.30 167.00 L 711.60 175.70 L 720.60 184.80 L 729.10 194.30 L 737.20 204.30 L 744.80 214.60 L 751.90 225.30 L 758.60 236.50 L 764.80 248.10 L 776.10 253.30 L 787.30 259.00 L 798.30 265.00 L 809.10 271.40 L 819.90 278.30 L 833.00 287.20 L 845.70 296.70 L 858.00 306.80 L 870.00 317.30 L 879.30 326.10 L 888.20 335.20 L 896.90 344.60 L 905.20 354.20 L 913.20 364.20 L 920.90 374.40 L 928.10 384.80 L 935.00 395.50 L 941.50 406.40 L 947.60 417.60 L 953.30 429.00 L 958.50 440.60 L 963.20 452.30 L 967.40 464.30 L 971.20 476.40 L 974.50 488.70 L 977.20 501.20 L 979.40 513.80 L 981.10 526.60 L 982.20 539.60 L 982.70 552.50 L 982.60 565.50 L 981.90 578.80 L 980.60 592.20 L 978.60 605.70 L 975.80 620.60 L 972.50 635.00 L 968.80 648.90 L 964.70 662.40 L 960.30 675.50 L 955.40 688.20 L 949.90 700.90 L 944.10 713.20 L 937.80 725.10 L 931.20 736.60 L 924.30 747.70 L 916.90 758.50 L 909.10 769.10 L 900.90 779.30 L 892.40 789.10 L 883.50 798.60 L 874.20 807.80 L 864.50 816.60 L 854.60 825.10 L 844.30 833.20 L 833.70 841.00 L 822.70 848.40 L 811.40 855.60 L 790.90 867.80 L 781.60 873.10 L 771.60 878.20 L 760.90 883.20 L 750.20 887.80 L 738.80 892.20 L 726.60 896.50 L 713.60 900.60 L 686.90 907.70 L 672.20 911.00 L 641.10 916.80 L 607.20 921.50 L 588.60 923.50 L 567.40 925.40 L 546.70 926.80 L 526.30 927.60 L 506.40 928.00 L 486.80 927.90 L 466.90 927.30 L 447.50 926.10 L 428.60 924.50 L 410.20 922.50 L 392.20 919.90 L 374.00 916.70 L 356.30 913.10 L 339.20 909.00 L 322.60 904.40 L 306.40 899.30 L 292.90 894.60 L 279.80 889.50 L 267.10 884.10 L 254.80 878.40 L 242.90 872.30 L 231.30 865.90 L 219.80 859.00 L 208.80 851.80 L 198.20 844.20 L 187.90 836.30 L 178.00 828.00 L 168.60 819.30 L 159.40 810.30 L 150.70 800.90 L 142.40 791.10 L 134.50 780.90 L 127.00 770.40 L 119.90 759.40 L 113.30 748.20 L 107.20 736.60 L 101.50 724.60 L 96.20 712.20 L 91.40 699.20 L 87.00 685.80 L 83.20 672.50 L 79.90 658.70 L 77.10 644.40 L 74.70 629.60 L 72.90 614.20 L 71.60 598.20 L 70.90 583.10 L 70.80 568.60 L 71.20 554.60 L 72.10 541.20 L 73.60 528.40 L 75.60 515.30 L 78.20 502.70 L 81.10 490.60 L 84.60 479.00 L 88.50 467.80 L 92.90 456.60 L 97.80 445.90 L 103.10 435.50 L 108.80 425.60 L 114.90 416.00 L 121.50 406.60 L 128.50 397.60 L 135.80 388.90 L 143.60 380.60 L 151.70 372.50 L 160.20 364.80 L 169.00 357.40 L 178.20 350.30 L 187.80 343.40 L 197.70 336.90 L 200.60 323.40 L 203.90 310.50 L 207.60 298.00 L 211.60 286.10 L 215.90 274.60 L 220.60 263.60 L 225.60 253.10 L 231.10 242.40 L 237.00 232.20 L 243.20 222.40 L 249.70 213.10 L 256.50 204.10 L 263.60 195.60 L 271.00 187.40 L 280.20 178.20 L 289.80 169.50 L 299.70 161.30 L 310.10 153.60 L 320.90 146.30 L 332.20 139.60 L 343.60 133.40 L 355.50 127.70 L 367.70 122.40 L 380.40 117.60 L 393.50 113.20 L 407.00 109.30 L 420.40 106.00 L 434.30 103.20 L 448.50 100.80 L 463.10 98.90 L 478.10 97.40 L 493.60 96.40 Z" fill="url(#radialGradient-1)" fill-rule="evenodd" group-id="1,2,3,9" node-id="201" stroke="none" target-height="832" target-width="911.9" target-x="70.8" target-y="96"></path></g><path d="M 493.60 96.40 L 508.00 96.00 L 522.10 96.30 L 535.90 97.10 L 549.50 98.60 L 562.80 100.60 L 576.20 103.30 L 589.20 106.40 L 601.90 110.20 L 614.30 114.40 L 626.40 119.20 L 638.30 124.60 L 649.80 130.50 L 661.00 136.80 L 671.90 143.60 L 682.40 150.90 L 692.50 158.80 L 702.30 167.00 L 711.60 175.70 L 720.60 184.80 L 729.10 194.30 L 737.20 204.30 L 744.80 214.60 L 751.90 225.30 L 758.60 236.50 L 764.80 248.10 L 776.10 253.30 L 787.30 259.00 L 798.30 265.00 L 809.10 271.40 L 819.90 278.30 L 833.00 287.20 L 845.70 296.70 L 858.00 306.80 L 870.00 317.30 L 879.30 326.10 L 888.20 335.20 L 896.90 344.60 L 905.20 354.20 L 913.20 364.20 L 920.90 374.40 L 928.10 384.80 L 935.00 395.50 L 941.50 406.40 L 947.60 417.60 L 953.30 429.00 L 958.50 440.60 L 963.20 452.30 L 967.40 464.30 L 971.20 476.40 L 974.50 488.70 L 977.20 501.20 L 979.40 513.80 L 981.10 526.60 L 982.20 539.60 L 982.70 552.50 L 982.60 565.50 L 981.90 578.80 L 980.60 592.20 L 978.60 605.70 L 975.80 620.60 L 972.50 635.00 L 968.80 648.90 L 964.70 662.40 L 960.30 675.50 L 955.40 688.20 L 949.90 700.90 L 944.10 713.20 L 937.80 725.10 L 931.20 736.60 L 924.30 747.70 L 916.90 758.50 L 909.10 769.10 L 900.90 779.30 L 892.40 789.10 L 883.50 798.60 L 874.20 807.80 L 864.50 816.60 L 854.60 825.10 L 844.30 833.20 L 833.70 841.00 L 822.70 848.40 L 811.40 855.60 L 790.90 867.80 L 781.60 873.10 L 771.60 878.20 L 760.90 883.20 L 750.20 887.80 L 738.80 892.20 L 726.60 896.50 L 713.60 900.60 L 686.90 907.70 L 672.20 911.00 L 641.10 916.80 L 607.20 921.50 L 588.60 923.50 L 567.40 925.40 L 546.70 926.80 L 526.30 927.60 L 506.40 928.00 L 486.80 927.90 L 466.90 927.30 L 447.50 926.10 L 428.60 924.50 L 410.20 922.50 L 392.20 919.90 L 374.00 916.70 L 356.30 913.10 L 339.20 909.00 L 322.60 904.40 L 306.40 899.30 L 292.90 894.60 L 279.80 889.50 L 267.10 884.10 L 254.80 878.40 L 242.90 872.30 L 231.30 865.90 L 219.80 859.00 L 208.80 851.80 L 198.20 844.20 L 187.90 836.30 L 178.00 828.00 L 168.60 819.30 L 159.40 810.30 L 150.70 800.90 L 142.40 791.10 L 134.50 780.90 L 127.00 770.40 L 119.90 759.40 L 113.30 748.20 L 107.20 736.60 L 101.50 724.60 L 96.20 712.20 L 91.40 699.20 L 87.00 685.80 L 83.20 672.50 L 79.90 658.70 L 77.10 644.40 L 74.70 629.60 L 72.90 614.20 L 71.60 598.20 L 70.90 583.10 L 70.80 568.60 L 71.20 554.60 L 72.10 541.20 L 73.60 528.40 L 75.60 515.30 L 78.20 502.70 L 81.10 490.60 L 84.60 479.00 L 88.50 467.80 L 92.90 456.60 L 97.80 445.90 L 103.10 435.50 L 108.80 425.60 L 114.90 416.00 L 121.50 406.60 L 128.50 397.60 L 135.80 388.90 L 143.60 380.60 L 151.70 372.50 L 160.20 364.80 L 169.00 357.40 L 178.20 350.30 L 187.80 343.40 L 197.70 336.90 L 200.60 323.40 L 203.90 310.50 L 207.60 298.00 L 211.60 286.10 L 215.90 274.60 L 220.60 263.60 L 225.60 253.10 L 231.10 242.40 L 237.00 232.20 L 243.20 222.40 L 249.70 213.10 L 256.50 204.10 L 263.60 195.60 L 271.00 187.40 L 280.20 178.20 L 289.80 169.50 L 299.70 161.30 L 310.10 153.60 L 320.90 146.30 L 332.20 139.60 L 343.60 133.40 L 355.50 127.70 L 367.70 122.40 L 380.40 117.60 L 393.50 113.20 L 407.00 109.30 L 420.40 106.00 L 434.30 103.20 L 448.50 100.80 L 463.10 98.90 L 478.10 97.40 L 493.60 96.40 Z" fill="#000000" fill-rule="evenodd" filter="url(#filter-3)" group-id="1,2,3,10" node-id="206" stroke="none" target-height="832" target-width="911.9" target-x="70.8" target-y="96"></path></g><g node-id="277"><g node-id="284"><g node-id="291"><path d="M 413.10 687.90 L 410.80 677.80 L 409.00 668.50 L 407.70 660.00 L 407.00 652.10 L 406.70 645.50 L 406.90 639.50 L 407.40 633.90 L 408.30 628.80 L 409.60 624.10 L 411.30 619.40 L 413.50 615.10 L 416.10 611.20 L 419.20 607.60 L 422.80 604.40 L 426.60 601.70 L 430.90 599.20 L 436.00 597.10 L 441.70 595.30 L 448.30 593.80 L 453.80 593.10 L 463.60 592.50 L 479.70 592.10 L 504.20 592.00 L 539.70 592.50 L 588.90 593.80 L 595.30 594.00 L 601.20 594.70 L 606.80 595.90 L 612.00 597.50 L 617.10 599.60 L 621.80 602.00 L 626.10 604.90 L 630.10 608.20 L 633.70 611.80 L 636.90 615.90 L 639.60 620.30 L 642.00 625.20 L 643.80 630.30 L 645.20 635.70 L 646.10 641.70 L 646.40 648.10 L 646.30 654.40 L 645.60 661.10 L 644.20 668.40 L 639.80 684.70 L 631.90 708.50 L 623.40 729.20 L 614.30 747.70 L 605.60 762.40 L 600.80 769.50 L 595.70 776.30 L 590.30 782.90 L 584.50 789.10 L 578.30 794.80 L 571.90 800.00 L 566.80 803.50 L 561.50 806.60 L 556.00 809.30 L 550.30 811.70 L 544.50 813.50 L 538.40 814.90 L 532.10 815.70 L 525.40 816.00 L 518.10 815.70 L 511.00 814.90 L 504.20 813.50 L 497.60 811.70 L 491.20 809.20 L 485.00 806.30 L 479.00 802.80 L 473.10 798.70 L 467.40 794.00 L 461.80 788.70 L 456.30 782.60 L 450.90 775.90 L 445.60 768.30 L 440.50 759.90 L 435.50 750.60 L 430.70 740.30 L 426.00 729.00 L 421.50 716.50 L 417.20 702.80 L 413.10 687.90 Z" fill="#000000" fill-rule="evenodd" filter="url(#filter-7)" group-id="1,2,4,11,18" node-id="214" stroke="none" target-height="224" target-width="239.70001" target-x="406.7" target-y="592"></path></g><path d="M 413.10 687.90 L 410.80 677.80 L 409.00 668.50 L 407.70 660.00 L 407.00 652.10 L 406.70 645.50 L 406.90 639.50 L 407.40 633.90 L 408.30 628.80 L 409.60 624.10 L 411.30 619.40 L 413.50 615.10 L 416.10 611.20 L 419.20 607.60 L 422.80 604.40 L 426.60 601.70 L 430.90 599.20 L 436.00 597.10 L 441.70 595.30 L 448.30 593.80 L 453.80 593.10 L 463.60 592.50 L 479.70 592.10 L 504.20 592.00 L 539.70 592.50 L 588.90 593.80 L 595.30 594.00 L 601.20 594.70 L 606.80 595.90 L 612.00 597.50 L 617.10 599.60 L 621.80 602.00 L 626.10 604.90 L 630.10 608.20 L 633.70 611.80 L 636.90 615.90 L 639.60 620.30 L 642.00 625.20 L 643.80 630.30 L 645.20 635.70 L 646.10 641.70 L 646.40 648.10 L 646.30 654.40 L 645.60 661.10 L 644.20 668.40 L 639.80 684.70 L 631.90 708.50 L 623.40 729.20 L 614.30 747.70 L 605.60 762.40 L 600.80 769.50 L 595.70 776.30 L 590.30 782.90 L 584.50 789.10 L 578.30 794.80 L 571.90 800.00 L 566.80 803.50 L 561.50 806.60 L 556.00 809.30 L 550.30 811.70 L 544.50 813.50 L 538.40 814.90 L 532.10 815.70 L 525.40 816.00 L 518.10 815.70 L 511.00 814.90 L 504.20 813.50 L 497.60 811.70 L 491.20 809.20 L 485.00 806.30 L 479.00 802.80 L 473.10 798.70 L 467.40 794.00 L 461.80 788.70 L 456.30 782.60 L 450.90 775.90 L 445.60 768.30 L 440.50 759.90 L 435.50 750.60 L 430.70 740.30 L 426.00 729.00 L 421.50 716.50 L 417.20 702.80 L 413.10 687.90 Z" fill="url(#linearGradient-4)" fill-opacity="0.4" fill-rule="evenodd" group-id="1,2,4,11,19" node-id="219" stroke="none" target-height="224" target-width="239.70001" target-x="406.7" target-y="592"></path></g><g node-id="285"><g node-id="293"><path d="M 431.00 683.50 L 428.50 673.60 L 426.90 664.70 L 425.90 656.80 L 425.60 650.60 L 425.80 645.10 L 426.40 640.10 L 427.50 635.50 L 428.70 631.90 L 430.30 628.60 L 432.20 625.60 L 434.40 622.80 L 437.10 620.20 L 439.90 618.00 L 443.10 616.00 L 446.80 614.20 L 451.10 612.60 L 459.00 610.40 L 461.00 610.20 L 494.20 610.50 L 579.10 610.30 L 585.80 610.60 L 592.00 611.50 L 597.60 612.80 L 602.80 614.70 L 606.90 616.70 L 610.50 619.00 L 613.90 621.50 L 616.80 624.30 L 619.50 627.50 L 621.80 630.90 L 623.80 634.60 L 625.30 638.60 L 626.50 642.90 L 627.30 647.70 L 627.60 652.30 L 627.50 657.20 L 626.90 662.50 L 625.70 668.20 L 624.10 674.30 L 619.50 688.20 L 613.30 704.30 L 609.10 713.60 L 604.40 723.10 L 598.80 732.90 L 590.20 745.50 L 585.40 751.60 L 580.30 757.40 L 574.70 762.70 L 568.90 767.70 L 564.20 771.00 L 559.40 774.00 L 554.30 776.60 L 549.00 778.90 L 543.60 780.70 L 537.90 782.00 L 531.90 782.80 L 525.60 783.10 L 518.60 782.80 L 511.90 782.00 L 505.50 780.70 L 499.30 778.80 L 493.40 776.40 L 487.60 773.50 L 482.10 770.00 L 476.60 766.00 L 471.40 761.30 L 466.30 756.00 L 461.30 750.00 L 456.50 743.30 L 451.80 735.70 L 447.30 727.30 L 442.90 717.90 L 438.70 707.50 L 434.70 696.10 L 431.00 683.50 Z" fill="#ed1f2a" fill-rule="evenodd" group-id="1,2,4,12,20" node-id="226" stroke="none" target-height="172.89996" target-width="201.99997" target-x="425.6" target-y="610.2"></path></g><path d="M 431.00 683.50 L 428.50 673.60 L 426.90 664.70 L 425.90 656.80 L 425.60 650.60 L 425.80 645.10 L 426.40 640.10 L 427.50 635.50 L 428.70 631.90 L 430.30 628.60 L 432.20 625.60 L 434.40 622.80 L 437.10 620.20 L 439.90 618.00 L 443.10 616.00 L 446.80 614.20 L 451.10 612.60 L 459.00 610.40 L 461.00 610.20 L 494.20 610.50 L 579.10 610.30 L 585.80 610.60 L 592.00 611.50 L 597.60 612.80 L 602.80 614.70 L 606.90 616.70 L 610.50 619.00 L 613.90 621.50 L 616.80 624.30 L 619.50 627.50 L 621.80 630.90 L 623.80 634.60 L 625.30 638.60 L 626.50 642.90 L 627.30 647.70 L 627.60 652.30 L 627.50 657.20 L 626.90 662.50 L 625.70 668.20 L 624.10 674.30 L 619.50 688.20 L 613.30 704.30 L 609.10 713.60 L 604.40 723.10 L 598.80 732.90 L 590.20 745.50 L 585.40 751.60 L 580.30 757.40 L 574.70 762.70 L 568.90 767.70 L 564.20 771.00 L 559.40 774.00 L 554.30 776.60 L 549.00 778.90 L 543.60 780.70 L 537.90 782.00 L 531.90 782.80 L 525.60 783.10 L 518.60 782.80 L 511.90 782.00 L 505.50 780.70 L 499.30 778.80 L 493.40 776.40 L 487.60 773.50 L 482.10 770.00 L 476.60 766.00 L 471.40 761.30 L 466.30 756.00 L 461.30 750.00 L 456.50 743.30 L 451.80 735.70 L 447.30 727.30 L 442.90 717.90 L 438.70 707.50 L 434.70 696.10 L 431.00 683.50 Z" fill="#000000" fill-rule="evenodd" filter="url(#filter-9)" group-id="1,2,4,12,21" node-id="231" stroke="none" target-height="172.89996" target-width="201.99997" target-x="425.6" target-y="610.2"></path></g><path d="M 526.60 719.70 L 533.20 719.90 L 539.60 720.60 L 545.70 721.70 L 551.60 723.20 L 563.00 727.20 L 568.20 729.70 L 578.00 735.50 L 582.40 738.80 L 590.10 745.70 L 586.10 750.80 L 577.40 760.20 L 572.70 764.60 L 567.80 768.50 L 562.60 772.10 L 557.10 775.30 L 551.30 778.00 L 545.30 780.20 L 535.90 782.30 L 525.60 783.10 L 518.40 782.80 L 511.50 781.90 L 504.80 780.50 L 498.50 778.50 L 492.40 775.90 L 486.40 772.80 L 480.70 769.10 L 475.20 764.70 L 469.80 759.70 L 464.60 754.00 L 459.50 747.60 L 467.60 740.10 L 472.40 736.60 L 482.60 730.50 L 488.30 727.80 L 494.10 725.40 L 500.20 723.50 L 506.60 721.80 L 513.10 720.70 L 519.70 719.90 L 526.60 719.70 Z" fill="url(#linearGradient-10)" fill-rule="evenodd" group-id="1,2,4" id="路径" node-id="74" stroke="none" target-height="63.399963" target-width="130.59998" target-x="459.5" target-y="719.7"></path><g node-id="286"><g node-id="295"><path d="M 431.00 683.50 L 427.50 668.40 L 425.80 655.60 L 425.60 649.30 L 425.90 643.60 L 426.70 638.50 L 428.00 633.80 L 429.50 630.20 L 431.30 626.90 L 433.50 623.80 L 436.10 621.10 L 439.10 618.50 L 442.30 616.40 L 446.00 614.50 L 450.20 612.90 L 455.10 611.40 L 460.60 610.30 L 478.50 612.00 L 496.00 613.20 L 513.20 613.80 L 530.10 613.80 L 546.70 613.20 L 563.00 612.00 L 579.10 610.30 L 585.80 610.60 L 592.00 611.50 L 597.60 612.80 L 602.80 614.70 L 606.90 616.70 L 610.50 619.00 L 613.90 621.50 L 616.80 624.30 L 619.50 627.50 L 621.80 630.90 L 623.80 634.60 L 625.30 638.60 L 626.50 642.90 L 627.30 647.70 L 627.60 652.30 L 627.50 657.20 L 626.90 662.50 L 625.70 668.20 L 624.10 674.30 L 619.50 688.20 L 613.30 704.30 L 609.10 713.60 L 604.40 723.10 L 598.80 732.90 L 590.20 745.50 L 585.40 751.60 L 580.30 757.40 L 574.70 762.70 L 568.90 767.70 L 564.20 771.00 L 559.40 774.00 L 554.30 776.60 L 549.00 778.90 L 543.60 780.70 L 537.90 782.00 L 531.90 782.80 L 525.60 783.10 L 518.60 782.80 L 511.90 782.00 L 505.50 780.70 L 499.30 778.80 L 493.40 776.40 L 487.60 773.50 L 482.10 770.00 L 476.60 766.00 L 471.40 761.30 L 466.30 756.00 L 461.30 750.00 L 456.50 743.30 L 451.80 735.70 L 447.30 727.30 L 442.90 717.90 L 438.70 707.50 L 434.70 696.10 L 431.00 683.50 Z" fill="#000000" fill-rule="evenodd" filter="url(#filter-12)" group-id="1,2,4,13,22" node-id="239" stroke="none" target-height="172.79999" target-width="201.99997" target-x="425.6" target-y="610.3"></path></g></g></g><g node-id="278"><path d="M 854.70 584.00 L 854.40 590.60 L 853.60 597.00 L 852.20 603.30 L 850.30 609.30 L 847.80 615.20 L 844.90 620.80 L 841.60 626.10 L 837.80 631.20 L 833.60 636.10 L 829.00 640.50 L 824.10 644.70 L 818.70 648.60 L 813.10 652.00 L 807.20 655.00 L 801.10 657.70 L 794.60 659.90 L 787.90 661.70 L 781.10 662.90 L 774.10 663.70 L 766.70 664.00 L 759.40 663.70 L 752.40 662.90 L 745.50 661.70 L 738.90 659.90 L 732.40 657.70 L 726.20 655.00 L 720.40 652.00 L 714.80 648.60 L 709.40 644.70 L 704.50 640.50 L 699.90 636.10 L 695.70 631.20 L 691.90 626.10 L 688.60 620.80 L 685.70 615.20 L 683.20 609.30 L 681.30 603.30 L 679.90 597.00 L 679.00 590.60 L 678.70 584.00 L 679.00 577.40 L 679.90 571.00 L 681.30 564.80 L 683.20 558.70 L 685.70 552.80 L 688.60 547.20 L 691.90 541.90 L 695.70 536.80 L 699.90 531.90 L 704.50 527.50 L 709.40 523.30 L 714.80 519.40 L 720.40 516.00 L 726.20 513.00 L 732.40 510.30 L 738.90 508.10 L 745.50 506.30 L 752.40 505.10 L 759.40 504.30 L 766.70 504.00 L 774.10 504.30 L 781.10 505.10 L 787.90 506.30 L 794.60 508.10 L 801.10 510.30 L 807.20 513.00 L 813.10 516.00 L 818.70 519.40 L 824.10 523.30 L 829.00 527.50 L 833.60 531.90 L 837.80 536.80 L 841.60 541.90 L 844.90 547.20 L 847.80 552.80 L 850.30 558.70 L 852.20 564.70 L 853.60 571.00 L 854.40 577.40 L 854.70 584.00 Z" fill="#ff5ea4" fill-opacity="0.8" fill-rule="evenodd" filter="url(#filter-13)" group-id="1,2,5" id="椭圆形" node-id="77" stroke="none" target-height="160" target-width="176" target-x="678.7" target-y="504"></path></g><g node-id="279"><path d="M 374.70 584.00 L 374.40 590.60 L 373.60 597.00 L 372.20 603.30 L 370.30 609.30 L 367.80 615.20 L 364.90 620.80 L 361.60 626.10 L 357.80 631.20 L 353.60 636.10 L 349.00 640.50 L 344.10 644.70 L 338.70 648.60 L 333.10 652.00 L 327.20 655.00 L 321.10 657.70 L 314.60 659.90 L 307.90 661.70 L 301.10 662.90 L 294.10 663.70 L 286.70 664.00 L 279.40 663.70 L 272.40 662.90 L 265.50 661.70 L 258.90 659.90 L 252.40 657.70 L 246.20 655.00 L 240.40 652.00 L 234.80 648.60 L 229.40 644.70 L 224.50 640.50 L 219.90 636.10 L 215.70 631.20 L 211.90 626.10 L 208.60 620.80 L 205.70 615.20 L 203.20 609.30 L 201.30 603.30 L 199.90 597.00 L 199.00 590.60 L 198.70 584.00 L 199.00 577.40 L 199.90 571.00 L 201.30 564.70 L 203.20 558.70 L 205.70 552.80 L 208.60 547.20 L 211.90 541.90 L 215.70 536.80 L 219.90 531.90 L 224.50 527.50 L 229.40 523.30 L 234.80 519.40 L 240.40 516.00 L 246.20 513.00 L 252.40 510.30 L 258.90 508.10 L 265.50 506.30 L 272.40 505.10 L 279.40 504.30 L 286.70 504.00 L 294.10 504.30 L 301.10 505.10 L 307.90 506.30 L 314.60 508.10 L 321.10 510.30 L 327.20 513.00 L 333.10 516.00 L 338.70 519.40 L 344.10 523.30 L 349.00 527.50 L 353.60 531.90 L 357.80 536.80 L 361.60 541.90 L 364.90 547.20 L 367.80 552.80 L 370.30 558.70 L 372.20 564.70 L 373.60 571.00 L 374.40 577.40 L 374.70 584.00 Z" fill="#ff5ea4" fill-opacity="0.8" fill-rule="evenodd" filter="url(#filter-14)" group-id="1,2,6" id="椭圆形备份-6" node-id="78" stroke="none" target-height="160" target-width="176.00002" target-x="198.7" target-y="504"></path></g><g node-id="280"><g node-id="287"><path d="M 332.30 570.00 L 340.50 567.50 L 348.60 564.30 L 356.60 560.40 L 364.70 555.90 L 372.30 550.90 L 379.90 545.40 L 387.30 539.30 L 394.60 532.60 L 401.60 525.50 L 408.30 518.10 L 414.80 510.10 L 421.20 501.60 L 427.10 493.00 L 432.80 483.90 L 438.10 474.60 L 443.20 464.80 L 447.90 454.90 L 452.20 444.80 L 456.10 434.40 L 459.70 423.80 L 462.80 413.10 L 465.50 402.20 L 467.70 391.30 L 469.50 380.30 L 470.80 369.10 L 471.60 358.00 L 471.90 347.00 L 471.60 335.90 L 470.80 324.80 L 469.40 313.90 L 467.50 303.10 L 465.00 292.40 L 462.40 283.90 L 459.40 275.90 L 456.10 268.40 L 452.40 261.30 L 448.20 254.40 L 443.70 248.00 L 439.00 242.00 L 433.90 236.50 L 428.50 231.20 L 422.80 226.50 L 417.00 222.10 L 411.00 218.20 L 404.70 214.70 L 398.20 211.70 L 391.70 209.10 L 385.00 206.90 L 378.20 205.20 L 371.30 204.00 L 364.40 203.20 L 357.40 202.80 L 350.50 203.00 L 343.50 203.60 L 336.60 204.70 L 329.70 206.30 L 320.20 209.10 L 311.90 212.10 L 304.70 215.20 L 297.60 218.70 L 291.50 222.20 L 286.20 225.60 L 276.80 233.10 L 270.70 239.10 L 264.60 246.30 L 254.20 260.60 L 252.70 262.00 L 250.20 263.50 L 248.40 263.60 L 245.60 262.80 L 231.60 255.00 L 225.80 252.50 L 218.40 250.10 L 212.90 248.90 L 206.30 247.90 L 199.80 247.40 L 192.10 247.40 L 183.20 248.00 L 174.40 249.10 L 164.20 251.00 L 152.50 253.80 L 145.40 255.90 L 138.70 258.30 L 132.30 261.10 L 126.20 264.30 L 120.40 267.70 L 114.80 271.60 L 109.50 275.70 L 104.50 280.20 L 99.90 284.90 L 95.60 290.00 L 91.60 295.30 L 88.00 300.90 L 84.80 306.80 L 81.90 313.00 L 79.40 319.50 L 77.30 326.00 L 75.70 332.80 L 74.50 340.00 L 73.60 347.40 L 73.30 355.10 L 73.30 362.70 L 73.90 370.50 L 74.90 378.70 L 76.50 387.10 L 78.60 395.90 L 81.70 406.50 L 85.50 416.80 L 89.70 426.90 L 94.60 436.90 L 99.90 446.60 L 105.70 456.10 L 111.90 465.30 L 118.60 474.30 L 125.70 483.00 L 133.10 491.30 L 140.80 499.30 L 148.90 507.10 L 157.20 514.50 L 165.80 521.50 L 174.60 528.10 L 183.60 534.40 L 192.90 540.30 L 202.20 545.70 L 211.60 550.70 L 221.10 555.20 L 230.80 559.40 L 240.50 563.00 L 250.10 566.10 L 259.60 568.80 L 269.30 570.90 L 278.80 572.50 L 288.10 573.50 L 297.20 574.00 L 306.40 573.90 L 315.30 573.20 L 323.90 571.90 L 332.30 570.00 Z" fill="url(#linearGradient1)" fill-rule="nonzero" group-id="1,2,7,14" node-id="255" stroke="none" target-height="371.2" target-width="398.59998" target-x="73.3" target-y="202.8"></path></g><path d="M 332.30 570.00 L 340.50 567.50 L 348.60 564.30 L 356.60 560.40 L 364.70 555.90 L 372.30 550.90 L 379.90 545.40 L 387.30 539.30 L 394.60 532.60 L 401.60 525.50 L 408.30 518.10 L 414.80 510.10 L 421.20 501.60 L 427.10 493.00 L 432.80 483.90 L 438.10 474.60 L 443.20 464.80 L 447.90 454.90 L 452.20 444.80 L 456.10 434.40 L 459.70 423.80 L 462.80 413.10 L 465.50 402.20 L 467.70 391.30 L 469.50 380.30 L 470.80 369.10 L 471.60 358.00 L 471.90 347.00 L 471.60 335.90 L 470.80 324.80 L 469.40 313.90 L 467.50 303.10 L 465.00 292.40 L 462.40 283.90 L 459.40 275.90 L 456.10 268.40 L 452.40 261.30 L 448.20 254.40 L 443.70 248.00 L 439.00 242.00 L 433.90 236.50 L 428.50 231.20 L 422.80 226.50 L 417.00 222.10 L 411.00 218.20 L 404.70 214.70 L 398.20 211.70 L 391.70 209.10 L 385.00 206.90 L 378.20 205.20 L 371.30 204.00 L 364.40 203.20 L 357.40 202.80 L 350.50 203.00 L 343.50 203.60 L 336.60 204.70 L 329.70 206.30 L 320.20 209.10 L 311.90 212.10 L 304.70 215.20 L 297.60 218.70 L 291.50 222.20 L 286.20 225.60 L 276.80 233.10 L 270.70 239.10 L 264.60 246.30 L 254.20 260.60 L 252.70 262.00 L 250.20 263.50 L 248.40 263.60 L 245.60 262.80 L 231.60 255.00 L 225.80 252.50 L 218.40 250.10 L 212.90 248.90 L 206.30 247.90 L 199.80 247.40 L 192.10 247.40 L 183.20 248.00 L 174.40 249.10 L 164.20 251.00 L 152.50 253.80 L 145.40 255.90 L 138.70 258.30 L 132.30 261.10 L 126.20 264.30 L 120.40 267.70 L 114.80 271.60 L 109.50 275.70 L 104.50 280.20 L 99.90 284.90 L 95.60 290.00 L 91.60 295.30 L 88.00 300.90 L 84.80 306.80 L 81.90 313.00 L 79.40 319.50 L 77.30 326.00 L 75.70 332.80 L 74.50 340.00 L 73.60 347.40 L 73.30 355.10 L 73.30 362.70 L 73.90 370.50 L 74.90 378.70 L 76.50 387.10 L 78.60 395.90 L 81.70 406.50 L 85.50 416.80 L 89.70 426.90 L 94.60 436.90 L 99.90 446.60 L 105.70 456.10 L 111.90 465.30 L 118.60 474.30 L 125.70 483.00 L 133.10 491.30 L 140.80 499.30 L 148.90 507.10 L 157.20 514.50 L 165.80 521.50 L 174.60 528.10 L 183.60 534.40 L 192.90 540.30 L 202.20 545.70 L 211.60 550.70 L 221.10 555.20 L 230.80 559.40 L 240.50 563.00 L 250.10 566.10 L 259.60 568.80 L 269.30 570.90 L 278.80 572.50 L 288.10 573.50 L 297.20 574.00 L 306.40 573.90 L 315.30 573.20 L 323.90 571.90 L 332.30 570.00 Z" fill="#000000" fill-rule="nonzero" filter="url(#filter-17)" group-id="1,2,7,15" node-id="260" stroke="none" target-height="371.2" target-width="398.59998" target-x="73.3" target-y="202.8"></path></g><g node-id="281"><g node-id="289"><path d="M 705.20 570.00 L 697.00 567.50 L 688.90 564.30 L 680.80 560.40 L 672.80 555.90 L 665.10 550.90 L 657.60 545.40 L 650.20 539.30 L 642.80 532.60 L 635.90 525.50 L 629.20 518.10 L 622.60 510.10 L 616.30 501.60 L 610.30 493.00 L 604.70 483.90 L 599.30 474.60 L 594.30 464.80 L 589.60 454.90 L 585.30 444.80 L 581.40 434.40 L 577.80 423.80 L 574.70 413.10 L 572.00 402.20 L 569.80 391.30 L 568.00 380.30 L 566.70 369.10 L 565.90 358.00 L 565.60 347.00 L 565.90 335.90 L 566.70 324.80 L 568.00 313.90 L 570.00 303.10 L 572.50 292.40 L 575.10 283.90 L 578.10 275.90 L 581.40 268.40 L 585.10 261.30 L 589.30 254.40 L 593.80 248.00 L 598.50 242.00 L 603.60 236.50 L 609.00 231.20 L 614.60 226.50 L 620.50 222.10 L 626.50 218.20 L 632.80 214.70 L 639.20 211.70 L 645.80 209.10 L 652.50 206.90 L 659.30 205.20 L 666.20 204.00 L 673.10 203.20 L 680.00 202.80 L 687.00 203.00 L 693.90 203.60 L 700.80 204.70 L 707.70 206.30 L 717.30 209.10 L 725.60 212.10 L 732.80 215.20 L 739.90 218.70 L 746.00 222.20 L 751.30 225.60 L 760.70 233.10 L 766.80 239.10 L 772.80 246.30 L 783.30 260.60 L 784.70 262.00 L 787.30 263.50 L 789.00 263.60 L 791.80 262.80 L 805.90 255.00 L 811.70 252.50 L 819.10 250.10 L 824.60 248.90 L 831.20 247.90 L 837.70 247.40 L 845.40 247.40 L 854.30 248.00 L 863.10 249.10 L 873.30 251.00 L 885.00 253.80 L 892.00 255.90 L 898.70 258.30 L 905.10 261.10 L 911.20 264.30 L 917.10 267.70 L 922.70 271.60 L 928.00 275.70 L 932.90 280.20 L 937.60 284.90 L 941.90 290.00 L 945.90 295.30 L 949.50 300.90 L 952.70 306.80 L 955.60 313.00 L 958.10 319.50 L 960.10 326.00 L 961.80 332.80 L 963.00 340.00 L 963.80 347.40 L 964.20 355.10 L 964.10 362.70 L 963.60 370.50 L 962.50 378.70 L 961.00 387.10 L 958.90 395.90 L 955.70 406.50 L 952.00 416.80 L 947.70 426.90 L 942.90 436.90 L 937.60 446.60 L 931.80 456.10 L 925.60 465.30 L 918.90 474.30 L 911.80 483.00 L 904.40 491.30 L 896.70 499.30 L 888.60 507.10 L 880.20 514.50 L 871.60 521.50 L 862.90 528.10 L 853.80 534.40 L 844.60 540.30 L 835.20 545.70 L 825.80 550.70 L 816.40 555.20 L 806.60 559.40 L 797.00 563.00 L 787.40 566.10 L 777.90 568.80 L 768.20 570.90 L 758.70 572.50 L 749.40 573.50 L 740.30 574.00 L 731.10 573.90 L 722.20 573.20 L 713.50 571.90 L 705.20 570.00 Z" fill="url(#linearGradient-15)" fill-rule="nonzero" group-id="1,2,8,16" node-id="267" stroke="none" target-height="371.2" target-width="398.60004" target-x="565.6" target-y="202.8"></path></g><path d="M 705.20 570.00 L 697.00 567.50 L 688.90 564.30 L 680.80 560.40 L 672.80 555.90 L 665.10 550.90 L 657.60 545.40 L 650.20 539.30 L 642.80 532.60 L 635.90 525.50 L 629.20 518.10 L 622.60 510.10 L 616.30 501.60 L 610.30 493.00 L 604.70 483.90 L 599.30 474.60 L 594.30 464.80 L 589.60 454.90 L 585.30 444.80 L 581.40 434.40 L 577.80 423.80 L 574.70 413.10 L 572.00 402.20 L 569.80 391.30 L 568.00 380.30 L 566.70 369.10 L 565.90 358.00 L 565.60 347.00 L 565.90 335.90 L 566.70 324.80 L 568.00 313.90 L 570.00 303.10 L 572.50 292.40 L 575.10 283.90 L 578.10 275.90 L 581.40 268.40 L 585.10 261.30 L 589.30 254.40 L 593.80 248.00 L 598.50 242.00 L 603.60 236.50 L 609.00 231.20 L 614.60 226.50 L 620.50 222.10 L 626.50 218.20 L 632.80 214.70 L 639.20 211.70 L 645.80 209.10 L 652.50 206.90 L 659.30 205.20 L 666.20 204.00 L 673.10 203.20 L 680.00 202.80 L 687.00 203.00 L 693.90 203.60 L 700.80 204.70 L 707.70 206.30 L 717.30 209.10 L 725.60 212.10 L 732.80 215.20 L 739.90 218.70 L 746.00 222.20 L 751.30 225.60 L 760.70 233.10 L 766.80 239.10 L 772.80 246.30 L 783.30 260.60 L 784.70 262.00 L 787.30 263.50 L 789.00 263.60 L 791.80 262.80 L 805.90 255.00 L 811.70 252.50 L 819.10 250.10 L 824.60 248.90 L 831.20 247.90 L 837.70 247.40 L 845.40 247.40 L 854.30 248.00 L 863.10 249.10 L 873.30 251.00 L 885.00 253.80 L 892.00 255.90 L 898.70 258.30 L 905.10 261.10 L 911.20 264.30 L 917.10 267.70 L 922.70 271.60 L 928.00 275.70 L 932.90 280.20 L 937.60 284.90 L 941.90 290.00 L 945.90 295.30 L 949.50 300.90 L 952.70 306.80 L 955.60 313.00 L 958.10 319.50 L 960.10 326.00 L 961.80 332.80 L 963.00 340.00 L 963.80 347.40 L 964.20 355.10 L 964.10 362.70 L 963.60 370.50 L 962.50 378.70 L 961.00 387.10 L 958.90 395.90 L 955.70 406.50 L 952.00 416.80 L 947.70 426.90 L 942.90 436.90 L 937.60 446.60 L 931.80 456.10 L 925.60 465.30 L 918.90 474.30 L 911.80 483.00 L 904.40 491.30 L 896.70 499.30 L 888.60 507.10 L 880.20 514.50 L 871.60 521.50 L 862.90 528.10 L 853.80 534.40 L 844.60 540.30 L 835.20 545.70 L 825.80 550.70 L 816.40 555.20 L 806.60 559.40 L 797.00 563.00 L 787.40 566.10 L 777.90 568.80 L 768.20 570.90 L 758.70 572.50 L 749.40 573.50 L 740.30 574.00 L 731.10 573.90 L 722.20 573.20 L 713.50 571.90 L 705.20 570.00 Z" fill="#000000" fill-rule="nonzero" filter="url(#filter-19)" group-id="1,2,8,17" node-id="272" stroke="none" target-height="371.2" target-width="398.60004" target-x="565.6" target-y="202.8"></path></g></g></g></svg>